<?xml version="1.0" standalone="no"?>
<!DOCTYPE svg PUBLIC "-//W3C//DTD SVG 1.1//EN" "http://www.w3.org/Graphics/SVG/1.1/DTD/svg11.dtd" >
<svg xmlns="http://www.w3.org/2000/svg" xmlns:xlink="http://www.w3.org/1999/xlink" version="1.1">
<metadata>
Created by FontForge 20170731 at Mon Aug 29 19:39:34 2022
 By Aleksey,,,
Copyright (c) 2018 by Nikola &#38; Zoran Kostic. All rights reserved.
</metadata>
<defs>
<font id="RocGrotesk-WideBold" horiz-adv-x="1638" >
  <font-face 
    font-family="Roc Grotesk Wide"
    font-weight="700"
    font-stretch="expanded"
    units-per-em="2048"
    panose-1="0 0 8 5 0 0 0 0 0 0"
    ascent="1638"
    descent="-410"
    x-height="1012"
    cap-height="1348"
    bbox="-1028 -735 2873 1944"
    underline-thickness="102"
    underline-position="-368"
    unicode-range="U+000D-FB02"
  />
<missing-glyph horiz-adv-x="1050" 
d="M164 0v1348h723v-1348h-723zM283 121h481v1108h-481v-1108z" />
    <glyph glyph-name="f_f" unicode="ff" horiz-adv-x="2158" 
d="M207 0v750h-187v262h187v82q0 191 145 294t387 103q89 0 175 -13.5t135 -29.5v-250q-137 31 -242 31q-126 0 -181 -39t-55 -121v-57h643v82q0 191 145.5 294t387.5 103q188 0 319 -43v-250q-137 31 -251 31q-126 0 -181 -39t-55 -121v-57h508v-262h-508v-750h-365v750
h-643v-750h-364z" />
    <glyph glyph-name="fi" unicode="fi" horiz-adv-x="1720" 
d="M207 0v750h-187v262h187v82q0 191 145 294t387 103q189 0 320 -43v-250q-137 31 -252 31q-126 0 -181 -39t-55 -121v-57h508v-262h-508v-750h-364zM1253 1141v262h365v-262h-365zM1253 0v1012h365v-1012h-365z" />
    <glyph glyph-name="fl" unicode="fl" horiz-adv-x="1708" 
d="M207 0v750h-187v262h187v82q0 191 145 294t387 103q189 0 320 -43v-250q-137 31 -252 31q-126 0 -181 -39t-55 -121v-57h508v-262h-508v-750h-364zM1247 0v1434h365v-1434h-365z" />
    <glyph glyph-name=".notdef" horiz-adv-x="1050" 
d="M164 0v1348h723v-1348h-723zM283 121h481v1108h-481v-1108z" />
    <glyph glyph-name=".null" horiz-adv-x="0" 
 />
    <glyph glyph-name="nonmarkingreturn" horiz-adv-x="682" 
 />
    <glyph glyph-name="NULL" horiz-adv-x="0" 
 />
    <glyph glyph-name="NULL" horiz-adv-x="0" 
 />
    <glyph glyph-name="CR" unicode="&#xd;" horiz-adv-x="491" 
 />
    <glyph glyph-name="space" unicode=" " horiz-adv-x="614" 
 />
    <glyph glyph-name="exclam" unicode="!" horiz-adv-x="550" 
d="M205 504l-115 651v221h369v-221l-115 -651h-139zM92 0v324h365v-324h-365z" />
    <glyph glyph-name="quotedbl" unicode="&#x22;" horiz-adv-x="956" 
d="M201 811l-103 444v93h324v-93l-105 -444h-116zM637 811l-102 444v93h323v-93l-104 -444h-117z" />
    <glyph glyph-name="numbersign" unicode="#" 
d="M1577 778h-387l-51 -217h438v-291h-504l-61 -270h-215l61 270h-262l-61 -270h-216l62 270h-320v291h385l52 217h-437v291h502l64 279h215l-64 -279h262l64 279h215l-64 -279h322v-291zM924 561l51 217h-262l-51 -217h262z" />
    <glyph glyph-name="dollar" unicode="$" 
d="M1546 477q0 -58 -15.5 -109t-54.5 -101.5t-99.5 -89.5t-157 -68t-220.5 -41v-218h-127v209h-59h-47v-209h-127v216q-135 11 -235 41.5t-156.5 68.5t-90.5 90.5t-44.5 99t-10.5 101.5h353q2 -29 8 -48.5t24 -41t56 -36t96 -22.5v232q-284 23 -399 86q-138 74 -138 248
q0 53 18 102.5t59 97.5t102 86.5t152.5 67t205.5 41.5v217h127v-209h47h59v209h127v-217q119 -11 209 -37.5t146 -63.5t90.5 -87.5t47.5 -104t13 -119.5h-331q-2 71 -38.5 108.5t-136.5 51.5v-233q263 -19 353 -52q194 -67 194 -266zM813 1038h-47v-227l106 -6v233h-59z
M539 836q37 -9 100 -15v207q-164 -25 -164 -119q0 -57 64 -73zM813 309h59v226l-106 6v-232h47zM999 319q100 14 137.5 45.5t37.5 79.5q0 27 -19 46.5t-63 25.5q-14 2 -48 5.5t-45 4.5v-207z" />
    <glyph glyph-name="percent" unicode="%" 
d="M453 768q-179 0 -285.5 82t-106.5 219q0 122 108 210.5t284 88.5q175 0 283 -88.5t108 -210.5q0 -137 -106 -219t-285 -82zM68 0l1275 1348h228l-1276 -1348h-227zM453 944q78 0 119.5 33.5t41.5 91.5q0 56 -43.5 89.5t-117.5 33.5q-76 0 -119 -33.5t-43 -89.5
q0 -59 41 -92t121 -33zM1186 -20q-179 0 -285 82t-106 219q0 123 107.5 211t283.5 88q175 0 283 -88.5t108 -210.5q0 -137 -106 -219t-285 -82zM1186 156q78 0 120 33.5t42 91.5q0 56 -43.5 89t-118.5 33q-76 0 -119 -33t-43 -89q0 -59 41 -92t121 -33z" />
    <glyph glyph-name="ampersand" unicode="&#x26;" horiz-adv-x="1945" 
d="M1835 262h43v-280q-35 -7 -82 -7q-268 0 -532 129q-240 -129 -527 -129q-157 0 -283 40.5t-203.5 108t-118 151t-40.5 174.5q0 70 26 134.5t78 120t142 91.5t207 41q-33 85 -33 161q0 74 29.5 140t87.5 119.5t154.5 84.5t220.5 31q120 0 214.5 -29.5t153 -81t89 -117
t30.5 -140.5q0 -155 -123.5 -247t-329.5 -95l-2 -3q103 -118 254 -217q151 141 226 318h323q-114 -268 -293 -447q149 -51 289 -51zM1024 1110q-72 0 -109.5 -38.5t-37.5 -100.5q0 -59 36 -129q100 1 156 18.5t77 48t21 82.5q0 47 -38 83t-105 36zM457 461q0 -90 84 -156.5
t227 -66.5q127 0 227 32q-217 165 -346 367h-6q-53 -4 -91.5 -22.5t-58 -45t-28 -53.5t-8.5 -55z" />
    <glyph glyph-name="quotesingle" unicode="'" horiz-adv-x="520" 
d="M201 811l-103 444v93h324v-93l-105 -444h-116z" />
    <glyph glyph-name="parenleft" unicode="(" horiz-adv-x="724" 
d="M459 -311q-183 160 -290.5 387t-107.5 506q0 280 108.5 517t289.5 396h256q-171 -165 -281 -405.5t-110 -507.5q0 -266 109 -497t282 -396h-256z" />
    <glyph glyph-name="parenright" unicode=")" horiz-adv-x="724" 
d="M10 -311q172 165 280.5 396.5t108.5 496.5q0 267 -109.5 507.5t-279.5 405.5h254q182 -160 291 -397t109 -516t-108 -506t-292 -387h-254z" />
    <glyph glyph-name="asterisk" unicode="*" horiz-adv-x="1269" 
d="M436 516l-162 119l183 252v4l-301 98l59 187l315 -103l5 2v318h200v-318l4 -2l314 103l61 -187l-301 -98l-2 -4l184 -252l-161 -119l-195 266h-8z" />
    <glyph glyph-name="plus" unicode="+" 
d="M705 61v414h-537v209h537v414h229v-414h536v-209h-536v-414h-229z" />
    <glyph glyph-name="comma" unicode="," horiz-adv-x="684" 
d="M135 -338v172q95 0 139.5 38t44.5 120v8h-159v324h364v-226q0 -230 -97.5 -333t-291.5 -103z" />
    <glyph glyph-name="hyphen" unicode="-" horiz-adv-x="753" 
d="M82 475v209h590v-209h-590z" />
    <glyph glyph-name="period" unicode="." horiz-adv-x="684" 
d="M160 0v324h364v-324h-364z" />
    <glyph glyph-name="slash" unicode="/" horiz-adv-x="788" 
d="M-98 -410l784 1926h201l-785 -1926h-200z" />
    <glyph glyph-name="zero" unicode="0" 
d="M817 -20q-191 0 -336.5 54t-233.5 150t-131.5 221t-43.5 275q0 318 190.5 503t554.5 185q184 0 327.5 -49.5t235.5 -140.5t139.5 -216.5t47.5 -281.5q0 -119 -27 -223t-86 -192.5t-145.5 -151t-212 -98t-279.5 -35.5zM817 270q179 0 268 107t89 301q0 192 -92 295.5
t-265 103.5q-171 0 -261.5 -103t-90.5 -296q0 -194 87.5 -301t264.5 -107z" />
    <glyph glyph-name="one" unicode="1" 
d="M133 0v291h543v500h-375v233l236 12q90 5 135.5 31t68 90t27.5 191h301v-1057h436v-291h-1372z" />
    <glyph glyph-name="two" unicode="2" 
d="M113 0q0 63 2.5 109.5t9 94.5t19.5 83.5t33 72.5t49.5 65.5t68.5 57.5t91.5 54.5t117.5 50.5t147 51q116 36 179.5 58t119 46.5t78.5 47t35 49.5t12 65q0 75 -66.5 123.5t-191.5 48.5q-162 0 -249 -62.5t-87 -183.5q0 -41 8 -81h-350q-10 45 -10 116q0 104 41 193
t122.5 159t216 110t308.5 40q142 0 256 -27t186.5 -71t120.5 -104t68 -122.5t20 -130.5q0 -113 -54.5 -193t-184.5 -148t-365 -138q-108 -32 -171 -54t-89.5 -38.5t-31.5 -25t-5 -25.5h946v-291h-1400z" />
    <glyph glyph-name="three" unicode="3" 
d="M793 -20q-140 0 -254 19t-191 53t-132.5 77t-86 95.5t-44 103.5t-13.5 106q0 63 12 103h354q-4 -28 -4 -52q0 -98 86 -156.5t279 -58.5q375 0 375 185q0 104 -220 104h-268v229h217q118 0 171.5 31t53.5 99q0 71 -80.5 115t-238.5 44q-93 0 -160.5 -16t-106 -45t-56 -65
t-17.5 -81q0 -29 4 -53h-340q-16 48 -16 111q0 62 18.5 119.5t68.5 117t126.5 103.5t203.5 72t289 28q167 0 295.5 -29.5t206.5 -82t117 -120t39 -147.5q0 -94 -54.5 -159.5t-162.5 -92.5v-6q151 -25 227 -105.5t76 -195.5q0 -79 -26 -145.5t-84.5 -123.5t-147 -96.5
t-219.5 -62t-297 -22.5z" />
    <glyph glyph-name="four" unicode="4" 
d="M967 0v244h-906v299l908 805h391v-813h248v-291h-248v-244h-393zM461 535h506v446h-2l-504 -444v-2z" />
    <glyph glyph-name="five" unicode="5" 
d="M852 -20q-181 0 -316 24.5t-212.5 61.5t-125 91.5t-62.5 105t-15 110.5q0 21 4 45h369v-15q0 -65 83 -99t275 -34q164 0 232.5 48t68.5 139q0 174 -330 174q-248 0 -309 -103l-369 31l70 789h1208v-291h-882l-35 -371l4 -2q81 176 469 176q156 0 269 -32.5t176.5 -91.5
t92.5 -131t29 -161q0 -78 -21.5 -144.5t-73 -126.5t-129.5 -102t-198 -66.5t-272 -24.5z" />
    <glyph glyph-name="six" unicode="6" 
d="M842 -20q-133 0 -242.5 19t-188 52.5t-138.5 83t-98 106t-61.5 127t-32.5 139.5t-9 150q0 127 29 235t90 196.5t151.5 150.5t217 95.5t282.5 33.5q145 0 260 -24.5t189 -66t123.5 -98.5t70 -119t20.5 -132q0 -25 -4 -49h-350q2 12 2 30q0 74 -71 121t-228 47
q-389 0 -389 -420q0 -16 1 -36t1 -23h4q59 201 504 201q134 0 237.5 -20t169.5 -53.5t108.5 -81.5t59.5 -100.5t17 -113.5q0 -75 -21 -139t-73 -122.5t-133 -99.5t-207.5 -65t-290.5 -24zM842 270q175 0 253.5 44.5t78.5 115.5q0 139 -332 139q-99 0 -172 -15t-110 -38.5
t-54 -47.5t-17 -48q0 -16 6.5 -33t29 -39t58.5 -38.5t103.5 -28t155.5 -11.5z" />
    <glyph glyph-name="seven" unicode="7" 
d="M338 0q126 653 801 1034v2h-1067v312h1474v-293q-620 -381 -733 -1055h-475z" />
    <glyph glyph-name="eight" unicode="8" 
d="M819 -20q-165 0 -295 22t-214 59.5t-139 90t-78 110t-23 123.5q0 55 16.5 102t53.5 92.5t108 78t170 47.5v4q-141 31 -201.5 102.5t-60.5 177.5q0 59 19.5 111t67 102.5t121 86t190.5 57.5t265 22t264.5 -22t190 -58t122 -85.5t68 -102t19.5 -111.5q0 -106 -60.5 -177.5
t-201.5 -102.5v-4q99 -15 170 -47.5t108 -78t53.5 -92.5t16.5 -102q0 -66 -23 -123.5t-78 -110t-139.5 -90t-214.5 -59.5t-295 -22zM819 797q320 0 320 143q0 70 -80.5 114t-239.5 44t-239 -44t-80 -114q0 -143 319 -143zM819 250q179 0 268 46.5t89 121.5q0 149 -357 149
q-356 0 -356 -149q0 -75 88.5 -121.5t267.5 -46.5z" />
    <glyph glyph-name="nine" unicode="9" 
d="M788 -20q-147 0 -263 21.5t-191.5 59t-125 91t-70.5 114t-21 131.5q0 28 4 52h350q-2 -18 -2 -39q0 -140 319 -140q386 0 386 418q0 18 -1.5 41t-1.5 25h-4q-50 -238 -497 -238q-140 0 -247 22t-172.5 57t-106.5 86t-56.5 103t-15.5 113q0 73 23.5 139.5t79 128t138 106
t208 71t282.5 26.5q128 0 233.5 -18.5t184 -51.5t138.5 -81.5t99 -105.5t64 -127t35 -142t10 -154q0 -708 -779 -708zM786 745q176 0 267.5 50.5t91.5 130.5q0 6 -2.5 15.5t-11.5 24.5t-23 29.5t-40 29.5t-60 26t-86 18.5t-115 7.5q-95 0 -164 -14.5t-106.5 -40.5
t-54.5 -55.5t-17 -63.5q0 -158 321 -158z" />
    <glyph glyph-name="colon" unicode=":" horiz-adv-x="684" 
d="M160 647v324h364v-324h-364zM160 0v324h364v-324h-364z" />
    <glyph glyph-name="semicolon" unicode=";" horiz-adv-x="684" 
d="M160 647v324h364v-324h-364zM115 -338v152q99 0 150.5 47t51.5 131v8h-157v324h364v-226q0 -229 -104 -332.5t-305 -103.5z" />
    <glyph glyph-name="less" unicode="&#x3c;" 
d="M1382 45l-1126 457v174l1126 459v-261l-741 -282v-4l741 -285v-258z" />
    <glyph glyph-name="equal" unicode="=" 
d="M168 664v208h1302v-208h-1302zM168 266v209h1302v-209h-1302z" />
    <glyph glyph-name="greater" unicode="&#x3e;" 
d="M256 45v258l739 285v4l-739 282v261l1126 -459v-174z" />
    <glyph glyph-name="question" unicode="?" horiz-adv-x="1204" 
d="M174 414v331h262q41 -112 189 -112q99 0 157 61.5t58 192.5q0 108 -57 173.5t-169 65.5q-102 0 -155 -45.5t-53 -119.5q0 -21 2 -39h-299q-7 35 -7 71q0 175 134.5 279t379.5 104q134 0 236.5 -36.5t165 -102t94 -151.5t31.5 -191q0 -216 -119.5 -349.5t-310.5 -133.5
q-207 0 -273 151h-4v-149h-262zM135 0v324h365v-324h-365z" />
    <glyph glyph-name="at" unicode="@" horiz-adv-x="2197" 
d="M1090 -328q-187 0 -349 32.5t-293.5 98.5t-225 161t-144.5 224t-51 283q0 166 60 312t165 253t244.5 184.5t302.5 116.5t336 39q206 0 377.5 -36.5t292 -101.5t204 -155t123 -194.5t39.5 -222.5q0 -147 -47.5 -266.5t-130.5 -197t-194 -119.5t-240 -42q-151 0 -231.5 66
t-61.5 208h-6q-72 -274 -371 -274q-110 0 -196 36t-136 96t-75 130.5t-25 147.5q0 164 79 293t207.5 196.5t280.5 67.5q120 0 208 -40.5t130 -113.5h2l47 133h328l-119 -563q-23 -118 -23 -145q0 -82 103 -82q123 0 213 129.5t90 339.5q0 273 -219.5 418t-653.5 145
q-141 0 -275.5 -30.5t-254.5 -93t-210 -151t-142.5 -213t-52.5 -270.5q0 -312 236 -481.5t659 -169.5q199 0 405 27.5t317 64.5l11 -141q-135 -45 -330.5 -72t-402.5 -27zM1004 270q94 0 169 62.5t101 169.5l39 180q-22 39 -78 67.5t-125 28.5q-141 0 -221 -91.5t-80 -217.5
q0 -89 54 -144t141 -55z" />
    <glyph glyph-name="A" unicode="A" horiz-adv-x="2015" 
d="M1518 0l-140 274h-792l-140 -274h-405l733 1348h467l733 -1348h-456zM700 504h562l-281 549h-2z" />
    <glyph glyph-name="B" unicode="B" horiz-adv-x="1685" 
d="M117 0v1348h856q143 0 250 -22.5t167.5 -57t97 -84.5t47.5 -94.5t11 -98.5q0 -44 -11.5 -84.5t-36 -81t-71.5 -72t-112 -48.5v-3q81 -14 141.5 -47t93.5 -76.5t48.5 -89.5t15.5 -94q0 -70 -15.5 -125.5t-57 -107.5t-108.5 -86.5t-175.5 -55t-253.5 -20.5h-887zM510 801
h473q118 0 169.5 35.5t51.5 103.5q0 137 -246 137h-448v-276zM510 268h475q141 0 198.5 41.5t57.5 120.5q0 61 -60 101t-188 40h-483v-303z" />
    <glyph glyph-name="C" unicode="C" horiz-adv-x="1781" 
d="M922 -25q-155 0 -284 27t-220.5 76.5t-159.5 114t-108 144.5t-59 162.5t-19 172.5q0 151 54 278t157.5 221.5t266 147.5t368.5 53q123 0 230 -18.5t186 -50.5t142.5 -76t105.5 -93t70 -103.5t40 -106t12 -101.5q0 -20 -2 -32h-350v8q0 49 -25 97t-73 90.5t-131 68.5
t-187 26q-214 0 -332.5 -114.5t-118.5 -294.5q0 -84 25.5 -155t78 -128.5t142 -90t207.5 -32.5q200 0 310 79t110 198v12h350q2 -10 2 -29q0 -82 -26 -158.5t-86.5 -148.5t-149 -125.5t-224 -86t-302.5 -32.5z" />
    <glyph glyph-name="D" unicode="D" horiz-adv-x="1720" 
d="M117 0v1348h686q155 0 282 -23t219 -67t159 -103.5t107.5 -136.5t59.5 -161.5t19 -182.5q0 -165 -43.5 -288t-136.5 -210.5t-244.5 -131.5t-362.5 -44h-745zM510 291h340q213 0 309 96t96 287q0 83 -23.5 150.5t-73 120.5t-135 82.5t-200.5 29.5h-313v-766z" />
    <glyph glyph-name="E" unicode="E" horiz-adv-x="1482" 
d="M117 0v1348h1274v-291h-881v-264h676v-230h-676v-272h901v-291h-1294z" />
    <glyph glyph-name="F" unicode="F" horiz-adv-x="1406" 
d="M117 0v1348h1239v-291h-846v-299h702v-250h-702v-508h-393z" />
    <glyph glyph-name="G" unicode="G" horiz-adv-x="1800" 
d="M862 -25q-168 0 -302.5 37t-224.5 100t-150 151t-86.5 185.5t-26.5 206.5q0 149 51.5 276.5t152.5 227t267 156.5t379 57q171 0 306 -29.5t220 -78t141 -116t78.5 -138t22.5 -150.5q0 -15 -2 -29h-351v15q0 33 -13 64.5t-43.5 63t-75.5 55t-115 38t-156 14.5
q-223 0 -341 -119t-118 -309q0 -70 15 -130.5t49.5 -114t86 -91.5t129 -59.5t173.5 -21.5q100 0 178 24.5t121.5 62.5t65.5 78.5t22 79.5v6h-434v209h827v-696h-303q4 118 4 272h-4q-36 -138 -169 -217.5t-374 -79.5z" />
    <glyph glyph-name="H" unicode="H" horiz-adv-x="1884" 
d="M117 0v1348h393v-508h864v508h393v-1348h-393v549h-864v-549h-393z" />
    <glyph glyph-name="I" unicode="I" horiz-adv-x="647" 
d="M127 0v1348h393v-1348h-393z" />
    <glyph glyph-name="J" unicode="J" horiz-adv-x="1576" 
d="M772 -25q-334 0 -502 146t-168 414q0 79 9 184h348q-4 -63 -4 -172q0 -129 76.5 -205t232.5 -76q144 0 230.5 86.5t86.5 255.5v740h394v-721q0 -323 -183 -487.5t-520 -164.5z" />
    <glyph glyph-name="K" unicode="K" horiz-adv-x="1927" 
d="M117 0v1348h393v-674h4l848 674h496l-764 -594l813 -754h-551l-553 526l-293 -227v-299h-393z" />
    <glyph glyph-name="L" unicode="L" horiz-adv-x="1359" 
d="M117 0v1348h393v-1037h799v-311h-1192z" />
    <glyph glyph-name="M" unicode="M" horiz-adv-x="2236" 
d="M117 0v1348h653l365 -938h2l356 938h627v-1348h-394v1079h-4l-426 -1079h-366l-428 1079h-4v-1079h-381z" />
    <glyph glyph-name="N" unicode="N" horiz-adv-x="1884" 
d="M117 0v1348h549l718 -811h2v811h381v-1348h-389l-878 991h-2v-991h-381z" />
    <glyph glyph-name="O" unicode="O" horiz-adv-x="1912" 
d="M956 -25q-179 0 -325.5 34.5t-249.5 97.5t-173 151t-103 194t-33 228q0 114 33 215.5t103.5 189t173 151.5t249.5 100t325 36t325 -36t249.5 -100t173.5 -151.5t104 -189t33 -215.5q0 -117 -31 -220.5t-100 -193t-170.5 -154t-250.5 -101t-333 -36.5zM956 266
q236 0 353.5 114t117.5 298q0 174 -121.5 288.5t-349.5 114.5t-349.5 -114.5t-121.5 -288.5q0 -189 119 -300.5t352 -111.5z" />
    <glyph glyph-name="P" unicode="P" horiz-adv-x="1642" 
d="M117 0v1348h811q342 0 502.5 -120t160.5 -364q0 -235 -161.5 -351t-511.5 -116h-408v-397h-393zM510 647h399q158 0 234 50.5t76 154.5q0 102 -73.5 153.5t-234.5 51.5h-401v-410z" />
    <glyph glyph-name="Q" unicode="Q" horiz-adv-x="1912" 
d="M956 -25q-225 0 -396.5 53t-277 149t-158 222.5t-52.5 280.5q0 114 32.5 215.5t103 189t172.5 151t249.5 100t326.5 36.5q178 0 325.5 -34.5t250 -94t173 -141t103.5 -175t33 -196.5q0 -172 -101.5 -310t-291.5 -198v-4q239 13 387 27v-271h-879zM956 266
q236 0 353.5 114t117.5 298q0 174 -121.5 288.5t-349.5 114.5t-349.5 -114.5t-121.5 -288.5q0 -189 119 -300.5t352 -111.5z" />
    <glyph glyph-name="R" unicode="R" horiz-adv-x="1732" 
d="M117 0v1348h848q183 0 312.5 -28t203.5 -82t106.5 -124.5t32.5 -165.5q0 -249 -244 -321v-4q62 -14 106.5 -41t69 -58.5t38.5 -75t18 -80t4 -85.5v-283h-393v283q0 107 -49.5 154.5t-172.5 47.5h-487v-485h-393zM510 715h473q264 0 264 176q0 166 -299 166h-438v-342z
" />
    <glyph glyph-name="S" unicode="S" horiz-adv-x="1753" 
d="M862 -25q-145 0 -263 17.5t-196.5 45.5t-137.5 69t-91.5 82t-52.5 91t-25.5 89.5t-5.5 83.5h352q0 -46 19 -81.5t64 -65t129.5 -45t207.5 -15.5q129 0 214.5 12t128 36t58 51t15.5 65q0 80 -107 104q-72 15 -440 35q-348 20 -485 90q-76 40 -120 111.5t-44 167.5t47 177
t139.5 143.5t243.5 98t346 35.5q134 0 243 -13t186.5 -36t135.5 -57.5t93 -72.5t56.5 -87t29.5 -96t8 -103h-353q0 195 -399 195q-383 0 -383 -156q0 -73 86 -100q21 -7 55.5 -12t85.5 -9.5t89 -7t104.5 -6.5t93.5 -6q344 -21 479 -76q96 -40 149.5 -116t53.5 -173
q0 -71 -16.5 -131t-69 -124t-138 -108.5t-235.5 -73t-350 -28.5z" />
    <glyph glyph-name="T" unicode="T" horiz-adv-x="1556" 
d="M582 0v1057h-531v291h1454v-291h-530v-1057h-393z" />
    <glyph glyph-name="U" unicode="U" horiz-adv-x="1794" 
d="M899 -25q-378 0 -587.5 157.5t-209.5 469.5v746h394v-703q0 -187 108.5 -272.5t313.5 -85.5t313 85.5t108 272.5v703h353v-746q0 -313 -207 -470t-586 -157z" />
    <glyph glyph-name="V" unicode="V" horiz-adv-x="1994" 
d="M762 0l-721 1348h448l535 -1033h2l526 1033h402l-721 -1348h-471z" />
    <glyph glyph-name="W" unicode="W" horiz-adv-x="2711" 
d="M582 0l-541 1348h426l358 -926h4l359 926h397l352 -926h5l342 926h387l-541 -1348h-432l-334 870h-4l-346 -870h-432z" />
    <glyph glyph-name="X" unicode="X" horiz-adv-x="1865" 
d="M41 0l635 700l-615 648h508l402 -445l379 445h454l-614 -662l635 -686h-508l-414 477l-393 -477h-469z" />
    <glyph glyph-name="Y" unicode="Y" horiz-adv-x="1939" 
d="M772 0v547l-731 801h524l436 -490h7l432 490h458l-733 -801v-547h-393z" />
    <glyph glyph-name="Z" unicode="Z" horiz-adv-x="1566" 
d="M66 0v256l948 797v4h-938v291h1425v-281l-923 -774v-2h915v-291h-1427z" />
    <glyph glyph-name="bracketleft" unicode="[" horiz-adv-x="841" 
d="M86 -389v2013h725v-135h-416v-1743h416v-135h-725z" />
    <glyph glyph-name="backslash" unicode="\" horiz-adv-x="806" 
d="M627 -410l-641 1926h194l641 -1926h-194z" />
    <glyph glyph-name="bracketright" unicode="]" horiz-adv-x="841" 
d="M31 -389v135h415v1743h-415v135h725v-2013h-725z" />
    <glyph glyph-name="asciicircum" unicode="^" 
d="M115 725l612 651h184l611 -651h-318l-383 420h-4l-385 -420h-317z" />
    <glyph glyph-name="underscore" unicode="_" 
d="M0 -362v188h1638v-188h-1638z" />
    <glyph glyph-name="a" unicode="a" horiz-adv-x="1484" 
d="M565 -20q-108 0 -193 19.5t-138.5 51.5t-88.5 75t-49 86t-14 89q0 134 93.5 214.5t295.5 80.5h567v14q0 104 -70.5 148.5t-242.5 44.5q-266 0 -266 -119q0 -8 2 -18h-344q-2 18 -2 36q0 154 150.5 242t473.5 88q327 0 495.5 -117.5t168.5 -339.5v-575h-365q11 192 11 225
h-2q-33 -118 -144.5 -181.5t-337.5 -63.5zM668 209q171 0 270.5 59.5t99.5 130.5v9h-456q-95 0 -135.5 -19t-40.5 -67q0 -51 62.5 -82t199.5 -31z" />
    <glyph glyph-name="b" unicode="b" horiz-adv-x="1609" 
d="M920 -20q-90 0 -166 15t-125.5 38t-87.5 52.5t-57 56t-29 51.5h-2q0 -75 8 -193h-365v1434h365v-463q0 -88 -4 -170h4q17 47 50.5 86t87 73t136 53t185.5 19q304 0 461 -133.5t157 -372.5q0 -268 -161 -407t-457 -139zM838 242q174 0 255 66.5t81 207.5q0 120 -83.5 187
t-254.5 67q-176 0 -275.5 -77t-99.5 -204v-6q0 -104 97 -172.5t280 -68.5z" />
    <glyph glyph-name="c" unicode="c" horiz-adv-x="1466" 
d="M735 -20q-139 0 -252.5 30t-188.5 80.5t-126 118.5t-73.5 142t-22.5 153q0 110 43.5 204.5t126 167.5t214.5 114.5t298 41.5q136 0 245 -23.5t181.5 -64.5t120.5 -98.5t69 -121.5t21 -138h-324q-2 77 -76 130.5t-227 53.5q-162 0 -245 -72t-83 -192q0 -119 78 -191.5
t242 -72.5q160 0 236 50.5t79 127.5h324q0 -71 -21 -133.5t-70 -119.5t-123.5 -98t-188.5 -65t-257 -24z" />
    <glyph glyph-name="d" unicode="d" horiz-adv-x="1609" 
d="M682 -20q-290 0 -450 146t-160 392q0 106 41.5 199t119.5 163.5t199 111t270 40.5q344 0 443 -182h4v584h364v-1434h-364q6 161 8 225h-4q-84 -245 -471 -245zM778 242q85 0 157.5 25t118 64.5t70.5 86t25 92.5v25q0 99 -95 167t-270 68q-167 0 -258.5 -70.5
t-91.5 -183.5q0 -127 91 -200.5t253 -73.5z" />
    <glyph glyph-name="e" unicode="e" horiz-adv-x="1484" 
d="M1413 514v-84h-973q15 -105 93.5 -163t250.5 -58q156 0 225 33t81 92h323q-3 -60 -26 -111.5t-71 -97t-119 -77t-176.5 -50t-236.5 -18.5q-115 0 -212 15.5t-169.5 42t-129 65t-94 83t-62 96.5t-35 104.5t-10.5 109.5q0 250 181.5 393t510.5 143t489 -133t160 -385z
M1090 618v9q0 78 -71 127t-235 49q-154 0 -232.5 -46t-102.5 -139h641z" />
    <glyph glyph-name="f" unicode="f" horiz-adv-x="1150" 
d="M207 0v750h-187v262h187v82q0 191 145 294t387 103q189 0 320 -43v-250q-137 31 -252 31q-126 0 -181 -39t-55 -121v-57h508v-262h-508v-750h-364z" />
    <glyph glyph-name="g" unicode="g" horiz-adv-x="1566" 
d="M1081 197q100 0 177 -15.5t125 -41.5t78.5 -62.5t42.5 -74t12 -81.5q0 -61 -23.5 -114t-77.5 -100.5t-136 -81t-206 -53t-280 -19.5q-170 0 -301.5 16.5t-211 42.5t-130.5 63t-70 73.5t-19 78.5q0 76 61 124t183 52v2q-123 59 -123 178q0 71 44.5 126.5t123.5 68.5v4
q-219 86 -219 295q0 73 35 135.5t105.5 112t188.5 78t271 28.5q242 0 387 -65l2 6q-61 46 -61 102q0 61 68 102.5t206 41.5q73 0 123 -11v-204q-40 6 -88 6q-117 0 -117 -84q0 -21 15 -64q65 -77 65 -184q0 -158 -151 -256t-449 -98q-133 0 -235 18q-23 -32 -23 -70
q0 -33 29.5 -54t91.5 -21h487zM731 823q-128 0 -192 -40.5t-64 -104.5q0 -69 64 -107.5t192 -38.5q127 0 191.5 40t64.5 106q0 68 -65 106.5t-191 38.5zM793 -246q177 0 267.5 32t90.5 87q0 40 -40.5 61t-147.5 21h-359q-178 0 -178 -86q0 -53 91.5 -84t275.5 -31z" />
    <glyph glyph-name="h" unicode="h" horiz-adv-x="1599" 
d="M96 0v1434h365v-486q0 -93 -4 -233h2q102 317 538 317q521 0 521 -430v-602h-365v504q0 116 -73 181t-249 65q-105 0 -186.5 -29t-132.5 -95.5t-51 -164.5v-461h-365z" />
    <glyph glyph-name="i" unicode="i" horiz-adv-x="569" 
d="M102 1141v262h365v-262h-365zM102 0v1012h365v-1012h-365z" />
    <glyph glyph-name="j" unicode="j" horiz-adv-x="567" 
d="M100 1141v262h365v-262h-365zM-39 -426q-125 0 -266 25v254q105 -17 182 -17q131 0 177 52.5t46 168.5v955h365v-971q0 -77 -13 -142t-48 -126.5t-90 -104t-145 -68.5t-208 -26z" />
    <glyph glyph-name="k" unicode="k" horiz-adv-x="1617" 
d="M96 0v1434h365v-918h2l614 496h467l-579 -434l612 -578h-508l-373 377l-235 -176v-201h-365z" />
    <glyph glyph-name="l" unicode="l" horiz-adv-x="557" 
d="M96 0v1434h365v-1434h-365z" />
    <glyph glyph-name="m" unicode="m" horiz-adv-x="2332" 
d="M92 0v1012h365l-4 -293h2q47 148 161.5 230.5t294.5 82.5q383 0 437 -319h2q42 150 161.5 234.5t298.5 84.5q441 0 441 -426v-606h-365v514q0 119 -57 177.5t-184 58.5q-54 0 -104.5 -17t-93 -50.5t-68 -90.5t-25.5 -129v-463h-365v514q0 118 -58 177t-186 59
q-116 0 -202 -73.5t-86 -213.5v-463h-365z" />
    <glyph glyph-name="n" unicode="n" horiz-adv-x="1595" 
d="M92 0v1012h365l-4 -295h4q103 315 536 315q520 0 520 -430v-602h-364v504q0 246 -322 246q-77 0 -142.5 -17t-117 -51t-81 -90.5t-29.5 -130.5v-461h-365z" />
    <glyph glyph-name="o" unicode="o" horiz-adv-x="1564" 
d="M782 -20q-152 0 -273.5 28.5t-202 77t-134 116t-77 142.5t-23.5 160q0 84 24 159.5t78.5 143.5t135 117.5t201.5 78.5t271 29t271 -29t202 -78.5t135.5 -117.5t78.5 -143.5t24 -159.5q0 -85 -23.5 -160t-78 -142.5t-135 -116t-202 -77t-272.5 -28.5zM782 242
q179 0 262.5 73t83.5 189q0 118 -83.5 192t-262.5 74q-180 0 -263 -74t-83 -192q0 -115 83 -188.5t263 -73.5z" />
    <glyph glyph-name="p" unicode="p" horiz-adv-x="1609" 
d="M96 -406v1418h365l-4 -219h2q40 116 157.5 177.5t303.5 61.5q306 0 462 -134t156 -370q0 -271 -162.5 -409.5t-455.5 -138.5q-352 0 -467 210h-2q10 -138 10 -202v-394h-365zM838 242q175 0 256.5 66.5t81.5 207.5q0 120 -84 187t-256 67q-176 0 -275.5 -77t-99.5 -204
v-6q0 -104 97 -172.5t280 -68.5z" />
    <glyph glyph-name="q" unicode="q" horiz-adv-x="1609" 
d="M1149 -406v617h-4q-46 -110 -155 -170.5t-308 -60.5q-152 0 -270 41t-191.5 114.5t-111 170t-37.5 212.5q0 108 42.5 201.5t121.5 163t199 109.5t267 40q354 0 445 -198h2v178h364v-1418h-364zM778 242q85 0 157.5 25t118 64.5t70.5 86t25 92.5v25q0 99 -95 167t-270 68
q-165 0 -256.5 -70.5t-91.5 -183.5q0 -127 91 -200.5t251 -73.5z" />
    <glyph glyph-name="r" unicode="r" horiz-adv-x="1454" 
d="M92 0v1012h365l-6 -293h6q47 139 161.5 226t301.5 87q123 0 210.5 -32t137 -92.5t72 -137t22.5 -176.5q0 -111 -10 -209h-338q4 46 4 102q0 134 -50 198.5t-177 64.5q-84 0 -150 -30.5t-105 -81.5t-59 -113t-20 -130v-395h-365z" />
    <glyph glyph-name="s" unicode="s" horiz-adv-x="1425" 
d="M696 -20q-113 0 -205.5 12t-156 31.5t-112 48.5t-76.5 59t-45 67t-23 69.5t-6 68.5h344q1 -23 5.5 -39t21.5 -34t46 -29t81.5 -18t125.5 -7q117 0 184 13.5t88 34.5t21 54q0 56 -84 66q-35 4 -84.5 7t-116.5 5t-106 4q-311 12 -418 76q-108 64 -108 207
q0 163 162.5 259.5t461.5 96.5q141 0 247.5 -19t172 -51t106 -80t55.5 -98.5t15 -113.5h-344q-1 31 -10 52.5t-33.5 41t-74 29.5t-123.5 10q-271 0 -271 -105q0 -30 21 -46t75 -25q31 -4 75.5 -7t116 -6t118.5 -6q276 -15 372 -59q140 -64 140 -225q0 -344 -658 -344z" />
    <glyph glyph-name="t" unicode="t" horiz-adv-x="1169" 
d="M788 -20q-163 0 -278.5 30.5t-180 87.5t-93.5 129t-29 166v357h-187v262h156q38 0 55 20t23 68l18 141h299v-229h521v-262h-521v-349q0 -89 60.5 -124t216.5 -35q123 0 233 20v-252q-99 -30 -293 -30z" />
    <glyph glyph-name="u" unicode="u" horiz-adv-x="1595" 
d="M598 -20q-133 0 -234.5 36.5t-161.5 99.5t-90 142t-30 170v584h364v-502q0 -126 70.5 -187t235.5 -61q163 0 275 90.5t112 243.5v416h364v-1012h-364q4 122 4 289h-4q-53 -156 -179 -232.5t-362 -76.5z" />
    <glyph glyph-name="v" unicode="v" horiz-adv-x="1654" 
d="M618 0l-577 1012h430l379 -707h2l379 707h383l-570 -1012h-426z" />
    <glyph glyph-name="w" unicode="w" horiz-adv-x="2220" 
d="M426 0l-385 1012h387l250 -693h2l270 693h361l268 -693h2l252 693h346l-385 -1012h-444l-242 657h-4l-244 -657h-434z" />
    <glyph glyph-name="x" unicode="x" horiz-adv-x="1527" 
d="M41 0l487 522l-467 490h474l262 -301l258 301h411l-477 -490l498 -522h-473l-275 317l-262 -317h-436z" />
    <glyph glyph-name="y" unicode="y" horiz-adv-x="1568" 
d="M475 -446q-115 0 -237 30v252q77 -20 163 -20q100 0 159 37t112 147h-72l-559 1012h418l372 -684h5l335 684h357l-504 -1039q-115 -236 -233.5 -327.5t-315.5 -91.5z" />
    <glyph glyph-name="z" unicode="z" horiz-adv-x="1290" 
d="M61 0v199l680 546v5h-661v262h1149v-197l-684 -551v-2h684v-262h-1168z" />
    <glyph glyph-name="braceleft" unicode="{" horiz-adv-x="970" 
d="M940 -383q-134 0 -233.5 8.5t-186 30t-140 58t-84 93.5t-30.5 136q0 52 21 112t46.5 105.5t46.5 99t21 94.5q0 65 -46.5 105.5t-116.5 40.5h-187v164h187q70 0 116.5 39t46.5 104q0 42 -21 96.5t-46.5 99.5t-46.5 105.5t-21 112.5q0 79 30.5 136t84 93.5t140 58
t185.5 29.5t234 8v-147q-203 0 -288 -40t-85 -134q0 -43 19.5 -95t43 -94t43 -97t19.5 -103q0 -75 -73.5 -145.5t-184.5 -104.5v-11q110 -33 184 -103t74 -146q0 -48 -19.5 -102.5t-43 -95.5t-43 -93t-19.5 -96q0 -96 85 -136.5t288 -40.5v-145z" />
    <glyph glyph-name="bar" unicode="|" horiz-adv-x="552" 
d="M182 -410v1926h189v-1926h-189z" />
    <glyph glyph-name="braceright" unicode="}" horiz-adv-x="970" 
d="M31 -383v145q203 0 287.5 40.5t84.5 136.5q0 44 -19.5 96t-42.5 93t-42.5 95.5t-19.5 102.5q0 76 74 146t184 103v11q-111 34 -184.5 104.5t-73.5 145.5q0 48 19.5 103t42.5 97t42.5 94t19.5 95q0 94 -84.5 134t-287.5 40v147q135 0 234 -8t185.5 -29.5t140 -58t84 -93.5
t30.5 -136q0 -52 -21.5 -112.5t-46.5 -105.5t-46.5 -99.5t-21.5 -96.5q0 -65 46.5 -104t117.5 -39h187v-164h-187q-70 0 -117 -40.5t-47 -105.5q0 -41 21.5 -94.5t46.5 -99t46.5 -105.5t21.5 -112q0 -79 -30.5 -136t-84 -93.5t-140 -58t-186 -30t-233.5 -8.5z" />
    <glyph glyph-name="asciitilde" unicode="~" 
d="M1153 330q-154 0 -305 106l-119 84q-52 35 -76 50.5t-68.5 33t-82.5 17.5q-74 0 -109 -46t-35 -143v-86h-229v135q0 171 95 268t261 97q146 0 303 -109l121 -84q47 -32 74 -48t71.5 -33t82.5 -17q71 0 107 44t36 142v88h229v-135q0 -175 -95.5 -269.5t-260.5 -94.5z" />
    <glyph glyph-name="uni00A0" unicode="&#xa0;" horiz-adv-x="491" 
 />
    <glyph glyph-name="exclamdown" unicode="&#xa1;" horiz-adv-x="550" 
d="M92 627v323h365v-323h-365zM90 -426v221l115 651h139l115 -651v-221h-369z" />
    <glyph glyph-name="cent" unicode="&#xa2;" 
d="M864 410q98 1 169.5 17.5t110.5 43.5t57.5 57t21.5 66h323q0 -69 -24.5 -133t-80 -121.5t-137.5 -100t-204 -67.5t-271 -25h-41l-61 -208h-154l64 221q-121 15 -216 51t-156 85t-100.5 112t-56 127.5t-16.5 136.5q0 114 49.5 210t142.5 167t237.5 111t324.5 40
q63 0 92 -2l61 211h154l-68 -229q115 -21 204.5 -64.5t144.5 -100t83.5 -122t28.5 -135.5h-323q-7 56 -55 101.5t-154 66.5zM457 672q0 -211 256 -252l149 518h-6q-204 0 -301.5 -72.5t-97.5 -193.5z" />
    <glyph glyph-name="sterling" unicode="&#xa3;" 
d="M1542 496q12 -50 12 -107q0 -158 -100 -244t-295 -86q-71 0 -154.5 21t-136.5 41.5t-141 58.5l-8 4q-115 -125 -338 -125q-147 0 -228 65t-81 155q0 92 75 153.5t209 61.5q74 0 150 -13q-26 45 -80 105h-320v147h183q-45 56 -64.5 101.5t-19.5 95.5q0 51 20.5 99.5
t70.5 96t125 83t193.5 57.5t266.5 22q160 0 278.5 -27t190.5 -77.5t106.5 -118.5t34.5 -154q0 -38 -10 -88h-307q6 21 6 43q0 69 -71.5 110.5t-227.5 41.5q-283 0 -283 -121q0 -11 4.5 -24t15.5 -31t19.5 -30t28 -39t28.5 -40h498v-147h-412q33 -76 33 -160v-25
q229 -71 299 -71q60 0 89.5 22t29.5 78q0 18 -6 66h317zM352 186q115 0 160 72q-89 27 -147 27q-97 0 -97 -52q0 -19 22 -33t62 -14z" />
    <glyph glyph-name="currency" unicode="&#xa4;" 
d="M268 113l-141 106l254 209q-59 47 -92 113.5t-33 136.5q0 68 31 131.5t88 110.5l-248 204l141 109l269 -227q118 53 282 53q157 0 281 -51l268 225l139 -109l-245 -202q58 -47 90 -111.5t32 -132.5q0 -70 -34.5 -137.5t-94.5 -114.5l252 -207l-139 -106l-274 229
q-116 -49 -275 -49q-163 0 -276 49zM819 514q114 0 180 45.5t66 116.5q0 72 -65.5 117t-180.5 45q-114 0 -179 -45t-65 -117q0 -71 65.5 -116.5t178.5 -45.5z" />
    <glyph glyph-name="yen" unicode="&#xa5;" 
d="M1573 1268l-399 -498h352v-147h-471l-54 -66v-65h525v-148h-525v-264h-364v264h-524v148h524v65l-53 66h-471v147h352l-399 498h473l325 -439h2l332 439h375z" />
    <glyph glyph-name="brokenbar" unicode="&#xa6;" horiz-adv-x="552" 
d="M182 758v758h189v-758h-189zM182 -410v758h189v-758h-189z" />
    <glyph glyph-name="section" unicode="&#xa7;" 
d="M819 -258q-123 0 -219.5 18.5t-158 50t-101.5 76.5t-56 93t-16 104h324q0 -52 50 -82.5t177 -30.5q69 0 117.5 8.5t72.5 22.5t34 29t10 32q0 26 -18.5 42.5t-63.5 23.5q-63 11 -277 37t-288 43q-185 44 -185 205q0 85 56 138.5t153 65.5v5q-34 8 -57 18q-152 65 -152 227
q0 155 151.5 252t446.5 97q123 0 219.5 -19t158 -50.5t101.5 -76t56 -93t16 -104.5h-323q0 52 -50 82.5t-178 30.5q-233 0 -233 -92q0 -26 18.5 -42.5t63.5 -23.5q63 -11 277 -36.5t288 -42.5q184 -43 184 -205q0 -85 -56 -139t-153 -66v-6q42 -10 58 -17q151 -64 151 -227
q0 -155 -151 -251.5t-447 -96.5zM948 381q105 10 105 80q0 68 -109 82l-256 35q-102 -10 -102 -80q0 -68 108 -82z" />
    <glyph glyph-name="copyright" unicode="&#xa9;" horiz-adv-x="1798" 
d="M899 -258q-111 0 -217 29.5t-195.5 82t-165 128t-128 165t-82 195.5t-29.5 217t29.5 217t82 195.5t128 165t165 128t195.5 82t217 29.5t217 -29.5t195.5 -82t165 -128t128 -165t82 -195.5t29.5 -217t-29.5 -217t-82 -195.5t-128 -165t-165 -128t-195.5 -82t-217 -29.5z
M899 -152q145 0 276.5 56.5t226.5 151.5t151.5 226.5t56.5 276.5t-56.5 276.5t-151.5 226.5t-226.5 151.5t-276.5 56.5t-276.5 -56.5t-226.5 -151.5t-151.5 -226.5t-56.5 -276.5t56.5 -276.5t151.5 -226.5t226.5 -151.5t276.5 -56.5zM911 125q-208 0 -326 121t-118 323
q0 103 37 188.5t98 140.5t138 84.5t159 29.5q187 0 293 -89t106 -225h-155q-11 81 -74.5 127.5t-169.5 46.5q-131 0 -203.5 -84t-72.5 -219q0 -137 78 -221t210 -84q102 0 162 44t74 122h156q-8 -130 -114 -217.5t-278 -87.5z" />
    <glyph glyph-name="ordfeminine" unicode="&#xaa;" horiz-adv-x="1040" 
d="M70 803q0 172 256 172h333v14q0 55 -40.5 80t-133.5 25q-151 0 -151 -68v-10h-242q-2 10 -2 26q0 95 97.5 149t308.5 54q213 0 321.5 -74.5t108.5 -207.5v-336h-267q5 113 7 129h-2q-22 -67 -90.5 -104.5t-204.5 -37.5q-88 0 -150 17t-92.5 46.5t-43.5 60t-13 65.5z
M307 817q0 -27 35.5 -44t110.5 -17q94 0 149 31.5t57 70.5v6h-274q-78 0 -78 -47zM72 311v189h854v-189h-854z" />
    <glyph glyph-name="guillemotleft" unicode="&#xab;" 
d="M512 109l-365 464l365 465h309l-370 -465l370 -464h-309zM1096 109l-365 464l365 465h309l-371 -465l371 -464h-309z" />
    <glyph glyph-name="logicalnot" unicode="&#xac;" 
d="M1241 102v373h-1073v209h1302v-582h-229z" />
    <glyph glyph-name="registered" unicode="&#xae;" horiz-adv-x="1798" 
d="M899 -258q-111 0 -217 29.5t-195.5 82t-165 128t-128 165t-82 195.5t-29.5 217t29.5 217t82 195.5t128 165t165 128t195.5 82t217 29.5t217 -29.5t195.5 -82t165 -128t128 -165t82 -195.5t29.5 -217t-29.5 -217t-82 -195.5t-128 -165t-165 -128t-195.5 -82t-217 -29.5z
M899 -152q145 0 276.5 56.5t226.5 151.5t151.5 226.5t56.5 276.5t-56.5 276.5t-151.5 226.5t-226.5 151.5t-276.5 56.5t-276.5 -56.5t-226.5 -151.5t-151.5 -226.5t-56.5 -276.5t56.5 -276.5t151.5 -226.5t226.5 -151.5t276.5 -56.5zM553 145v846h375q160 0 240.5 -63.5
t80.5 -169.5q0 -140 -114 -191v-4q114 -42 114 -174v-244h-155v244q0 51 -29 77t-94 26h-262v-347h-156zM709 618h219q88 0 127 29t39 90q0 115 -179 115h-206v-234z" />
    <glyph glyph-name="degree" unicode="&#xb0;" horiz-adv-x="1118" 
d="M559 553q-229 0 -355 116t-126 296q0 176 126.5 293.5t354.5 117.5q222 0 351.5 -118.5t129.5 -292.5q0 -178 -129 -295t-352 -117zM559 762q105 0 168.5 58t63.5 145q0 86 -63.5 144t-168.5 58q-109 0 -170 -57.5t-61 -144.5q0 -88 61 -145.5t170 -57.5z" />
    <glyph glyph-name="plusminus" unicode="&#xb1;" 
d="M705 365v352h-537v209h537v352h229v-352h536v-209h-536v-352h-229zM168 61v209h1302v-209h-1302z" />
    <glyph glyph-name="uni00B5" unicode="&#xb5;" 
d="M86 -406v1418h365v-502q0 -124 68.5 -186t215.5 -62q156 0 256.5 89.5t100.5 244.5v416h364v-574q0 -93 28 -135.5t87 -42.5q23 0 47 4v-264q-50 -20 -166 -20q-121 0 -216 67.5t-124 204.5h-2q-45 -126 -143.5 -199t-245.5 -73q-197 0 -268 124h-2v-510h-365z" />
    <glyph glyph-name="paragraph" unicode="&#xb6;" 
d="M868 -197v566h-223q-255 0 -383.5 108t-128.5 287q0 201 158.5 312.5t435.5 111.5h829v-1385h-270v1127h-147v-1127h-271zM745 627h123v303h-114q-228 0 -228 -154q0 -149 219 -149z" />
    <glyph glyph-name="periodcentered" unicode="&#xb7;" horiz-adv-x="684" 
d="M160 467v324h364v-324h-364z" />
    <glyph glyph-name="ordmasculine" unicode="&#xba;" horiz-adv-x="1056" 
d="M528 614q-122 0 -213 25.5t-143.5 70.5t-78 99.5t-25.5 118.5t25.5 119t78.5 100.5t144 71.5t212 26t212.5 -26t144 -71.5t78.5 -100.5t26 -119t-25.5 -118.5t-78 -99.5t-144 -70.5t-213.5 -25.5zM528 784q99 0 146 40.5t47 103.5q0 65 -46.5 106t-146.5 41
q-101 0 -146.5 -40.5t-45.5 -106.5q0 -63 46 -103.5t146 -40.5zM72 311v189h911v-189h-911z" />
    <glyph glyph-name="guillemotright" unicode="&#xbb;" 
d="M231 109l371 464l-371 465h310l366 -465l-366 -464h-310zM815 109l371 464l-371 465h309l367 -465l-367 -464h-309z" />
    <glyph glyph-name="onequarter" unicode="&#xbc;" horiz-adv-x="2043" 
d="M526 -111l-143 78l846 1487l139 -76zM279 541v463h-230v155l141 4q86 3 118.5 40.5t39.5 144.5h219v-807h-288zM1546 0v137h-555v201l559 469h285v-473h150v-197h-150v-137h-289zM1251 334h295v237h-2l-293 -235v-2z" />
    <glyph glyph-name="onehalf" unicode="&#xbd;" horiz-adv-x="2091" 
d="M526 -111l-143 78l846 1487l139 -76zM279 541v463h-230v155l141 4q86 3 118.5 40.5t39.5 144.5h219v-807h-288zM1104 0q0 89 9.5 139t45 96.5t101 78.5t180.5 67q159 47 205.5 76t46.5 80q0 42 -37.5 68t-106.5 26q-91 0 -138.5 -34.5t-47.5 -100.5q0 -28 4 -52h-246
q-6 27 -6 74q0 131 111 216t334 85q92 0 165.5 -15.5t121 -41t79 -61.5t44.5 -74t13 -80q0 -98 -81.5 -160.5t-286.5 -120.5q-77 -21 -112.5 -34t-41.5 -19.5t-6 -17.5h557v-195h-907z" />
    <glyph glyph-name="threequarters" unicode="&#xbe;" horiz-adv-x="2439" 
d="M922 -111l-144 78l846 1487l139 -76zM535 528q-109 0 -193.5 16.5t-134.5 43t-82 63.5t-43.5 73t-11.5 77q0 33 8 65h248q-4 -16 -4 -28q0 -117 210 -117q216 0 216 98q0 58 -123 58h-158v135h129q68 0 97.5 16t29.5 53q0 38 -46 62t-138 24q-195 0 -195 -110
q0 -17 2 -31h-237q-11 37 -11 70q0 39 12.5 74.5t45 70.5t82.5 61t131.5 42t185.5 16q215 0 320.5 -62.5t105.5 -164.5q0 -116 -137 -150v-4q96 -14 144 -62.5t48 -117.5q0 -125 -119.5 -198t-381.5 -73zM1942 0v137h-556v201l560 469h284v-473h150v-197h-150v-137h-288z
M1647 334h295v237h-3l-292 -235v-2z" />
    <glyph glyph-name="questiondown" unicode="&#xbf;" horiz-adv-x="1204" 
d="M705 625v323h364v-323h-364zM588 -428q-134 0 -236.5 36.5t-165 102t-94 151.5t-31.5 191q0 216 120 350t311 134q206 0 272 -152h4v150h262v-332h-262q-41 112 -188 112q-99 0 -157 -61.5t-58 -192.5q0 -108 56.5 -173.5t168.5 -65.5q102 0 155.5 46t53.5 120
q0 21 -2 39h299q6 -30 6 -72q0 -175 -134.5 -279t-379.5 -104z" />
    <glyph glyph-name="Agrave" unicode="&#xc0;" horiz-adv-x="2015" 
d="M1206 1456h-305l-270 303h387zM1518 0l-140 274h-792l-140 -274h-405l733 1348h467l733 -1348h-456zM700 504h562l-281 549h-2z" />
    <glyph glyph-name="Aacute" unicode="&#xc1;" horiz-adv-x="2015" 
d="M1409 1759l-270 -303h-305l188 303h387zM1518 0l-140 274h-792l-140 -274h-405l733 1348h467l733 -1348h-456zM700 504h562l-281 549h-2z" />
    <glyph glyph-name="Acircumflex" unicode="&#xc2;" horiz-adv-x="2015" 
d="M1010 1587h-4l-394 -170v238l394 170h4l393 -170v-238zM1518 0l-140 274h-792l-140 -274h-405l733 1348h467l733 -1348h-456zM700 504h562l-281 549h-2z" />
    <glyph glyph-name="Atilde" unicode="&#xc3;" horiz-adv-x="2015" 
d="M874 1581q-66 0 -77 -104h-248q8 88 36 152t68.5 97.5t82.5 48.5t87 15q86 0 193 -55l39 -21q54 -28 86 -28q68 0 76 104h249q-7 -72 -27 -127.5t-47.5 -90t-63 -56.5t-70 -30.5t-72.5 -8.5q-80 0 -187 55l-38 20q-54 29 -87 29zM1518 0l-140 274h-792l-140 -274h-405
l733 1348h467l733 -1348h-456zM700 504h562l-281 549h-2z" />
    <glyph glyph-name="Adieresis" unicode="&#xc4;" horiz-adv-x="2015" 
d="M920 1739v-262h-345v262h345zM1440 1739v-262h-344v262h344zM1518 0l-140 274h-792l-140 -274h-405l733 1348h467l733 -1348h-456zM700 504h562l-281 549h-2z" />
    <glyph glyph-name="Aring" unicode="&#xc5;" horiz-adv-x="2015" 
d="M1518 0l-140 274h-792l-140 -274h-405l684 1257q-100 71 -100 187q0 112 104 187t279 75q179 0 281 -74.5t102 -187.5q0 -115 -101 -187l684 -1257h-456zM1008 1538q-71 0 -112.5 -25t-41.5 -69t40.5 -69t113.5 -25t113 25t40 69t-40.5 69t-112.5 25zM700 504h562
l-281 549h-2z" />
    <glyph glyph-name="AE" unicode="&#xc6;" horiz-adv-x="2408" 
d="M41 0l805 1348h1470v-291h-839v-264h634v-230h-634v-272h860v-291h-1254v254h-475l-145 -254h-422zM741 483h342v580h-8z" />
    <glyph glyph-name="Ccedilla" unicode="&#xc7;" horiz-adv-x="1781" 
d="M1710 526q0 -78 -23.5 -151t-77.5 -142.5t-133.5 -123t-200 -89t-269.5 -43.5l-35 -77l4 -2q49 34 141 34q105 0 163 -44t58 -121q0 -94 -97.5 -153.5t-285.5 -59.5q-183 0 -283 55.5t-106 142.5h250q6 -27 35.5 -39t103.5 -12q59 0 96 17.5t37 48.5q0 25 -28.5 36
t-104.5 11h-229l72 166q-158 13 -283.5 58t-207 110.5t-135.5 152.5t-76.5 178.5t-22.5 192.5q0 151 54 278t157.5 221.5t266 147.5t368.5 53q123 0 230 -18.5t186 -50.5t142.5 -76t105.5 -93t70 -103.5t40 -106t12 -101.5q0 -20 -2 -32h-350v8q0 49 -25 97t-73 90.5
t-131 68.5t-187 26q-214 0 -332.5 -114.5t-118.5 -294.5q0 -84 25.5 -155t78 -128.5t142 -90t207.5 -32.5q200 0 310 79t110 198v12h350q2 -10 2 -29z" />
    <glyph glyph-name="Egrave" unicode="&#xc8;" horiz-adv-x="1482" 
d="M676 1456l-270 303h387l188 -303h-305zM117 0v1348h1274v-291h-881v-264h676v-230h-676v-272h901v-291h-1294z" />
    <glyph glyph-name="Eacute" unicode="&#xc9;" horiz-adv-x="1482" 
d="M608 1456l189 303h387l-271 -303h-305zM117 0v1348h1274v-291h-881v-264h676v-230h-676v-272h901v-291h-1294z" />
    <glyph glyph-name="Ecircumflex" unicode="&#xca;" horiz-adv-x="1482" 
d="M387 1417v238l393 170h4l394 -170v-238l-394 170h-4zM117 0v1348h1274v-291h-881v-264h676v-230h-676v-272h901v-291h-1294z" />
    <glyph glyph-name="Edieresis" unicode="&#xcb;" horiz-adv-x="1482" 
d="M350 1477v262h344v-262h-344zM870 1477v262h344v-262h-344zM117 0v1348h1274v-291h-881v-264h676v-230h-676v-272h901v-291h-1294z" />
    <glyph glyph-name="Igrave" unicode="&#xcc;" horiz-adv-x="647" 
d="M219 1456l-270 303h387l188 -303h-305zM127 0v1348h393v-1348h-393z" />
    <glyph glyph-name="Iacute" unicode="&#xcd;" horiz-adv-x="647" 
d="M152 1456l188 303h387l-270 -303h-305zM127 0v1348h393v-1348h-393z" />
    <glyph glyph-name="Icircumflex" unicode="&#xce;" horiz-adv-x="647" 
d="M-70 1417v238l394 170h4l393 -170v-238l-393 170h-4zM127 0v1348h393v-1348h-393z" />
    <glyph glyph-name="Idieresis" unicode="&#xcf;" horiz-adv-x="647" 
d="M-106 1477v262h344v-262h-344zM414 1477v262h344v-262h-344zM127 0v1348h393v-1348h-393z" />
    <glyph glyph-name="Eth" unicode="&#xd0;" horiz-adv-x="1720" 
d="M803 1348q155 0 282 -23t219 -67t159 -103.5t107.5 -136.5t59.5 -161.5t19 -182.5q0 -165 -43.5 -288t-136.5 -210.5t-244.5 -131.5t-362.5 -44h-745v582h-137v180h137v586h686zM850 291q213 0 309 96t96 287q0 83 -23.5 150.5t-73 120.5t-135 82.5t-200.5 29.5h-313
v-295h383v-180h-383v-291h340z" />
    <glyph glyph-name="Ntilde" unicode="&#xd1;" horiz-adv-x="1884" 
d="M485 1477q8 88 36.5 152t69 97.5t82.5 48.5t87 15q85 0 192 -55l39 -21q54 -28 86 -28q68 0 76 104h250q-8 -89 -36.5 -153t-69.5 -97.5t-84 -48t-91 -14.5q-79 0 -186 55l-39 20q-54 29 -86 29q-67 0 -78 -104h-248zM117 0v1348h549l718 -811h2v811h381v-1348h-389
l-878 991h-2v-991h-381z" />
    <glyph glyph-name="Ograve" unicode="&#xd2;" horiz-adv-x="1912" 
d="M850 1456l-270 303h387l188 -303h-305zM956 -25q-179 0 -325.5 34.5t-249.5 97.5t-173 151t-103 194t-33 228q0 114 33 215.5t103.5 189t173 151.5t249.5 100t325 36t325 -36t249.5 -100t173.5 -151.5t104 -189t33 -215.5q0 -117 -31 -220.5t-100 -193t-170.5 -154
t-250.5 -101t-333 -36.5zM956 266q236 0 353.5 114t117.5 298q0 174 -121.5 288.5t-349.5 114.5t-349.5 -114.5t-121.5 -288.5q0 -189 119 -300.5t352 -111.5z" />
    <glyph glyph-name="Oacute" unicode="&#xd3;" horiz-adv-x="1912" 
d="M782 1456l189 303h387l-271 -303h-305zM956 -25q-179 0 -325.5 34.5t-249.5 97.5t-173 151t-103 194t-33 228q0 114 33 215.5t103.5 189t173 151.5t249.5 100t325 36t325 -36t249.5 -100t173.5 -151.5t104 -189t33 -215.5q0 -117 -31 -220.5t-100 -193t-170.5 -154
t-250.5 -101t-333 -36.5zM956 266q236 0 353.5 114t117.5 298q0 174 -121.5 288.5t-349.5 114.5t-349.5 -114.5t-121.5 -288.5q0 -189 119 -300.5t352 -111.5z" />
    <glyph glyph-name="Ocircumflex" unicode="&#xd4;" horiz-adv-x="1912" 
d="M561 1417v238l393 170h4l394 -170v-238l-394 170h-4zM956 -25q-179 0 -325.5 34.5t-249.5 97.5t-173 151t-103 194t-33 228q0 114 33 215.5t103.5 189t173 151.5t249.5 100t325 36t325 -36t249.5 -100t173.5 -151.5t104 -189t33 -215.5q0 -117 -31 -220.5t-100 -193
t-170.5 -154t-250.5 -101t-333 -36.5zM956 266q236 0 353.5 114t117.5 298q0 174 -121.5 288.5t-349.5 114.5t-349.5 -114.5t-121.5 -288.5q0 -189 119 -300.5t352 -111.5z" />
    <glyph glyph-name="Otilde" unicode="&#xd5;" horiz-adv-x="1912" 
d="M498 1477q8 88 36 152t68.5 97.5t82.5 48.5t87 15q86 0 193 -55l39 -21q54 -28 86 -28q67 0 75 104h250q-7 -72 -27 -127.5t-47.5 -90t-63 -56.5t-70 -30.5t-72.5 -8.5q-80 0 -187 55l-39 20q-54 29 -86 29q-67 0 -78 -104h-247zM956 -25q-179 0 -325.5 34.5t-249.5 97.5
t-173 151t-103 194t-33 228q0 114 33 215.5t103.5 189t173 151.5t249.5 100t325 36t325 -36t249.5 -100t173.5 -151.5t104 -189t33 -215.5q0 -117 -31 -220.5t-100 -193t-170.5 -154t-250.5 -101t-333 -36.5zM956 266q236 0 353.5 114t117.5 298q0 174 -121.5 288.5
t-349.5 114.5t-349.5 -114.5t-121.5 -288.5q0 -189 119 -300.5t352 -111.5z" />
    <glyph glyph-name="Odieresis" unicode="&#xd6;" horiz-adv-x="1912" 
d="M524 1477v262h344v-262h-344zM1044 1477v262h345v-262h-345zM956 -25q-179 0 -325.5 34.5t-249.5 97.5t-173 151t-103 194t-33 228q0 114 33 215.5t103.5 189t173 151.5t249.5 100t325 36t325 -36t249.5 -100t173.5 -151.5t104 -189t33 -215.5q0 -117 -31 -220.5
t-100 -193t-170.5 -154t-250.5 -101t-333 -36.5zM956 266q236 0 353.5 114t117.5 298q0 174 -121.5 288.5t-349.5 114.5t-349.5 -114.5t-121.5 -288.5q0 -189 119 -300.5t352 -111.5z" />
    <glyph glyph-name="multiply" unicode="&#xd7;" 
d="M270 141l-102 183l440 254l-440 256l102 182l547 -318l549 318l102 -182l-442 -256l442 -254l-102 -183l-549 316z" />
    <glyph glyph-name="Oslash" unicode="&#xd8;" horiz-adv-x="1912" 
d="M1671 1122q170 -179 170 -442q0 -117 -31 -220.5t-100 -193t-170.5 -154t-250.5 -101t-333 -36.5q-356 0 -573 131l-135 -106l-113 139l105 82q-168 177 -168 459q0 114 33 215.5t103.5 189t173 151.5t249.5 100t325 36q345 0 572 -135l139 111l113 -140zM485 678
q0 -125 54 -219l704 555q-115 67 -287 67q-228 0 -349.5 -114.5t-121.5 -288.5zM956 266q236 0 353.5 114t117.5 298q0 118 -55 209l-704 -555q114 -66 288 -66z" />
    <glyph glyph-name="Ugrave" unicode="&#xd9;" horiz-adv-x="1794" 
d="M811 1456l-270 303h387l188 -303h-305zM899 -25q-378 0 -587.5 157.5t-209.5 469.5v746h394v-703q0 -187 108.5 -272.5t313.5 -85.5t313 85.5t108 272.5v703h353v-746q0 -313 -207 -470t-586 -157z" />
    <glyph glyph-name="Uacute" unicode="&#xda;" horiz-adv-x="1794" 
d="M743 1456l189 303h387l-270 -303h-306zM899 -25q-378 0 -587.5 157.5t-209.5 469.5v746h394v-703q0 -187 108.5 -272.5t313.5 -85.5t313 85.5t108 272.5v703h353v-746q0 -313 -207 -470t-586 -157z" />
    <glyph glyph-name="Ucircumflex" unicode="&#xdb;" horiz-adv-x="1794" 
d="M522 1417v238l393 170h5l393 -170v-238l-393 170h-5zM899 -25q-378 0 -587.5 157.5t-209.5 469.5v746h394v-703q0 -187 108.5 -272.5t313.5 -85.5t313 85.5t108 272.5v703h353v-746q0 -313 -207 -470t-586 -157z" />
    <glyph glyph-name="Udieresis" unicode="&#xdc;" horiz-adv-x="1794" 
d="M485 1477v262h344v-262h-344zM1006 1477v262h344v-262h-344zM899 -25q-378 0 -587.5 157.5t-209.5 469.5v746h394v-703q0 -187 108.5 -272.5t313.5 -85.5t313 85.5t108 272.5v703h353v-746q0 -313 -207 -470t-586 -157z" />
    <glyph glyph-name="Yacute" unicode="&#xdd;" horiz-adv-x="1939" 
d="M797 1456l188 303h387l-270 -303h-305zM772 0v547l-731 801h524l436 -490h7l432 490h458l-733 -801v-547h-393z" />
    <glyph glyph-name="Thorn" unicode="&#xde;" horiz-adv-x="1622" 
d="M117 0v1348h393v-207h438q602 0 602 -461q0 -220 -148 -334.5t-444 -114.5h-448v-231h-393zM510 481h379q309 0 309 185q0 184 -307 184h-381v-369z" />
    <glyph glyph-name="germandbls" unicode="&#xdf;" horiz-adv-x="1816" 
d="M1090 -20q-210 0 -396 26v260q173 -24 312 -24q137 0 221.5 16t118.5 43.5t34 69.5q0 50 -63 67q-23 6 -59 9.5t-100 7t-107 6.5q-215 19 -299 74q-97 63 -97 206q0 110 64 174q57 57 199 95q91 24 120 45t29 57q0 47 -61.5 82t-196.5 35q-178 0 -263 -82t-85 -217v-930
h-365v903q0 287 185.5 437.5t527.5 150.5q135 0 242 -22.5t173 -59t109.5 -86t60.5 -99.5t17 -104q0 -95 -40.5 -154t-135.5 -92q-59 -20 -133.5 -38t-81.5 -21q-41 -13 -41 -47q0 -18 15 -32t40 -17q94 -12 250 -23q239 -16 330 -75q60 -39 95.5 -103.5t35.5 -144.5
q0 -393 -655 -393z" />
    <glyph glyph-name="agrave" unicode="&#xe0;" horiz-adv-x="1484" 
d="M637 1120l-270 303h387l188 -303h-305zM565 -20q-108 0 -193 19.5t-138.5 51.5t-88.5 75t-49 86t-14 89q0 134 93.5 214.5t295.5 80.5h567v14q0 104 -70.5 148.5t-242.5 44.5q-266 0 -266 -119q0 -8 2 -18h-344q-2 18 -2 36q0 154 150.5 242t473.5 88q327 0 495.5 -117.5
t168.5 -339.5v-575h-365q11 192 11 225h-2q-33 -118 -144.5 -181.5t-337.5 -63.5zM668 209q171 0 270.5 59.5t99.5 130.5v9h-456q-95 0 -135.5 -19t-40.5 -67q0 -51 62.5 -82t199.5 -31z" />
    <glyph glyph-name="aacute" unicode="&#xe1;" horiz-adv-x="1484" 
d="M569 1120l189 303h387l-271 -303h-305zM565 -20q-108 0 -193 19.5t-138.5 51.5t-88.5 75t-49 86t-14 89q0 134 93.5 214.5t295.5 80.5h567v14q0 104 -70.5 148.5t-242.5 44.5q-266 0 -266 -119q0 -8 2 -18h-344q-2 18 -2 36q0 154 150.5 242t473.5 88q327 0 495.5 -117.5
t168.5 -339.5v-575h-365q11 192 11 225h-2q-33 -118 -144.5 -181.5t-337.5 -63.5zM668 209q171 0 270.5 59.5t99.5 130.5v9h-456q-95 0 -135.5 -19t-40.5 -67q0 -51 62.5 -82t199.5 -31z" />
    <glyph glyph-name="acircumflex" unicode="&#xe2;" horiz-adv-x="1484" 
d="M348 1081v238l393 170h4l394 -170v-238l-394 170h-4zM565 -20q-108 0 -193 19.5t-138.5 51.5t-88.5 75t-49 86t-14 89q0 134 93.5 214.5t295.5 80.5h567v14q0 104 -70.5 148.5t-242.5 44.5q-266 0 -266 -119q0 -8 2 -18h-344q-2 18 -2 36q0 154 150.5 242t473.5 88
q327 0 495.5 -117.5t168.5 -339.5v-575h-365q11 192 11 225h-2q-33 -118 -144.5 -181.5t-337.5 -63.5zM668 209q171 0 270.5 59.5t99.5 130.5v9h-456q-95 0 -135.5 -19t-40.5 -67q0 -51 62.5 -82t199.5 -31z" />
    <glyph glyph-name="atilde" unicode="&#xe3;" horiz-adv-x="1484" 
d="M285 1141q8 88 36 152t68.5 97.5t82.5 48.5t87 15q86 0 193 -55l39 -21q54 -28 86 -28q67 0 75 104h250q-7 -72 -27 -127.5t-47.5 -90t-63 -56.5t-70 -30.5t-72.5 -8.5q-80 0 -187 55l-39 21q-52 28 -86 28q-67 0 -78 -104h-247zM565 -20q-108 0 -193 19.5t-138.5 51.5
t-88.5 75t-49 86t-14 89q0 134 93.5 214.5t295.5 80.5h567v14q0 104 -70.5 148.5t-242.5 44.5q-266 0 -266 -119q0 -8 2 -18h-344q-2 18 -2 36q0 154 150.5 242t473.5 88q327 0 495.5 -117.5t168.5 -339.5v-575h-365q11 192 11 225h-2q-33 -118 -144.5 -181.5t-337.5 -63.5z
M668 209q171 0 270.5 59.5t99.5 130.5v9h-456q-95 0 -135.5 -19t-40.5 -67q0 -51 62.5 -82t199.5 -31z" />
    <glyph glyph-name="adieresis" unicode="&#xe4;" horiz-adv-x="1484" 
d="M311 1141v262h344v-262h-344zM831 1141v262h345v-262h-345zM565 -20q-108 0 -193 19.5t-138.5 51.5t-88.5 75t-49 86t-14 89q0 134 93.5 214.5t295.5 80.5h567v14q0 104 -70.5 148.5t-242.5 44.5q-266 0 -266 -119q0 -8 2 -18h-344q-2 18 -2 36q0 154 150.5 242t473.5 88
q327 0 495.5 -117.5t168.5 -339.5v-575h-365q11 192 11 225h-2q-33 -118 -144.5 -181.5t-337.5 -63.5zM668 209q171 0 270.5 59.5t99.5 130.5v9h-456q-95 0 -135.5 -19t-40.5 -67q0 -51 62.5 -82t199.5 -31z" />
    <glyph glyph-name="aring" unicode="&#xe5;" horiz-adv-x="1484" 
d="M743 1083q-181 0 -282 74.5t-101 188.5q0 112 104 187t279 75q179 0 281 -74.5t102 -187.5q0 -114 -101 -188.5t-282 -74.5zM743 1251q73 0 113.5 25t40.5 70q0 44 -41 69t-113 25q-71 0 -112 -25t-41 -69q0 -45 40 -70t113 -25zM565 -20q-108 0 -193 19.5t-138.5 51.5
t-88.5 75t-49 86t-14 89q0 134 93.5 214.5t295.5 80.5h567v14q0 104 -70.5 148.5t-242.5 44.5q-266 0 -266 -119q0 -8 2 -18h-344q-2 18 -2 36q0 154 150.5 242t473.5 88q327 0 495.5 -117.5t168.5 -339.5v-575h-365q11 192 11 225h-2q-33 -118 -144.5 -181.5t-337.5 -63.5z
M668 209q171 0 270.5 59.5t99.5 130.5v9h-456q-95 0 -135.5 -19t-40.5 -67q0 -51 62.5 -82t199.5 -31z" />
    <glyph glyph-name="ae" unicode="&#xe6;" horiz-adv-x="2449" 
d="M2378 514v-84h-973q17 -116 99.5 -168.5t244.5 -52.5q156 0 224.5 33t80.5 92h324q-3 -60 -26 -111.5t-71 -97t-119 -77t-176.5 -50t-236.5 -18.5q-436 0 -580 225h-4q-109 -225 -559 -225q-120 0 -213.5 20t-151 51t-94.5 74.5t-51 86t-14 89.5q0 134 93.5 214.5
t295.5 80.5h567v14q0 103 -72 148t-241 45q-266 0 -266 -119q0 -8 2 -18h-344q-2 16 -2 36q0 154 150.5 242t473.5 88q346 0 500 -168h6q176 168 484 168q329 0 489 -133t160 -385zM2054 618v9q0 78 -70.5 127t-234.5 49q-148 0 -230 -45t-108 -140h643zM1038 399v9h-456
q-95 0 -135.5 -19t-40.5 -67q0 -51 62.5 -82t199.5 -31q171 0 270.5 59.5t99.5 130.5z" />
    <glyph glyph-name="ccedilla" unicode="&#xe7;" horiz-adv-x="1466" 
d="M1395 420q0 -84 -30.5 -155.5t-95.5 -133t-179 -101t-267 -48.5l-35 -82l5 -2q49 34 141 34q105 0 163 -44t58 -121q0 -94 -97.5 -153.5t-285.5 -59.5q-183 0 -283 55.5t-106 142.5h250q6 -27 35.5 -39t103.5 -12q59 0 96 17.5t37 48.5q0 25 -28.5 36t-104.5 11h-229
l73 172q-141 15 -249 65t-170.5 123t-93.5 156t-31 174q0 110 43.5 204.5t126 167.5t214.5 114.5t298 41.5q136 0 245 -23.5t181.5 -64.5t120.5 -98.5t69 -121.5t21 -138h-324q-2 77 -76 130.5t-227 53.5q-162 0 -245 -72t-83 -192q0 -119 78 -191.5t242 -72.5
q160 0 236 50.5t79 127.5h324z" />
    <glyph glyph-name="egrave" unicode="&#xe8;" horiz-adv-x="1484" 
d="M963 1120h-306l-270 303h387zM1413 514v-84h-973q15 -105 93.5 -163t250.5 -58q156 0 225 33t81 92h323q-3 -60 -26 -111.5t-71 -97t-119 -77t-176.5 -50t-236.5 -18.5q-115 0 -212 15.5t-169.5 42t-129 65t-94 83t-62 96.5t-35 104.5t-10.5 109.5q0 250 181.5 393
t510.5 143t489 -133t160 -385zM1090 618v9q0 78 -71 127t-235 49q-154 0 -232.5 -46t-102.5 -139h641z" />
    <glyph glyph-name="eacute" unicode="&#xe9;" horiz-adv-x="1484" 
d="M1165 1423l-270 -303h-305l188 303h387zM1413 514v-84h-973q15 -105 93.5 -163t250.5 -58q156 0 225 33t81 92h323q-3 -60 -26 -111.5t-71 -97t-119 -77t-176.5 -50t-236.5 -18.5q-115 0 -212 15.5t-169.5 42t-129 65t-94 83t-62 96.5t-35 104.5t-10.5 109.5
q0 250 181.5 393t510.5 143t489 -133t160 -385zM1090 618v9q0 78 -71 127t-235 49q-154 0 -232.5 -46t-102.5 -139h641z" />
    <glyph glyph-name="ecircumflex" unicode="&#xea;" horiz-adv-x="1484" 
d="M766 1251h-4l-393 -170v238l393 170h4l393 -170v-238zM1413 514v-84h-973q15 -105 93.5 -163t250.5 -58q156 0 225 33t81 92h323q-3 -60 -26 -111.5t-71 -97t-119 -77t-176.5 -50t-236.5 -18.5q-115 0 -212 15.5t-169.5 42t-129 65t-94 83t-62 96.5t-35 104.5
t-10.5 109.5q0 250 181.5 393t510.5 143t489 -133t160 -385zM1090 618v9q0 78 -71 127t-235 49q-154 0 -232.5 -46t-102.5 -139h641z" />
    <glyph glyph-name="edieresis" unicode="&#xeb;" horiz-adv-x="1484" 
d="M676 1403v-262h-344v262h344zM1196 1403v-262h-344v262h344zM1413 514v-84h-973q15 -105 93.5 -163t250.5 -58q156 0 225 33t81 92h323q-3 -60 -26 -111.5t-71 -97t-119 -77t-176.5 -50t-236.5 -18.5q-115 0 -212 15.5t-169.5 42t-129 65t-94 83t-62 96.5t-35 104.5
t-10.5 109.5q0 250 181.5 393t510.5 143t489 -133t160 -385zM1090 618v9q0 78 -71 127t-235 49q-154 0 -232.5 -46t-102.5 -139h641z" />
    <glyph glyph-name="igrave" unicode="&#xec;" horiz-adv-x="569" 
d="M178 1120l-270 303h387l188 -303h-305zM102 0v1012h365v-1012h-365z" />
    <glyph glyph-name="iacute" unicode="&#xed;" horiz-adv-x="569" 
d="M111 1120l188 303h387l-270 -303h-305zM102 0v1012h365v-1012h-365z" />
    <glyph glyph-name="icircumflex" unicode="&#xee;" horiz-adv-x="569" 
d="M-111 1081v238l394 170h4l393 -170v-238l-393 170h-4zM102 0v1012h365v-1012h-365z" />
    <glyph glyph-name="idieresis" unicode="&#xef;" horiz-adv-x="569" 
d="M-147 1141v262h344v-262h-344zM373 1141v262h344v-262h-344zM102 0v1012h365v-1012h-365z" />
    <glyph glyph-name="eth" unicode="&#xf0;" horiz-adv-x="1564" 
d="M1114 1260q100 -64 175 -145t118.5 -168.5t64.5 -175t21 -177.5q0 -96 -25 -183.5t-81 -166.5t-137.5 -137.5t-201.5 -92.5t-266 -34t-266.5 30t-201.5 80t-136.5 118t-80.5 142t-25 154q0 162 85 283t227.5 183t320.5 62q180 0 317 -102q-94 140 -274 229l-519 -139
l-36 125l356 96q-119 39 -270 70l174 143q279 -23 487 -106l397 106l37 -125zM1128 537q0 37 -2 53q-27 79 -126.5 129.5t-233.5 50.5q-154 0 -242 -71t-88 -193q0 -111 86.5 -187.5t259.5 -76.5q88 0 156.5 24t108.5 65.5t60.5 93.5t20.5 112z" />
    <glyph glyph-name="ntilde" unicode="&#xf1;" horiz-adv-x="1595" 
d="M344 1141q8 88 36 152t68.5 97.5t82.5 48.5t87 15q86 0 193 -55l39 -21q54 -28 86 -28q68 0 76 104h250q-8 -89 -36.5 -153t-69.5 -97.5t-84 -48t-91 -14.5q-79 0 -186 55l-39 21q-52 28 -86 28q-67 0 -78 -104h-248zM92 0v1012h365l-4 -295h4q103 315 536 315
q520 0 520 -430v-602h-364v504q0 246 -322 246q-77 0 -142.5 -17t-117 -51t-81 -90.5t-29.5 -130.5v-461h-365z" />
    <glyph glyph-name="ograve" unicode="&#xf2;" horiz-adv-x="1564" 
d="M676 1120l-270 303h387l188 -303h-305zM782 -20q-152 0 -273.5 28.5t-202 77t-134 116t-77 142.5t-23.5 160q0 84 24 159.5t78.5 143.5t135 117.5t201.5 78.5t271 29t271 -29t202 -78.5t135.5 -117.5t78.5 -143.5t24 -159.5q0 -85 -23.5 -160t-78 -142.5t-135 -116
t-202 -77t-272.5 -28.5zM782 242q179 0 262.5 73t83.5 189q0 118 -83.5 192t-262.5 74q-180 0 -263 -74t-83 -192q0 -115 83 -188.5t263 -73.5z" />
    <glyph glyph-name="oacute" unicode="&#xf3;" horiz-adv-x="1564" 
d="M608 1120l189 303h387l-271 -303h-305zM782 -20q-152 0 -273.5 28.5t-202 77t-134 116t-77 142.5t-23.5 160q0 84 24 159.5t78.5 143.5t135 117.5t201.5 78.5t271 29t271 -29t202 -78.5t135.5 -117.5t78.5 -143.5t24 -159.5q0 -85 -23.5 -160t-78 -142.5t-135 -116
t-202 -77t-272.5 -28.5zM782 242q179 0 262.5 73t83.5 189q0 118 -83.5 192t-262.5 74q-180 0 -263 -74t-83 -192q0 -115 83 -188.5t263 -73.5z" />
    <glyph glyph-name="ocircumflex" unicode="&#xf4;" horiz-adv-x="1564" 
d="M387 1081v238l393 170h4l394 -170v-238l-394 170h-4zM782 -20q-152 0 -273.5 28.5t-202 77t-134 116t-77 142.5t-23.5 160q0 84 24 159.5t78.5 143.5t135 117.5t201.5 78.5t271 29t271 -29t202 -78.5t135.5 -117.5t78.5 -143.5t24 -159.5q0 -85 -23.5 -160t-78 -142.5
t-135 -116t-202 -77t-272.5 -28.5zM782 242q179 0 262.5 73t83.5 189q0 118 -83.5 192t-262.5 74q-180 0 -263 -74t-83 -192q0 -115 83 -188.5t263 -73.5z" />
    <glyph glyph-name="otilde" unicode="&#xf5;" horiz-adv-x="1564" 
d="M324 1141q8 88 36 152t68.5 97.5t82.5 48.5t87 15q86 0 193 -55l38 -21q54 -28 86 -28q68 0 76 104h250q-7 -72 -27 -127.5t-47.5 -90t-63 -56.5t-70 -30.5t-72.5 -8.5q-80 0 -187 55l-39 21q-52 28 -86 28q-67 0 -78 -104h-247zM782 -20q-152 0 -273.5 28.5t-202 77
t-134 116t-77 142.5t-23.5 160q0 84 24 159.5t78.5 143.5t135 117.5t201.5 78.5t271 29t271 -29t202 -78.5t135.5 -117.5t78.5 -143.5t24 -159.5q0 -85 -23.5 -160t-78 -142.5t-135 -116t-202 -77t-272.5 -28.5zM782 242q179 0 262.5 73t83.5 189q0 118 -83.5 192t-262.5 74
q-180 0 -263 -74t-83 -192q0 -115 83 -188.5t263 -73.5z" />
    <glyph glyph-name="odieresis" unicode="&#xf6;" horiz-adv-x="1564" 
d="M350 1141v262h344v-262h-344zM870 1141v262h344v-262h-344zM782 -20q-152 0 -273.5 28.5t-202 77t-134 116t-77 142.5t-23.5 160q0 84 24 159.5t78.5 143.5t135 117.5t201.5 78.5t271 29t271 -29t202 -78.5t135.5 -117.5t78.5 -143.5t24 -159.5q0 -85 -23.5 -160
t-78 -142.5t-135 -116t-202 -77t-272.5 -28.5zM782 242q179 0 262.5 73t83.5 189q0 118 -83.5 192t-262.5 74q-180 0 -263 -74t-83 -192q0 -115 83 -188.5t263 -73.5z" />
    <glyph glyph-name="divide" unicode="&#xf7;" 
d="M637 836v323h364v-323h-364zM168 475v209h1302v-209h-1302zM637 0v324h364v-324h-364z" />
    <glyph glyph-name="oslash" unicode="&#xf8;" horiz-adv-x="1564" 
d="M1346 856q147 -138 147 -352q0 -85 -23.5 -160t-78 -142.5t-135 -116t-202 -77t-272.5 -28.5q-259 0 -432 81l-112 -90l-115 113l90 72q-141 135 -141 348q0 84 24 159.5t78.5 143.5t135 117.5t201.5 78.5t271 29q251 0 426 -82l113 90l121 -108zM418 506q0 -92 43 -154
l510 408q-79 31 -189 31q-98 0 -170.5 -23t-113.5 -63.5t-60.5 -90t-19.5 -108.5zM782 221q188 0 276.5 80t88.5 205q0 91 -45 156l-512 -410q88 -31 192 -31z" />
    <glyph glyph-name="ugrave" unicode="&#xf9;" horiz-adv-x="1595" 
d="M692 1120l-270 303h387l188 -303h-305zM598 -20q-133 0 -234.5 36.5t-161.5 99.5t-90 142t-30 170v584h364v-502q0 -126 70.5 -187t235.5 -61q163 0 275 90.5t112 243.5v416h364v-1012h-364q4 122 4 289h-4q-53 -156 -179 -232.5t-362 -76.5z" />
    <glyph glyph-name="uacute" unicode="&#xfa;" horiz-adv-x="1595" 
d="M625 1120l188 303h387l-270 -303h-305zM598 -20q-133 0 -234.5 36.5t-161.5 99.5t-90 142t-30 170v584h364v-502q0 -126 70.5 -187t235.5 -61q163 0 275 90.5t112 243.5v416h364v-1012h-364q4 122 4 289h-4q-53 -156 -179 -232.5t-362 -76.5z" />
    <glyph glyph-name="ucircumflex" unicode="&#xfb;" horiz-adv-x="1595" 
d="M403 1081v238l394 170h4l393 -170v-238l-393 170h-4zM598 -20q-133 0 -234.5 36.5t-161.5 99.5t-90 142t-30 170v584h364v-502q0 -126 70.5 -187t235.5 -61q163 0 275 90.5t112 243.5v416h364v-1012h-364q4 122 4 289h-4q-53 -156 -179 -232.5t-362 -76.5z" />
    <glyph glyph-name="udieresis" unicode="&#xfc;" horiz-adv-x="1595" 
d="M367 1141v262h344v-262h-344zM887 1141v262h344v-262h-344zM598 -20q-133 0 -234.5 36.5t-161.5 99.5t-90 142t-30 170v584h364v-502q0 -126 70.5 -187t235.5 -61q163 0 275 90.5t112 243.5v416h364v-1012h-364q4 122 4 289h-4q-53 -156 -179 -232.5t-362 -76.5z" />
    <glyph glyph-name="yacute" unicode="&#xfd;" horiz-adv-x="1568" 
d="M610 1120l189 303h387l-271 -303h-305zM475 -446q-115 0 -237 30v252q77 -20 163 -20q100 0 159 37t112 147h-72l-559 1012h418l372 -684h5l335 684h357l-504 -1039q-115 -236 -233.5 -327.5t-315.5 -91.5z" />
    <glyph glyph-name="thorn" unicode="&#xfe;" horiz-adv-x="1609" 
d="M96 -406v1840h365v-463q0 -88 -4 -170h4q17 47 50.5 86t87 73t136 53t185.5 19q304 0 461 -133.5t157 -372.5q0 -271 -162 -408.5t-456 -137.5q-352 0 -467 210h-2q10 -138 10 -202v-394h-365zM838 242q175 0 256.5 66.5t81.5 207.5q0 120 -84 187t-256 67
q-176 0 -275.5 -77t-99.5 -204v-6q0 -104 97 -172.5t280 -68.5z" />
    <glyph glyph-name="ydieresis" unicode="&#xff;" horiz-adv-x="1568" 
d="M352 1141v262h344v-262h-344zM872 1141v262h345v-262h-345zM475 -446q-115 0 -237 30v252q77 -20 163 -20q100 0 159 37t112 147h-72l-559 1012h418l372 -684h5l335 684h357l-504 -1039q-115 -236 -233.5 -327.5t-315.5 -91.5z" />
    <glyph glyph-name="Amacron" unicode="&#x100;" horiz-adv-x="2015" 
d="M1384 1739v-217h-753v217h753zM1518 0l-140 274h-792l-140 -274h-405l733 1348h467l733 -1348h-456zM700 504h562l-281 549h-2z" />
    <glyph glyph-name="amacron" unicode="&#x101;" horiz-adv-x="1484" 
d="M367 1186v217h753v-217h-753zM565 -20q-108 0 -193 19.5t-138.5 51.5t-88.5 75t-49 86t-14 89q0 134 93.5 214.5t295.5 80.5h567v14q0 104 -70.5 148.5t-242.5 44.5q-266 0 -266 -119q0 -8 2 -18h-344q-2 18 -2 36q0 154 150.5 242t473.5 88q327 0 495.5 -117.5
t168.5 -339.5v-575h-365q11 192 11 225h-2q-33 -118 -144.5 -181.5t-337.5 -63.5zM668 209q171 0 270.5 59.5t99.5 130.5v9h-456q-95 0 -135.5 -19t-40.5 -67q0 -51 62.5 -82t199.5 -31z" />
    <glyph glyph-name="Abreve" unicode="&#x102;" horiz-adv-x="2015" 
d="M1008 1442q-91 0 -164.5 20.5t-119.5 53t-76.5 74.5t-43 81.5t-12.5 77.5v10h291v-10q0 -44 28.5 -77.5t96.5 -33.5t96.5 33.5t28.5 77.5v10h290v-10q0 -38 -12.5 -77.5t-43.5 -81.5t-76.5 -74.5t-119 -53t-163.5 -20.5zM1518 0l-140 274h-792l-140 -274h-405l733 1348
h467l733 -1348h-456zM700 504h562l-281 549h-2z" />
    <glyph glyph-name="abreve" unicode="&#x103;" horiz-adv-x="1484" 
d="M743 1106q-91 0 -164.5 20.5t-119 53t-76 74.5t-43 81.5t-12.5 77.5v10h290v-10q0 -44 28.5 -77t96.5 -33t96.5 33t28.5 77v10h291v-10q0 -38 -12.5 -77.5t-43.5 -81.5t-77 -74.5t-119.5 -53t-163.5 -20.5zM565 -20q-108 0 -193 19.5t-138.5 51.5t-88.5 75t-49 86t-14 89
q0 134 93.5 214.5t295.5 80.5h567v14q0 104 -70.5 148.5t-242.5 44.5q-266 0 -266 -119q0 -8 2 -18h-344q-2 18 -2 36q0 154 150.5 242t473.5 88q327 0 495.5 -117.5t168.5 -339.5v-575h-365q11 192 11 225h-2q-33 -118 -144.5 -181.5t-337.5 -63.5zM668 209
q171 0 270.5 59.5t99.5 130.5v9h-456q-95 0 -135.5 -19t-40.5 -67q0 -51 62.5 -82t199.5 -31z" />
    <glyph glyph-name="Aogonek" unicode="&#x104;" horiz-adv-x="2015" 
d="M1747 -170q0 -72 111 -72q47 0 116 11v-199q-87 -21 -180 -21q-173 0 -251.5 60t-78.5 149q0 71 42 135.5t104 106.5h-92l-140 274h-792l-140 -274h-405l733 1348h467l733 -1348h-67q-77 -38 -118.5 -85t-41.5 -85zM700 504h562l-281 549h-2z" />
    <glyph glyph-name="aogonek" unicode="&#x105;" horiz-adv-x="1484" 
d="M1335 0q-77 -37 -118 -84.5t-41 -85.5q0 -72 110 -72q48 0 117 11v-199q-87 -21 -180 -21q-173 0 -251.5 60t-78.5 149q0 71 41.5 136t103.5 106q11 192 11 225h-2q-33 -118 -144.5 -181.5t-337.5 -63.5q-108 0 -193 19.5t-138.5 51.5t-88.5 75t-49 86t-14 89
q0 134 93.5 214.5t295.5 80.5h567v14q0 104 -70.5 148.5t-242.5 44.5q-266 0 -266 -119q0 -8 2 -18h-344q-2 18 -2 36q0 154 150.5 242t473.5 88q327 0 495.5 -117.5t168.5 -339.5v-575h-68zM1038 399v9h-456q-95 0 -135.5 -19t-40.5 -67q0 -51 62.5 -82t199.5 -31
q171 0 270.5 59.5t99.5 130.5z" />
    <glyph glyph-name="Cacute" unicode="&#x106;" horiz-adv-x="1781" 
d="M743 1456l189 303h387l-270 -303h-306zM922 -25q-155 0 -284 27t-220.5 76.5t-159.5 114t-108 144.5t-59 162.5t-19 172.5q0 151 54 278t157.5 221.5t266 147.5t368.5 53q123 0 230 -18.5t186 -50.5t142.5 -76t105.5 -93t70 -103.5t40 -106t12 -101.5q0 -20 -2 -32h-350
v8q0 49 -25 97t-73 90.5t-131 68.5t-187 26q-214 0 -332.5 -114.5t-118.5 -294.5q0 -84 25.5 -155t78 -128.5t142 -90t207.5 -32.5q200 0 310 79t110 198v12h350q2 -10 2 -29q0 -82 -26 -158.5t-86.5 -148.5t-149 -125.5t-224 -86t-302.5 -32.5z" />
    <glyph glyph-name="cacute" unicode="&#x107;" horiz-adv-x="1466" 
d="M580 1120l188 303h387l-270 -303h-305zM735 -20q-139 0 -252.5 30t-188.5 80.5t-126 118.5t-73.5 142t-22.5 153q0 110 43.5 204.5t126 167.5t214.5 114.5t298 41.5q136 0 245 -23.5t181.5 -64.5t120.5 -98.5t69 -121.5t21 -138h-324q-2 77 -76 130.5t-227 53.5
q-162 0 -245 -72t-83 -192q0 -119 78 -191.5t242 -72.5q160 0 236 50.5t79 127.5h324q0 -71 -21 -133.5t-70 -119.5t-123.5 -98t-188.5 -65t-257 -24z" />
    <glyph glyph-name="Ccircumflex" unicode="&#x108;" horiz-adv-x="1781" 
d="M522 1417v238l393 170h5l393 -170v-238l-393 170h-5zM922 -25q-155 0 -284 27t-220.5 76.5t-159.5 114t-108 144.5t-59 162.5t-19 172.5q0 151 54 278t157.5 221.5t266 147.5t368.5 53q123 0 230 -18.5t186 -50.5t142.5 -76t105.5 -93t70 -103.5t40 -106t12 -101.5
q0 -20 -2 -32h-350v8q0 49 -25 97t-73 90.5t-131 68.5t-187 26q-214 0 -332.5 -114.5t-118.5 -294.5q0 -84 25.5 -155t78 -128.5t142 -90t207.5 -32.5q200 0 310 79t110 198v12h350q2 -10 2 -29q0 -82 -26 -158.5t-86.5 -148.5t-149 -125.5t-224 -86t-302.5 -32.5z" />
    <glyph glyph-name="ccircumflex" unicode="&#x109;" horiz-adv-x="1466" 
d="M358 1081v238l394 170h4l393 -170v-238l-393 170h-4zM735 -20q-139 0 -252.5 30t-188.5 80.5t-126 118.5t-73.5 142t-22.5 153q0 110 43.5 204.5t126 167.5t214.5 114.5t298 41.5q136 0 245 -23.5t181.5 -64.5t120.5 -98.5t69 -121.5t21 -138h-324q-2 77 -76 130.5
t-227 53.5q-162 0 -245 -72t-83 -192q0 -119 78 -191.5t242 -72.5q160 0 236 50.5t79 127.5h324q0 -71 -21 -133.5t-70 -119.5t-123.5 -98t-188.5 -65t-257 -24z" />
    <glyph glyph-name="Cdotaccent" unicode="&#x10a;" horiz-adv-x="1781" 
d="M735 1477v262h365v-262h-365zM922 -25q-155 0 -284 27t-220.5 76.5t-159.5 114t-108 144.5t-59 162.5t-19 172.5q0 151 54 278t157.5 221.5t266 147.5t368.5 53q123 0 230 -18.5t186 -50.5t142.5 -76t105.5 -93t70 -103.5t40 -106t12 -101.5q0 -20 -2 -32h-350v8
q0 49 -25 97t-73 90.5t-131 68.5t-187 26q-214 0 -332.5 -114.5t-118.5 -294.5q0 -84 25.5 -155t78 -128.5t142 -90t207.5 -32.5q200 0 310 79t110 198v12h350q2 -10 2 -29q0 -82 -26 -158.5t-86.5 -148.5t-149 -125.5t-224 -86t-302.5 -32.5z" />
    <glyph glyph-name="cdotaccent" unicode="&#x10b;" horiz-adv-x="1466" 
d="M571 1141v262h365v-262h-365zM735 -20q-139 0 -252.5 30t-188.5 80.5t-126 118.5t-73.5 142t-22.5 153q0 110 43.5 204.5t126 167.5t214.5 114.5t298 41.5q136 0 245 -23.5t181.5 -64.5t120.5 -98.5t69 -121.5t21 -138h-324q-2 77 -76 130.5t-227 53.5q-162 0 -245 -72
t-83 -192q0 -119 78 -191.5t242 -72.5q160 0 236 50.5t79 127.5h324q0 -71 -21 -133.5t-70 -119.5t-123.5 -98t-188.5 -65t-257 -24z" />
    <glyph glyph-name="Ccaron" unicode="&#x10c;" horiz-adv-x="1781" 
d="M684 1456l-242 303h349l124 -192h5l124 192h349l-242 -303h-467zM922 -25q-155 0 -284 27t-220.5 76.5t-159.5 114t-108 144.5t-59 162.5t-19 172.5q0 151 54 278t157.5 221.5t266 147.5t368.5 53q123 0 230 -18.5t186 -50.5t142.5 -76t105.5 -93t70 -103.5t40 -106
t12 -101.5q0 -20 -2 -32h-350v8q0 49 -25 97t-73 90.5t-131 68.5t-187 26q-214 0 -332.5 -114.5t-118.5 -294.5q0 -84 25.5 -155t78 -128.5t142 -90t207.5 -32.5q200 0 310 79t110 198v12h350q2 -10 2 -29q0 -82 -26 -158.5t-86.5 -148.5t-149 -125.5t-224 -86t-302.5 -32.5
z" />
    <glyph glyph-name="ccaron" unicode="&#x10d;" horiz-adv-x="1466" 
d="M520 1120l-241 303h348l125 -192h4l125 192h348l-242 -303h-467zM735 -20q-139 0 -252.5 30t-188.5 80.5t-126 118.5t-73.5 142t-22.5 153q0 110 43.5 204.5t126 167.5t214.5 114.5t298 41.5q136 0 245 -23.5t181.5 -64.5t120.5 -98.5t69 -121.5t21 -138h-324
q-2 77 -76 130.5t-227 53.5q-162 0 -245 -72t-83 -192q0 -119 78 -191.5t242 -72.5q160 0 236 50.5t79 127.5h324q0 -71 -21 -133.5t-70 -119.5t-123.5 -98t-188.5 -65t-257 -24z" />
    <glyph glyph-name="Dcaron" unicode="&#x10e;" horiz-adv-x="1720" 
d="M565 1456l-241 303h348l125 -192h4l125 192h348l-242 -303h-467zM117 0v1348h686q155 0 282 -23t219 -67t159 -103.5t107.5 -136.5t59.5 -161.5t19 -182.5q0 -165 -43.5 -288t-136.5 -210.5t-244.5 -131.5t-362.5 -44h-745zM510 291h340q213 0 309 96t96 287
q0 83 -23.5 150.5t-73 120.5t-135 82.5t-200.5 29.5h-313v-766z" />
    <glyph glyph-name="dcaron" unicode="&#x10f;" horiz-adv-x="1855" 
d="M682 -20q-290 0 -450 146t-160 392q0 106 41.5 199t119.5 163.5t199 111t270 40.5q344 0 443 -182h4v584h364v-1434h-364q6 161 8 225h-4q-84 -245 -471 -245zM1591 686v172q95 0 140 38t45 120v8h-160v324h364v-226q0 -230 -97.5 -333t-291.5 -103zM778 242
q85 0 157.5 25t118 64.5t70.5 86t25 92.5v25q0 99 -95 167t-270 68q-167 0 -258.5 -70.5t-91.5 -183.5q0 -127 91 -200.5t253 -73.5z" />
    <glyph glyph-name="Dmacron" unicode="&#x110;" horiz-adv-x="1720" 
d="M803 1348q155 0 282 -23t219 -67t159 -103.5t107.5 -136.5t59.5 -161.5t19 -182.5q0 -165 -43.5 -288t-136.5 -210.5t-244.5 -131.5t-362.5 -44h-745v582h-137v180h137v586h686zM850 291q213 0 309 96t96 287q0 83 -23.5 150.5t-73 120.5t-135 82.5t-200.5 29.5h-313
v-295h383v-180h-383v-291h340z" />
    <glyph glyph-name="dmacron" unicode="&#x111;" horiz-adv-x="1626" 
d="M1729 1282v-156h-216v-1126h-364q6 161 8 225h-4q-84 -245 -471 -245q-290 0 -450 146t-160 392q0 106 41.5 199t119.5 163.5t199 111t270 40.5q344 0 443 -182h4v276h-533v156h533v152h364v-152h216zM1149 510v25q0 99 -95 167t-270 68q-167 0 -258.5 -70.5
t-91.5 -183.5q0 -127 91 -200.5t253 -73.5q85 0 157.5 25t118 64.5t70.5 86t25 92.5z" />
    <glyph glyph-name="Emacron" unicode="&#x112;" horiz-adv-x="1482" 
d="M406 1522v217h753v-217h-753zM117 0v1348h1274v-291h-881v-264h676v-230h-676v-272h901v-291h-1294z" />
    <glyph glyph-name="emacron" unicode="&#x113;" horiz-adv-x="1484" 
d="M1141 1403v-217h-754v217h754zM1413 514v-84h-973q15 -105 93.5 -163t250.5 -58q156 0 225 33t81 92h323q-3 -60 -26 -111.5t-71 -97t-119 -77t-176.5 -50t-236.5 -18.5q-115 0 -212 15.5t-169.5 42t-129 65t-94 83t-62 96.5t-35 104.5t-10.5 109.5q0 250 181.5 393
t510.5 143t489 -133t160 -385zM1090 618v9q0 78 -71 127t-235 49q-154 0 -232.5 -46t-102.5 -139h641z" />
    <glyph glyph-name="Ebreve" unicode="&#x114;" horiz-adv-x="1482" 
d="M782 1442q-91 0 -164.5 20.5t-119 53t-76 74.5t-43 81.5t-12.5 77.5v10h290v-10q0 -44 28.5 -77.5t96.5 -33.5t96.5 33.5t28.5 77.5v10h291v-10q0 -38 -12.5 -77.5t-43.5 -81.5t-77 -74.5t-119.5 -53t-163.5 -20.5zM117 0v1348h1274v-291h-881v-264h676v-230h-676v-272
h901v-291h-1294z" />
    <glyph glyph-name="ebreve" unicode="&#x115;" horiz-adv-x="1484" 
d="M764 1106q-91 0 -164.5 20.5t-119.5 53t-76.5 74.5t-43 81.5t-12.5 77.5v10h291v-10q0 -44 28.5 -77t96.5 -33t96.5 33t28.5 77v10h291v-10q0 -38 -12.5 -77.5t-43.5 -81.5t-77 -74.5t-119.5 -53t-163.5 -20.5zM1413 514v-84h-973q15 -105 93.5 -163t250.5 -58
q156 0 225 33t81 92h323q-3 -60 -26 -111.5t-71 -97t-119 -77t-176.5 -50t-236.5 -18.5q-115 0 -212 15.5t-169.5 42t-129 65t-94 83t-62 96.5t-35 104.5t-10.5 109.5q0 250 181.5 393t510.5 143t489 -133t160 -385zM1090 618v9q0 78 -71 127t-235 49q-154 0 -232.5 -46
t-102.5 -139h641z" />
    <glyph glyph-name="Edotaccent" unicode="&#x116;" horiz-adv-x="1482" 
d="M600 1477v262h365v-262h-365zM117 0v1348h1274v-291h-881v-264h676v-230h-676v-272h901v-291h-1294z" />
    <glyph glyph-name="edotaccent" unicode="&#x117;" horiz-adv-x="1484" 
d="M946 1403v-262h-364v262h364zM1413 514v-84h-973q15 -105 93.5 -163t250.5 -58q156 0 225 33t81 92h323q-3 -60 -26 -111.5t-71 -97t-119 -77t-176.5 -50t-236.5 -18.5q-115 0 -212 15.5t-169.5 42t-129 65t-94 83t-62 96.5t-35 104.5t-10.5 109.5q0 250 181.5 393
t510.5 143t489 -133t160 -385zM1090 618v9q0 78 -71 127t-235 49q-154 0 -232.5 -46t-102.5 -139h641z" />
    <glyph glyph-name="Eogonek" unicode="&#x118;" horiz-adv-x="1482" 
d="M1296 -242q48 0 117 11v-199q-87 -21 -180 -21q-173 0 -251.5 60t-78.5 149q0 71 42 135.5t104 106.5h-932v1348h1274v-291h-881v-264h676v-230h-676v-272h901v-291h-65q-77 -38 -118.5 -85t-41.5 -85q0 -72 110 -72z" />
    <glyph glyph-name="eogonek" unicode="&#x119;" horiz-adv-x="1484" 
d="M1413 514v-84h-973q15 -105 93.5 -163t250.5 -58q156 0 225 33t81 92h323q-6 -127 -106 -221q-21 -20 -61.5 -55.5t-57.5 -51.5q-53 -46 -84 -93.5t-31 -82.5q0 -72 111 -72q47 0 116 11v-199q-87 -21 -180 -21q-173 0 -251 60t-78 149q0 68 38 129.5t80 92.5v4
q-78 -4 -125 -4q-115 0 -212 15.5t-169.5 42t-129 65t-94 83t-62 96.5t-35 104.5t-10.5 109.5q0 250 181.5 393t510.5 143t489 -133t160 -385zM1090 618v9q0 78 -71 127t-235 49q-154 0 -232.5 -46t-102.5 -139h641z" />
    <glyph glyph-name="Ecaron" unicode="&#x11a;" horiz-adv-x="1482" 
d="M549 1456l-242 303h348l125 -192h4l125 192h348l-241 -303h-467zM117 0v1348h1274v-291h-881v-264h676v-230h-676v-272h901v-291h-1294z" />
    <glyph glyph-name="ecaron" unicode="&#x11b;" horiz-adv-x="1484" 
d="M997 1120h-467l-241 303h348l125 -192h4l125 192h348zM1413 514v-84h-973q15 -105 93.5 -163t250.5 -58q156 0 225 33t81 92h323q-3 -60 -26 -111.5t-71 -97t-119 -77t-176.5 -50t-236.5 -18.5q-115 0 -212 15.5t-169.5 42t-129 65t-94 83t-62 96.5t-35 104.5
t-10.5 109.5q0 250 181.5 393t510.5 143t489 -133t160 -385zM1090 618v9q0 78 -71 127t-235 49q-154 0 -232.5 -46t-102.5 -139h641z" />
    <glyph glyph-name="Gcircumflex" unicode="&#x11c;" horiz-adv-x="1800" 
d="M524 1417v238l394 170h4l393 -170v-238l-393 170h-4zM862 -25q-168 0 -302.5 37t-224.5 100t-150 151t-86.5 185.5t-26.5 206.5q0 149 51.5 276.5t152.5 227t267 156.5t379 57q171 0 306 -29.5t220 -78t141 -116t78.5 -138t22.5 -150.5q0 -15 -2 -29h-351v15
q0 33 -13 64.5t-43.5 63t-75.5 55t-115 38t-156 14.5q-223 0 -341 -119t-118 -309q0 -70 15 -130.5t49.5 -114t86 -91.5t129 -59.5t173.5 -21.5q100 0 178 24.5t121.5 62.5t65.5 78.5t22 79.5v6h-434v209h827v-696h-303q4 118 4 272h-4q-36 -138 -169 -217.5t-374 -79.5z
" />
    <glyph glyph-name="gcircumflex" unicode="&#x11d;" horiz-adv-x="1566" 
d="M733 1251h-4l-393 -170v238l393 170h4l393 -170v-238zM1081 197q100 0 177 -15.5t125 -41.5t78.5 -62.5t42.5 -74t12 -81.5q0 -61 -23.5 -114t-77.5 -100.5t-136 -81t-206 -53t-280 -19.5q-170 0 -301.5 16.5t-211 42.5t-130.5 63t-70 73.5t-19 78.5q0 76 61 124t183 52
v2q-123 59 -123 178q0 71 44.5 126.5t123.5 68.5v4q-219 86 -219 295q0 73 35 135.5t105.5 112t188.5 78t271 28.5q107 0 193 -12q282 -16 366 -16q91 0 172 6v-213q-18 -2 -47 -2q-45 0 -112 16l-3 -2q31 -60 31 -131q0 -158 -151 -256t-449 -98q-133 0 -235 18
q-23 -32 -23 -70q0 -33 29.5 -54t91.5 -21h487zM731 823q-128 0 -192 -40.5t-64 -104.5q0 -69 64 -107.5t192 -38.5q127 0 191.5 40t64.5 106q0 68 -65 106.5t-191 38.5zM793 -246q177 0 267.5 32t90.5 87q0 40 -40.5 61t-147.5 21h-359q-178 0 -178 -86q0 -53 91.5 -84
t275.5 -31z" />
    <glyph glyph-name="Gbreve" unicode="&#x11e;" horiz-adv-x="1800" 
d="M920 1442q-91 0 -164.5 20.5t-119.5 53t-76.5 74.5t-43 81.5t-12.5 77.5v10h291v-10q0 -44 28.5 -77.5t96.5 -33.5q67 0 95.5 33.5t28.5 77.5v10h291v-10q0 -38 -12.5 -77.5t-43.5 -81.5t-76.5 -74.5t-119 -53t-163.5 -20.5zM862 -25q-168 0 -302.5 37t-224.5 100
t-150 151t-86.5 185.5t-26.5 206.5q0 149 51.5 276.5t152.5 227t267 156.5t379 57q171 0 306 -29.5t220 -78t141 -116t78.5 -138t22.5 -150.5q0 -15 -2 -29h-351v15q0 33 -13 64.5t-43.5 63t-75.5 55t-115 38t-156 14.5q-223 0 -341 -119t-118 -309q0 -70 15 -130.5
t49.5 -114t86 -91.5t129 -59.5t173.5 -21.5q100 0 178 24.5t121.5 62.5t65.5 78.5t22 79.5v6h-434v209h827v-696h-303q4 118 4 272h-4q-36 -138 -169 -217.5t-374 -79.5z" />
    <glyph glyph-name="gbreve" unicode="&#x11f;" horiz-adv-x="1566" 
d="M731 1106q-91 0 -164.5 20.5t-119.5 53t-76.5 74.5t-43 81.5t-12.5 77.5v10h291v-10q0 -44 28.5 -77t96.5 -33t96.5 33t28.5 77v10h291v-10q0 -38 -12.5 -77.5t-43.5 -81.5t-77 -74.5t-119.5 -53t-163.5 -20.5zM1081 197q100 0 177 -15.5t125 -41.5t78.5 -62.5t42.5 -74
t12 -81.5q0 -61 -23.5 -114t-77.5 -100.5t-136 -81t-206 -53t-280 -19.5q-170 0 -301.5 16.5t-211 42.5t-130.5 63t-70 73.5t-19 78.5q0 76 61 124t183 52v2q-123 59 -123 178q0 71 44.5 126.5t123.5 68.5v4q-219 86 -219 295q0 73 35 135.5t105.5 112t188.5 78t271 28.5
q107 0 193 -12q282 -16 366 -16q91 0 172 6v-213q-18 -2 -47 -2q-45 0 -112 16l-3 -2q31 -60 31 -131q0 -158 -151 -256t-449 -98q-133 0 -235 18q-23 -32 -23 -70q0 -33 29.5 -54t91.5 -21h487zM731 823q-128 0 -192 -40.5t-64 -104.5q0 -69 64 -107.5t192 -38.5
q127 0 191.5 40t64.5 106q0 68 -65 106.5t-191 38.5zM793 -246q177 0 267.5 32t90.5 87q0 40 -40.5 61t-147.5 21h-359q-178 0 -178 -86q0 -53 91.5 -84t275.5 -31z" />
    <glyph glyph-name="Gdotaccent" unicode="&#x120;" horiz-adv-x="1800" 
d="M737 1477v262h365v-262h-365zM862 -25q-168 0 -302.5 37t-224.5 100t-150 151t-86.5 185.5t-26.5 206.5q0 149 51.5 276.5t152.5 227t267 156.5t379 57q171 0 306 -29.5t220 -78t141 -116t78.5 -138t22.5 -150.5q0 -15 -2 -29h-351v15q0 33 -13 64.5t-43.5 63t-75.5 55
t-115 38t-156 14.5q-223 0 -341 -119t-118 -309q0 -70 15 -130.5t49.5 -114t86 -91.5t129 -59.5t173.5 -21.5q100 0 178 24.5t121.5 62.5t65.5 78.5t22 79.5v6h-434v209h827v-696h-303q4 118 4 272h-4q-36 -138 -169 -217.5t-374 -79.5z" />
    <glyph glyph-name="gdotaccent" unicode="&#x121;" horiz-adv-x="1566" 
d="M913 1403v-262h-364v262h364zM1081 197q100 0 177 -15.5t125 -41.5t78.5 -62.5t42.5 -74t12 -81.5q0 -61 -23.5 -114t-77.5 -100.5t-136 -81t-206 -53t-280 -19.5q-170 0 -301.5 16.5t-211 42.5t-130.5 63t-70 73.5t-19 78.5q0 76 61 124t183 52v2q-123 59 -123 178
q0 71 44.5 126.5t123.5 68.5v4q-219 86 -219 295q0 73 35 135.5t105.5 112t188.5 78t271 28.5q107 0 193 -12q282 -16 366 -16q91 0 172 6v-213q-18 -2 -47 -2q-45 0 -112 16l-3 -2q31 -60 31 -131q0 -158 -151 -256t-449 -98q-133 0 -235 18q-23 -32 -23 -70
q0 -33 29.5 -54t91.5 -21h487zM731 823q-128 0 -192 -40.5t-64 -104.5q0 -69 64 -107.5t192 -38.5q127 0 191.5 40t64.5 106q0 68 -65 106.5t-191 38.5zM793 -246q177 0 267.5 32t90.5 87q0 40 -40.5 61t-147.5 21h-359q-178 0 -178 -86q0 -53 91.5 -84t275.5 -31z" />
    <glyph glyph-name="Gcommaaccent" unicode="&#x122;" horiz-adv-x="1800" 
d="M862 -25q-168 0 -302.5 37t-224.5 100t-150 151t-86.5 185.5t-26.5 206.5q0 149 51.5 276.5t152.5 227t267 156.5t379 57q171 0 306 -29.5t220 -78t141 -116t78.5 -138t22.5 -150.5q0 -15 -2 -29h-351v15q0 33 -13 64.5t-43.5 63t-75.5 55t-115 38t-156 14.5
q-223 0 -341 -119t-118 -309q0 -70 15 -130.5t49.5 -114t86 -91.5t129 -59.5t173.5 -21.5q100 0 178 24.5t121.5 62.5t65.5 78.5t22 79.5v6h-434v209h827v-696h-303q4 118 4 272h-4q-36 -138 -169 -217.5t-374 -79.5zM696 -735v172q96 0 140.5 37.5t44.5 119.5v9h-160v323
h364v-225q0 -230 -97.5 -333t-291.5 -103z" />
    <glyph glyph-name="gcommaaccent" unicode="&#x123;" horiz-adv-x="1566" 
d="M905 1444v-324h-364v226q0 230 97.5 333t291.5 103v-172q-95 0 -140 -38t-45 -120v-8h160zM1081 197q100 0 177 -15.5t125 -41.5t78.5 -62.5t42.5 -74t12 -81.5q0 -61 -23.5 -114t-77.5 -100.5t-136 -81t-206 -53t-280 -19.5q-170 0 -301.5 16.5t-211 42.5t-130.5 63
t-70 73.5t-19 78.5q0 76 61 124t183 52v2q-123 59 -123 178q0 71 44.5 126.5t123.5 68.5v4q-219 86 -219 295q0 73 35 135.5t105.5 112t188.5 78t271 28.5q107 0 193 -12q282 -16 366 -16q91 0 172 6v-213q-18 -2 -47 -2q-45 0 -112 16l-3 -2q31 -60 31 -131
q0 -158 -151 -256t-449 -98q-133 0 -235 18q-23 -32 -23 -70q0 -33 29.5 -54t91.5 -21h487zM731 823q-128 0 -192 -40.5t-64 -104.5q0 -69 64 -107.5t192 -38.5q127 0 191.5 40t64.5 106q0 68 -65 106.5t-191 38.5zM793 -246q177 0 267.5 32t90.5 87q0 40 -40.5 61
t-147.5 21h-359q-178 0 -178 -86q0 -53 91.5 -84t275.5 -31z" />
    <glyph glyph-name="Hcircumflex" unicode="&#x124;" horiz-adv-x="1884" 
d="M549 1417v238l393 170h4l393 -170v-238l-393 170h-4zM117 0v1348h393v-508h864v508h393v-1348h-393v549h-864v-549h-393z" />
    <glyph glyph-name="hcircumflex" unicode="&#x125;" horiz-adv-x="1599" 
d="M-117 1417v238l393 170h5l393 -170v-238l-393 170h-5zM96 0v1434h365v-486q0 -93 -4 -233h2q102 317 538 317q521 0 521 -430v-602h-365v504q0 116 -73 181t-249 65q-105 0 -186.5 -29t-132.5 -95.5t-51 -164.5v-461h-365z" />
    <glyph glyph-name="Imacron" unicode="&#x12a;" horiz-adv-x="647" 
d="M-51 1522v217h753v-217h-753zM127 0v1348h393v-1348h-393z" />
    <glyph glyph-name="imacron" unicode="&#x12b;" horiz-adv-x="569" 
d="M-92 1186v217h754v-217h-754zM102 0v1012h365v-1012h-365z" />
    <glyph glyph-name="Iogonek" unicode="&#x12e;" horiz-adv-x="647" 
d="M426 -242q48 0 117 11v-199q-87 -21 -181 -21q-173 0 -251 60t-78 149q0 71 41.5 136t103.5 106h-51v1348h393v-1348h-45q-77 -38 -118.5 -85t-41.5 -85q0 -72 111 -72z" />
    <glyph glyph-name="iogonek" unicode="&#x12f;" horiz-adv-x="569" 
d="M102 1403h365v-262h-365v262zM102 0v1012h365v-1012h-68q-77 -37 -118 -84.5t-41 -85.5q0 -72 110 -72q48 0 117 11v-199q-87 -21 -180 -21q-173 0 -251.5 60t-78.5 149q0 71 41.5 136t103.5 106z" />
    <glyph glyph-name="Idotaccent" unicode="&#x130;" horiz-adv-x="647" 
d="M143 1477v262h365v-262h-365zM127 0v1348h393v-1348h-393z" />
    <glyph glyph-name="dotlessi" unicode="&#x131;" horiz-adv-x="569" 
d="M102 0v1012h365v-1012h-365z" />
    <glyph glyph-name="Jcircumflex" unicode="&#x134;" horiz-adv-x="1576" 
d="M842 1417v238l393 170h4l393 -170v-238l-393 170h-4zM772 -25q-334 0 -502 146t-168 414q0 79 9 184h348q-4 -63 -4 -172q0 -129 76.5 -205t232.5 -76q144 0 230.5 86.5t86.5 255.5v740h394v-721q0 -323 -183 -487.5t-520 -164.5z" />
    <glyph glyph-name="jcircumflex" unicode="&#x135;" horiz-adv-x="567" 
d="M-111 1081v238l394 170h4l393 -170v-238l-393 170h-4zM-39 -426q-125 0 -266 25v254q105 -17 182 -17q131 0 177 52.5t46 168.5v955h365v-971q0 -77 -13 -142t-48 -126.5t-90 -104t-145 -68.5t-208 -26z" />
    <glyph glyph-name="Kcommaaccent" unicode="&#x136;" horiz-adv-x="1927" 
d="M117 0v1348h393v-674h4l848 674h496l-764 -594l813 -754h-551l-553 526l-293 -227v-299h-393zM760 -735v172q95 0 139.5 37.5t44.5 119.5v9h-160v323h365v-225q0 -230 -97.5 -333t-291.5 -103z" />
    <glyph glyph-name="kcommaaccent" unicode="&#x137;" horiz-adv-x="1617" 
d="M96 0v1434h365v-918h2l614 496h467l-579 -434l612 -578h-508l-373 377l-235 -176v-201h-365zM606 -735v172q96 0 140.5 37.5t44.5 119.5v9h-160v323h364v-225q0 -230 -97.5 -333t-291.5 -103z" />
    <glyph glyph-name="Lacute" unicode="&#x139;" horiz-adv-x="1359" 
d="M139 1456l189 303h387l-271 -303h-305zM117 0v1348h393v-1037h799v-311h-1192z" />
    <glyph glyph-name="lacute" unicode="&#x13a;" horiz-adv-x="557" 
d="M104 1497l189 303h387l-270 -303h-306zM96 0v1434h365v-1434h-365z" />
    <glyph glyph-name="Lcommaaccent" unicode="&#x13b;" horiz-adv-x="1359" 
d="M117 0v1348h393v-1037h799v-311h-1192zM508 -735v172q95 0 139.5 37.5t44.5 119.5v9h-160v323h365v-225q0 -230 -97.5 -333t-291.5 -103z" />
    <glyph glyph-name="lcommaaccent" unicode="&#x13c;" horiz-adv-x="557" 
d="M96 0v1434h365v-1434h-365zM74 -735v172q95 0 139.5 37.5t44.5 119.5v9h-160v323h365v-225q0 -230 -97.5 -333t-291.5 -103z" />
    <glyph glyph-name="Lcaron" unicode="&#x13d;" horiz-adv-x="1359" 
d="M117 0v1348h393v-1037h799v-311h-1192zM809 686v172q95 0 139.5 38t44.5 120v8h-159v324h364v-226q0 -230 -97.5 -333t-291.5 -103z" />
    <glyph glyph-name="lcaron" unicode="&#x13e;" horiz-adv-x="802" 
d="M96 0v1434h365v-1434h-365zM539 686v172q95 0 139.5 38t44.5 120v8h-160v324h365v-226q0 -230 -97.5 -333t-291.5 -103z" />
    <glyph glyph-name="Ldot" unicode="&#x13f;" horiz-adv-x="1380" 
d="M117 0v1348h393v-1037h799v-311h-1192zM829 631v323h365v-323h-365z" />
    <glyph glyph-name="ldot" unicode="&#x140;" horiz-adv-x="901" 
d="M96 0v1434h365v-1434h-365zM557 467v324h344v-324h-344z" />
    <glyph glyph-name="Lslash" unicode="&#x141;" horiz-adv-x="1359" 
d="M510 311h799v-311h-1192v514l-158 -51v188l158 51v646h393v-519l348 113v-188l-348 -113v-330z" />
    <glyph glyph-name="lslash" unicode="&#x142;" horiz-adv-x="557" 
d="M580 770v-166l-119 -45v-559h-365v424l-106 -39v166l106 39v844h365v-709z" />
    <glyph glyph-name="Nacute" unicode="&#x143;" horiz-adv-x="1884" 
d="M770 1456l188 303h388l-271 -303h-305zM117 0v1348h549l718 -811h2v811h381v-1348h-389l-878 991h-2v-991h-381z" />
    <glyph glyph-name="nacute" unicode="&#x144;" horiz-adv-x="1595" 
d="M629 1120l188 303h387l-270 -303h-305zM92 0v1012h365l-4 -295h4q103 315 536 315q520 0 520 -430v-602h-364v504q0 246 -322 246q-77 0 -142.5 -17t-117 -51t-81 -90.5t-29.5 -130.5v-461h-365z" />
    <glyph glyph-name="Ncommaaccent" unicode="&#x145;" horiz-adv-x="1884" 
d="M117 0v1348h549l718 -811h2v811h381v-1348h-389l-878 991h-2v-991h-381zM739 -735v172q96 0 140.5 37.5t44.5 119.5v9h-160v323h364v-225q0 -230 -97.5 -333t-291.5 -103z" />
    <glyph glyph-name="ncommaaccent" unicode="&#x146;" horiz-adv-x="1595" 
d="M92 0v1012h365l-4 -295h4q103 315 536 315q520 0 520 -430v-602h-364v504q0 246 -322 246q-77 0 -142.5 -17t-117 -51t-81 -90.5t-29.5 -130.5v-461h-365zM594 -735v172q95 0 139.5 37.5t44.5 119.5v9h-160v323h365v-225q0 -230 -97.5 -333t-291.5 -103z" />
    <glyph glyph-name="Ncaron" unicode="&#x147;" horiz-adv-x="1884" 
d="M711 1456l-242 303h348l125 -192h4l125 192h348l-241 -303h-467zM117 0v1348h549l718 -811h2v811h381v-1348h-389l-878 991h-2v-991h-381z" />
    <glyph glyph-name="ncaron" unicode="&#x148;" horiz-adv-x="1595" 
d="M569 1120l-241 303h348l125 -192h4l125 192h348l-242 -303h-467zM92 0v1012h365l-4 -295h4q103 315 536 315q520 0 520 -430v-602h-364v504q0 246 -322 246q-77 0 -142.5 -17t-117 -51t-81 -90.5t-29.5 -130.5v-461h-365z" />
    <glyph glyph-name="Omacron" unicode="&#x14c;" horiz-adv-x="1912" 
d="M580 1522v217h753v-217h-753zM956 -25q-179 0 -325.5 34.5t-249.5 97.5t-173 151t-103 194t-33 228q0 114 33 215.5t103.5 189t173 151.5t249.5 100t325 36t325 -36t249.5 -100t173.5 -151.5t104 -189t33 -215.5q0 -117 -31 -220.5t-100 -193t-170.5 -154t-250.5 -101
t-333 -36.5zM956 266q236 0 353.5 114t117.5 298q0 174 -121.5 288.5t-349.5 114.5t-349.5 -114.5t-121.5 -288.5q0 -189 119 -300.5t352 -111.5z" />
    <glyph glyph-name="omacron" unicode="&#x14d;" horiz-adv-x="1564" 
d="M406 1186v217h753v-217h-753zM782 -20q-152 0 -273.5 28.5t-202 77t-134 116t-77 142.5t-23.5 160q0 84 24 159.5t78.5 143.5t135 117.5t201.5 78.5t271 29t271 -29t202 -78.5t135.5 -117.5t78.5 -143.5t24 -159.5q0 -85 -23.5 -160t-78 -142.5t-135 -116t-202 -77
t-272.5 -28.5zM782 242q179 0 262.5 73t83.5 189q0 118 -83.5 192t-262.5 74q-180 0 -263 -74t-83 -192q0 -115 83 -188.5t263 -73.5z" />
    <glyph glyph-name="Obreve" unicode="&#x14e;" horiz-adv-x="1912" 
d="M956 1442q-91 0 -164.5 20.5t-119 53t-76 74.5t-43 81.5t-12.5 77.5v10h290v-10q0 -44 28.5 -77.5t96.5 -33.5t96.5 33.5t28.5 77.5v10h291v-10q0 -38 -12.5 -77.5t-43.5 -81.5t-77 -74.5t-119.5 -53t-163.5 -20.5zM956 -25q-179 0 -325.5 34.5t-249.5 97.5t-173 151
t-103 194t-33 228q0 114 33 215.5t103.5 189t173 151.5t249.5 100t325 36t325 -36t249.5 -100t173.5 -151.5t104 -189t33 -215.5q0 -117 -31 -220.5t-100 -193t-170.5 -154t-250.5 -101t-333 -36.5zM956 266q236 0 353.5 114t117.5 298q0 174 -121.5 288.5t-349.5 114.5
t-349.5 -114.5t-121.5 -288.5q0 -189 119 -300.5t352 -111.5z" />
    <glyph glyph-name="obreve" unicode="&#x14f;" horiz-adv-x="1564" 
d="M782 1106q-91 0 -164.5 20.5t-119 53t-76 74.5t-43 81.5t-12.5 77.5v10h290v-10q0 -44 28.5 -77t96.5 -33t96.5 33t28.5 77v10h291v-10q0 -38 -12.5 -77.5t-43.5 -81.5t-77 -74.5t-119.5 -53t-163.5 -20.5zM782 -20q-152 0 -273.5 28.5t-202 77t-134 116t-77 142.5
t-23.5 160q0 84 24 159.5t78.5 143.5t135 117.5t201.5 78.5t271 29t271 -29t202 -78.5t135.5 -117.5t78.5 -143.5t24 -159.5q0 -85 -23.5 -160t-78 -142.5t-135 -116t-202 -77t-272.5 -28.5zM782 242q179 0 262.5 73t83.5 189q0 118 -83.5 192t-262.5 74q-180 0 -263 -74
t-83 -192q0 -115 83 -188.5t263 -73.5z" />
    <glyph glyph-name="Ohungarumlaut" unicode="&#x150;" horiz-adv-x="1912" 
d="M537 1456l174 303h327l-237 -303h-264zM997 1456l174 303h328l-237 -303h-265zM956 -25q-179 0 -325.5 34.5t-249.5 97.5t-173 151t-103 194t-33 228q0 114 33 215.5t103.5 189t173 151.5t249.5 100t325 36t325 -36t249.5 -100t173.5 -151.5t104 -189t33 -215.5
q0 -117 -31 -220.5t-100 -193t-170.5 -154t-250.5 -101t-333 -36.5zM956 266q236 0 353.5 114t117.5 298q0 174 -121.5 288.5t-349.5 114.5t-349.5 -114.5t-121.5 -288.5q0 -189 119 -300.5t352 -111.5z" />
    <glyph glyph-name="ohungarumlaut" unicode="&#x151;" horiz-adv-x="1564" 
d="M362 1120l175 303h327l-237 -303h-265zM823 1120l174 303h328l-238 -303h-264zM782 -20q-152 0 -273.5 28.5t-202 77t-134 116t-77 142.5t-23.5 160q0 84 24 159.5t78.5 143.5t135 117.5t201.5 78.5t271 29t271 -29t202 -78.5t135.5 -117.5t78.5 -143.5t24 -159.5
q0 -85 -23.5 -160t-78 -142.5t-135 -116t-202 -77t-272.5 -28.5zM782 242q179 0 262.5 73t83.5 189q0 118 -83.5 192t-262.5 74q-180 0 -263 -74t-83 -192q0 -115 83 -188.5t263 -73.5z" />
    <glyph glyph-name="OE" unicode="&#x152;" horiz-adv-x="2473" 
d="M956 -25q-224 0 -394.5 52t-277 146.5t-159.5 222t-53 284.5q0 116 33 218.5t103.5 189.5t173 150t249.5 98.5t325 35.5q149 0 275 -24h1151v-291h-840v-264h635v-230h-635v-272h860v-291h-1161q-134 -25 -285 -25zM956 266q103 0 193 23v766q-89 26 -193 26
q-230 0 -350.5 -112t-120.5 -291q0 -194 118 -303t353 -109z" />
    <glyph glyph-name="oe" unicode="&#x153;" horiz-adv-x="2541" 
d="M2470 514v-84h-973q15 -105 93.5 -163t250.5 -58q156 0 224.5 33t80.5 92h324q-3 -60 -26 -111.5t-71 -97t-119 -77t-176.5 -50t-236.5 -18.5q-366 0 -532 153h-4q-169 -153 -523 -153q-152 0 -273.5 28.5t-202 77t-134 116t-77 142.5t-23.5 160q0 84 24 159.5
t78.5 143.5t135 117.5t201.5 78.5t271 29q355 0 525 -160h6q166 160 508 160q329 0 489 -133t160 -385zM2146 618v9q0 77 -70.5 126.5t-234.5 49.5q-155 0 -233.5 -46t-102.5 -139h641zM782 242q179 0 262.5 73t83.5 189q0 118 -83.5 192t-262.5 74q-180 0 -263 -74
t-83 -192q0 -115 83 -188.5t263 -73.5z" />
    <glyph glyph-name="Racute" unicode="&#x154;" horiz-adv-x="1732" 
d="M694 1456l189 303h387l-271 -303h-305zM117 0v1348h848q183 0 312.5 -28t203.5 -82t106.5 -124.5t32.5 -165.5q0 -249 -244 -321v-4q62 -14 106.5 -41t69 -58.5t38.5 -75t18 -80t4 -85.5v-283h-393v283q0 107 -49.5 154.5t-172.5 47.5h-487v-485h-393zM510 715h473
q264 0 264 176q0 166 -299 166h-438v-342z" />
    <glyph glyph-name="racute" unicode="&#x155;" horiz-adv-x="1454" 
d="M553 1120l188 303h387l-270 -303h-305zM92 0v1012h365l-6 -293h6q47 139 161.5 226t301.5 87q123 0 210.5 -32t137 -92.5t72 -137t22.5 -176.5q0 -111 -10 -209h-338q4 46 4 102q0 134 -50 198.5t-177 64.5q-84 0 -150 -30.5t-105 -81.5t-59 -113t-20 -130v-395h-365z
" />
    <glyph glyph-name="Rcommaaccent" unicode="&#x156;" horiz-adv-x="1732" 
d="M117 0v1348h848q183 0 312.5 -28t203.5 -82t106.5 -124.5t32.5 -165.5q0 -249 -244 -321v-4q62 -14 106.5 -41t69 -58.5t38.5 -75t18 -80t4 -85.5v-283h-393v283q0 107 -49.5 154.5t-172.5 47.5h-487v-485h-393zM510 715h473q264 0 264 176q0 166 -299 166h-438v-342z
M664 -735v172q95 0 139.5 37.5t44.5 119.5v9h-160v323h365v-225q0 -230 -97.5 -333t-291.5 -103z" />
    <glyph glyph-name="rcommaaccent" unicode="&#x157;" horiz-adv-x="1454" 
d="M92 0v1012h365l-6 -293h6q47 139 161.5 226t301.5 87q123 0 210.5 -32t137 -92.5t72 -137t22.5 -176.5q0 -111 -10 -209h-338q4 46 4 102q0 134 -50 198.5t-177 64.5q-84 0 -150 -30.5t-105 -81.5t-59 -113t-20 -130v-395h-365zM88 -735v172q95 0 139.5 37.5t44.5 119.5
v9h-159v323h364v-225q0 -230 -97.5 -333t-291.5 -103z" />
    <glyph glyph-name="Rcaron" unicode="&#x158;" horiz-adv-x="1732" 
d="M635 1456l-242 303h348l125 -192h4l125 192h348l-241 -303h-467zM117 0v1348h848q183 0 312.5 -28t203.5 -82t106.5 -124.5t32.5 -165.5q0 -249 -244 -321v-4q62 -14 106.5 -41t69 -58.5t38.5 -75t18 -80t4 -85.5v-283h-393v283q0 107 -49.5 154.5t-172.5 47.5h-487v-485
h-393zM510 715h473q264 0 264 176q0 166 -299 166h-438v-342z" />
    <glyph glyph-name="rcaron" unicode="&#x159;" horiz-adv-x="1454" 
d="M494 1120l-242 303h348l125 -192h4l125 192h348l-241 -303h-467zM92 0v1012h365l-6 -293h6q47 139 161.5 226t301.5 87q123 0 210.5 -32t137 -92.5t72 -137t22.5 -176.5q0 -111 -10 -209h-338q4 46 4 102q0 134 -50 198.5t-177 64.5q-84 0 -150 -30.5t-105 -81.5
t-59 -113t-20 -130v-395h-365z" />
    <glyph glyph-name="Sacute" unicode="&#x15a;" horiz-adv-x="1753" 
d="M686 1456l188 303h388l-271 -303h-305zM862 -25q-145 0 -263 17.5t-196.5 45.5t-137.5 69t-91.5 82t-52.5 91t-25.5 89.5t-5.5 83.5h352q0 -46 19 -81.5t64 -65t129.5 -45t207.5 -15.5q129 0 214.5 12t128 36t58 51t15.5 65q0 80 -107 104q-72 15 -440 35
q-348 20 -485 90q-76 40 -120 111.5t-44 167.5t47 177t139.5 143.5t243.5 98t346 35.5q134 0 243 -13t186.5 -36t135.5 -57.5t93 -72.5t56.5 -87t29.5 -96t8 -103h-353q0 195 -399 195q-383 0 -383 -156q0 -73 86 -100q21 -7 55.5 -12t85.5 -9.5t89 -7t104.5 -6.5t93.5 -6
q344 -21 479 -76q96 -40 149.5 -116t53.5 -173q0 -71 -16.5 -131t-69 -124t-138 -108.5t-235.5 -73t-350 -28.5z" />
    <glyph glyph-name="sacute" unicode="&#x15b;" horiz-adv-x="1425" 
d="M522 1120l189 303h387l-271 -303h-305zM696 -20q-113 0 -205.5 12t-156 31.5t-112 48.5t-76.5 59t-45 67t-23 69.5t-6 68.5h344q1 -23 5.5 -39t21.5 -34t46 -29t81.5 -18t125.5 -7q117 0 184 13.5t88 34.5t21 54q0 56 -84 66q-35 4 -84.5 7t-116.5 5t-106 4
q-311 12 -418 76q-108 64 -108 207q0 163 162.5 259.5t461.5 96.5q141 0 247.5 -19t172 -51t106 -80t55.5 -98.5t15 -113.5h-344q-1 31 -10 52.5t-33.5 41t-74 29.5t-123.5 10q-271 0 -271 -105q0 -30 21 -46t75 -25q31 -4 75.5 -7t116 -6t118.5 -6q276 -15 372 -59
q140 -64 140 -225q0 -344 -658 -344z" />
    <glyph glyph-name="Scircumflex" unicode="&#x15c;" horiz-adv-x="1753" 
d="M465 1417v238l393 170h4l393 -170v-238l-393 170h-4zM862 -25q-145 0 -263 17.5t-196.5 45.5t-137.5 69t-91.5 82t-52.5 91t-25.5 89.5t-5.5 83.5h352q0 -46 19 -81.5t64 -65t129.5 -45t207.5 -15.5q129 0 214.5 12t128 36t58 51t15.5 65q0 80 -107 104q-72 15 -440 35
q-348 20 -485 90q-76 40 -120 111.5t-44 167.5t47 177t139.5 143.5t243.5 98t346 35.5q134 0 243 -13t186.5 -36t135.5 -57.5t93 -72.5t56.5 -87t29.5 -96t8 -103h-353q0 195 -399 195q-383 0 -383 -156q0 -73 86 -100q21 -7 55.5 -12t85.5 -9.5t89 -7t104.5 -6.5t93.5 -6
q344 -21 479 -76q96 -40 149.5 -116t53.5 -173q0 -71 -16.5 -131t-69 -124t-138 -108.5t-235.5 -73t-350 -28.5z" />
    <glyph glyph-name="scircumflex" unicode="&#x15d;" horiz-adv-x="1425" 
d="M301 1081v238l393 170h4l394 -170v-238l-394 170h-4zM696 -20q-113 0 -205.5 12t-156 31.5t-112 48.5t-76.5 59t-45 67t-23 69.5t-6 68.5h344q1 -23 5.5 -39t21.5 -34t46 -29t81.5 -18t125.5 -7q117 0 184 13.5t88 34.5t21 54q0 56 -84 66q-35 4 -84.5 7t-116.5 5t-106 4
q-311 12 -418 76q-108 64 -108 207q0 163 162.5 259.5t461.5 96.5q141 0 247.5 -19t172 -51t106 -80t55.5 -98.5t15 -113.5h-344q-1 31 -10 52.5t-33.5 41t-74 29.5t-123.5 10q-271 0 -271 -105q0 -30 21 -46t75 -25q31 -4 75.5 -7t116 -6t118.5 -6q276 -15 372 -59
q140 -64 140 -225q0 -344 -658 -344z" />
    <glyph glyph-name="Scedilla" unicode="&#x15e;" horiz-adv-x="1753" 
d="M1671 440q0 -56 -11 -104t-38.5 -101t-80.5 -95.5t-129.5 -78.5t-194.5 -57.5t-267 -26.5l-32 -77l4 -2q49 34 141 34q105 0 163 -44t58 -121q0 -94 -97.5 -153.5t-285.5 -59.5q-183 0 -283 55.5t-106 142.5h250q6 -27 35.5 -39t103.5 -12q59 0 96 17.5t37 48.5
q0 25 -28.5 36t-104.5 11h-229l71 166q-122 6 -221.5 27t-166 50t-116.5 69t-78 79t-44.5 86t-21.5 83.5t-5 78.5h352q0 -46 19 -81.5t64 -65t129.5 -45t207.5 -15.5q129 0 214.5 12t128 36t58 51t15.5 65q0 80 -107 104q-72 15 -440 35q-348 20 -485 90q-76 40 -120 111.5
t-44 167.5t47 177t139.5 143.5t243.5 98t346 35.5q134 0 243 -13t186.5 -36t135.5 -57.5t93 -72.5t56.5 -87t29.5 -96t8 -103h-353q0 195 -399 195q-383 0 -383 -156q0 -73 86 -100q21 -7 55.5 -12t85.5 -9.5t89 -7t104.5 -6.5t93.5 -6q344 -21 479 -76q96 -40 149.5 -116
t53.5 -173z" />
    <glyph glyph-name="scedilla" unicode="&#x15f;" horiz-adv-x="1425" 
d="M1354 324q0 -50 -14 -93.5t-52.5 -88t-100.5 -77t-165 -55.5t-238 -28l-34 -82l4 -2q49 34 141 34q105 0 163 -44t58 -121q0 -94 -97.5 -153.5t-285.5 -59.5q-183 0 -283 55.5t-106 142.5h250q6 -27 35.5 -39t103.5 -12q59 0 96 17.5t37 48.5q0 25 -28.5 36t-104.5 11
h-229l74 170q-506 31 -506 352h344q1 -23 5.5 -39t21.5 -34t46 -29t81.5 -18t125.5 -7q117 0 184 13.5t88 34.5t21 54q0 56 -84 66q-35 4 -84.5 7t-116.5 5t-106 4q-311 12 -418 76q-108 64 -108 207q0 163 162.5 259.5t461.5 96.5q141 0 247.5 -19t172 -51t106 -80
t55.5 -98.5t15 -113.5h-344q-1 31 -10 52.5t-33.5 41t-74 29.5t-123.5 10q-271 0 -271 -105q0 -30 21 -46t75 -25q31 -4 75.5 -7t116 -6t118.5 -6q276 -15 372 -59q140 -64 140 -225z" />
    <glyph glyph-name="Scaron" unicode="&#x160;" horiz-adv-x="1753" 
d="M627 1456l-242 303h348l125 -192h4l125 192h348l-241 -303h-467zM862 -25q-145 0 -263 17.5t-196.5 45.5t-137.5 69t-91.5 82t-52.5 91t-25.5 89.5t-5.5 83.5h352q0 -46 19 -81.5t64 -65t129.5 -45t207.5 -15.5q129 0 214.5 12t128 36t58 51t15.5 65q0 80 -107 104
q-72 15 -440 35q-348 20 -485 90q-76 40 -120 111.5t-44 167.5t47 177t139.5 143.5t243.5 98t346 35.5q134 0 243 -13t186.5 -36t135.5 -57.5t93 -72.5t56.5 -87t29.5 -96t8 -103h-353q0 195 -399 195q-383 0 -383 -156q0 -73 86 -100q21 -7 55.5 -12t85.5 -9.5t89 -7
t104.5 -6.5t93.5 -6q344 -21 479 -76q96 -40 149.5 -116t53.5 -173q0 -71 -16.5 -131t-69 -124t-138 -108.5t-235.5 -73t-350 -28.5z" />
    <glyph glyph-name="scaron" unicode="&#x161;" horiz-adv-x="1425" 
d="M463 1120l-242 303h348l125 -192h4l125 192h348l-241 -303h-467zM696 -20q-113 0 -205.5 12t-156 31.5t-112 48.5t-76.5 59t-45 67t-23 69.5t-6 68.5h344q1 -23 5.5 -39t21.5 -34t46 -29t81.5 -18t125.5 -7q117 0 184 13.5t88 34.5t21 54q0 56 -84 66q-35 4 -84.5 7
t-116.5 5t-106 4q-311 12 -418 76q-108 64 -108 207q0 163 162.5 259.5t461.5 96.5q141 0 247.5 -19t172 -51t106 -80t55.5 -98.5t15 -113.5h-344q-1 31 -10 52.5t-33.5 41t-74 29.5t-123.5 10q-271 0 -271 -105q0 -30 21 -46t75 -25q31 -4 75.5 -7t116 -6t118.5 -6
q276 -15 372 -59q140 -64 140 -225q0 -344 -658 -344z" />
    <glyph glyph-name="uni0162" unicode="&#x162;" horiz-adv-x="1556" 
d="M582 0v1057h-531v291h1454v-291h-530v-1057h-393zM573 -735v172q96 0 140.5 37.5t44.5 119.5v9h-160v323h365v-225q0 -230 -98 -333t-292 -103z" />
    <glyph glyph-name="uni0163" unicode="&#x163;" horiz-adv-x="1169" 
d="M788 -20q-163 0 -278.5 30.5t-180 87.5t-93.5 129t-29 166v357h-187v262h156q38 0 55 20t23 68l18 141h299v-229h521v-262h-521v-349q0 -89 60.5 -124t216.5 -35q123 0 233 20v-252q-99 -30 -293 -30zM496 -735v172q95 0 139.5 37.5t44.5 119.5v9h-160v323h365v-225
q0 -230 -97.5 -333t-291.5 -103z" />
    <glyph glyph-name="Tcaron" unicode="&#x164;" horiz-adv-x="1556" 
d="M545 1456l-242 303h348l125 -192h4l125 192h348l-241 -303h-467zM582 0v1057h-531v291h1454v-291h-530v-1057h-393z" />
    <glyph glyph-name="tcaron" unicode="&#x165;" horiz-adv-x="1169" 
d="M741 1096v172q96 0 140.5 37.5t44.5 119.5v9h-160v323h364v-225q0 -230 -97.5 -333t-291.5 -103zM788 -20q-163 0 -278.5 30.5t-180 87.5t-93.5 129t-29 166v357h-187v262h156q38 0 55 20t23 68l18 141h299v-229h521v-262h-521v-349q0 -89 60.5 -124t216.5 -35
q123 0 233 20v-252q-99 -30 -293 -30z" />
    <glyph glyph-name="Utilde" unicode="&#x168;" horiz-adv-x="1794" 
d="M459 1477q8 88 36 152t68.5 97.5t82.5 48.5t87 15q86 0 193 -55l39 -21q54 -28 86 -28q67 0 75 104h250q-7 -72 -27 -127.5t-47.5 -90t-63 -56.5t-70 -30.5t-72.5 -8.5q-80 0 -187 55l-39 20q-54 29 -86 29q-66 0 -77 -104h-248zM899 -25q-378 0 -587.5 157.5
t-209.5 469.5v746h394v-703q0 -187 108.5 -272.5t313.5 -85.5t313 85.5t108 272.5v703h353v-746q0 -313 -207 -470t-586 -157z" />
    <glyph glyph-name="utilde" unicode="&#x169;" horiz-adv-x="1595" 
d="M340 1141q8 88 36 152t68.5 97.5t82.5 48.5t87 15q86 0 193 -55l39 -21q54 -28 86 -28q68 0 76 104h249q-7 -72 -27 -127.5t-47.5 -90t-63 -56.5t-70 -30.5t-72.5 -8.5q-79 0 -186 55l-39 21q-52 28 -86 28q-67 0 -78 -104h-248zM598 -20q-133 0 -234.5 36.5t-161.5 99.5
t-90 142t-30 170v584h364v-502q0 -126 70.5 -187t235.5 -61q163 0 275 90.5t112 243.5v416h364v-1012h-364q4 122 4 289h-4q-53 -156 -179 -232.5t-362 -76.5z" />
    <glyph glyph-name="Umacron" unicode="&#x16a;" horiz-adv-x="1794" 
d="M541 1522v217h753v-217h-753zM899 -25q-378 0 -587.5 157.5t-209.5 469.5v746h394v-703q0 -187 108.5 -272.5t313.5 -85.5t313 85.5t108 272.5v703h353v-746q0 -313 -207 -470t-586 -157z" />
    <glyph glyph-name="umacron" unicode="&#x16b;" horiz-adv-x="1595" 
d="M422 1186v217h754v-217h-754zM598 -20q-133 0 -234.5 36.5t-161.5 99.5t-90 142t-30 170v584h364v-502q0 -126 70.5 -187t235.5 -61q163 0 275 90.5t112 243.5v416h364v-1012h-364q4 122 4 289h-4q-53 -156 -179 -232.5t-362 -76.5z" />
    <glyph glyph-name="Ubreve" unicode="&#x16c;" horiz-adv-x="1794" 
d="M918 1442q-91 0 -164.5 20.5t-119.5 53t-76.5 74.5t-43 81.5t-12.5 77.5v10h291v-10q0 -44 28.5 -77.5t96.5 -33.5q67 0 95.5 33.5t28.5 77.5v10h291v-10q0 -38 -12.5 -77.5t-43.5 -81.5t-76.5 -74.5t-119 -53t-163.5 -20.5zM899 -25q-378 0 -587.5 157.5t-209.5 469.5
v746h394v-703q0 -187 108.5 -272.5t313.5 -85.5t313 85.5t108 272.5v703h353v-746q0 -313 -207 -470t-586 -157z" />
    <glyph glyph-name="ubreve" unicode="&#x16d;" horiz-adv-x="1595" 
d="M799 1106q-91 0 -164.5 20.5t-119.5 53t-76.5 74.5t-43 81.5t-12.5 77.5v10h291v-10q0 -44 28.5 -77t96.5 -33t96.5 33t28.5 77v10h290v-10q0 -38 -12.5 -77.5t-43.5 -81.5t-76.5 -74.5t-119 -53t-163.5 -20.5zM598 -20q-133 0 -234.5 36.5t-161.5 99.5t-90 142t-30 170
v584h364v-502q0 -126 70.5 -187t235.5 -61q163 0 275 90.5t112 243.5v416h364v-1012h-364q4 122 4 289h-4q-53 -156 -179 -232.5t-362 -76.5z" />
    <glyph glyph-name="Uring" unicode="&#x16e;" horiz-adv-x="1794" 
d="M918 1419q-181 0 -282 74t-101 188q0 112 104 187.5t279 75.5q178 0 280 -75t102 -188q0 -114 -100.5 -188t-281.5 -74zM918 1587q73 0 113 25t40 69t-40.5 69.5t-112.5 25.5q-71 0 -112.5 -25.5t-41.5 -69.5t40.5 -69t113.5 -25zM899 -25q-378 0 -587.5 157.5
t-209.5 469.5v746h394v-703q0 -187 108.5 -272.5t313.5 -85.5t313 85.5t108 272.5v703h353v-746q0 -313 -207 -470t-586 -157z" />
    <glyph glyph-name="uring" unicode="&#x16f;" horiz-adv-x="1595" 
d="M799 1083q-181 0 -282 74.5t-101 188.5q0 112 104 187t279 75q179 0 281 -74.5t102 -187.5q0 -114 -101 -188.5t-282 -74.5zM799 1251q73 0 113 25t40 70q0 44 -40.5 69t-112.5 25q-71 0 -112.5 -25t-41.5 -69q0 -45 40.5 -70t113.5 -25zM598 -20q-133 0 -234.5 36.5
t-161.5 99.5t-90 142t-30 170v584h364v-502q0 -126 70.5 -187t235.5 -61q163 0 275 90.5t112 243.5v416h364v-1012h-364q4 122 4 289h-4q-53 -156 -179 -232.5t-362 -76.5z" />
    <glyph glyph-name="Uhungarumlaut" unicode="&#x170;" horiz-adv-x="1794" 
d="M498 1456l174 303h327l-237 -303h-264zM958 1456l175 303h327l-237 -303h-265zM899 -25q-378 0 -587.5 157.5t-209.5 469.5v746h394v-703q0 -187 108.5 -272.5t313.5 -85.5t313 85.5t108 272.5v703h353v-746q0 -313 -207 -470t-586 -157z" />
    <glyph glyph-name="uhungarumlaut" unicode="&#x171;" horiz-adv-x="1595" 
d="M379 1120l174 303h328l-238 -303h-264zM840 1120l174 303h327l-237 -303h-264zM598 -20q-133 0 -234.5 36.5t-161.5 99.5t-90 142t-30 170v584h364v-502q0 -126 70.5 -187t235.5 -61q163 0 275 90.5t112 243.5v416h364v-1012h-364q4 122 4 289h-4q-53 -156 -179 -232.5
t-362 -76.5z" />
    <glyph glyph-name="Uogonek" unicode="&#x172;" horiz-adv-x="1794" 
d="M102 602v746h394v-703q0 -187 108.5 -272.5t313.5 -85.5t313 85.5t108 272.5v703h353v-746q0 -214 -99 -356t-284 -209q-60 -21 -127 -57q-61 -31 -94 -72t-33 -78q0 -72 110 -72q48 0 117 11v-199q-87 -21 -180 -21q-173 0 -251.5 60t-78.5 149q0 68 38 128t79 87v2h-29
q-360 8 -559 165.5t-199 461.5z" />
    <glyph glyph-name="uogonek" unicode="&#x173;" horiz-adv-x="1595" 
d="M1436 0q-77 -38 -118.5 -85t-41.5 -85q0 -72 110 -72q48 0 117 11v-199q-87 -21 -180 -21q-173 0 -251.5 60t-78.5 149q0 71 42 135.5t104 106.5q4 122 4 289h-4q-53 -156 -179 -232.5t-362 -76.5q-133 0 -234.5 36.5t-161.5 99.5t-90 142t-30 170v584h364v-502
q0 -126 70.5 -187t235.5 -61q163 0 275 90.5t112 243.5v416h364v-1012h-67z" />
    <glyph glyph-name="Wcircumflex" unicode="&#x174;" horiz-adv-x="2711" 
d="M961 1417v238l393 170h4l393 -170v-238l-393 170h-4zM582 0l-541 1348h426l358 -926h4l359 926h397l352 -926h5l342 926h387l-541 -1348h-432l-334 870h-4l-346 -870h-432z" />
    <glyph glyph-name="wcircumflex" unicode="&#x175;" horiz-adv-x="2220" 
d="M715 1081v238l393 170h4l393 -170v-238l-393 170h-4zM426 0l-385 1012h387l250 -693h2l270 693h361l268 -693h2l252 693h346l-385 -1012h-444l-242 657h-4l-244 -657h-434z" />
    <glyph glyph-name="Ycircumflex" unicode="&#x176;" horiz-adv-x="1939" 
d="M575 1417v238l394 170h4l393 -170v-238l-393 170h-4zM772 0v547l-731 801h524l436 -490h7l432 490h458l-733 -801v-547h-393z" />
    <glyph glyph-name="ycircumflex" unicode="&#x177;" horiz-adv-x="1568" 
d="M389 1081v238l393 170h4l394 -170v-238l-394 170h-4zM475 -446q-115 0 -237 30v252q77 -20 163 -20q100 0 159 37t112 147h-72l-559 1012h418l372 -684h5l335 684h357l-504 -1039q-115 -236 -233.5 -327.5t-315.5 -91.5z" />
    <glyph glyph-name="Ydieresis" unicode="&#x178;" horiz-adv-x="1939" 
d="M539 1477v262h344v-262h-344zM1059 1477v262h344v-262h-344zM772 0v547l-731 801h524l436 -490h7l432 490h458l-733 -801v-547h-393z" />
    <glyph glyph-name="Zacute" unicode="&#x179;" horiz-adv-x="1566" 
d="M610 1456l189 303h387l-271 -303h-305zM66 0v256l948 797v4h-938v291h1425v-281l-923 -774v-2h915v-291h-1427z" />
    <glyph glyph-name="zacute" unicode="&#x17a;" horiz-adv-x="1290" 
d="M481 1120l189 303h387l-271 -303h-305zM61 0v199l680 546v5h-661v262h1149v-197l-684 -551v-2h684v-262h-1168z" />
    <glyph glyph-name="Zdotaccent" unicode="&#x17b;" horiz-adv-x="1566" 
d="M602 1477v262h365v-262h-365zM66 0v256l948 797v4h-938v291h1425v-281l-923 -774v-2h915v-291h-1427z" />
    <glyph glyph-name="zdotaccent" unicode="&#x17c;" horiz-adv-x="1290" 
d="M473 1141v262h365v-262h-365zM61 0v199l680 546v5h-661v262h1149v-197l-684 -551v-2h684v-262h-1168z" />
    <glyph glyph-name="Zcaron" unicode="&#x17d;" horiz-adv-x="1566" 
d="M551 1456l-242 303h348l125 -192h4l125 192h349l-242 -303h-467zM66 0v256l948 797v4h-938v291h1425v-281l-923 -774v-2h915v-291h-1427z" />
    <glyph glyph-name="zcaron" unicode="&#x17e;" horiz-adv-x="1290" 
d="M422 1120l-242 303h348l125 -192h4l125 192h348l-241 -303h-467zM61 0v199l680 546v5h-661v262h1149v-197l-684 -551v-2h684v-262h-1168z" />
    <glyph glyph-name="florin" unicode="&#x192;" 
d="M1497 809v-262h-489l-33 -330q-41 -412 -543 -412q-174 0 -260 37v246q102 -20 215 -20q80 0 128 21t68.5 58.5t26.5 100.5l31 299h-315v262h342l6 65q41 414 543 414q86 0 155.5 -11.5t102.5 -25.5v-247q-90 22 -213 22q-117 0 -166.5 -46.5t-57.5 -135.5l-4 -35h463z
" />
    <glyph glyph-name="AEacute" unicode="&#x1fc;" horiz-adv-x="2408" 
d="M1407 1456l188 303h387l-270 -303h-305zM41 0l805 1348h1470v-291h-839v-264h634v-230h-634v-272h860v-291h-1254v254h-475l-145 -254h-422zM741 483h342v580h-8z" />
    <glyph glyph-name="aeacute" unicode="&#x1fd;" horiz-adv-x="2449" 
d="M1628 1423l-270 -303h-305l188 303h387zM2378 514v-84h-973q17 -116 99.5 -168.5t244.5 -52.5q156 0 224.5 33t80.5 92h324q-3 -60 -26 -111.5t-71 -97t-119 -77t-176.5 -50t-236.5 -18.5q-436 0 -580 225h-4q-109 -225 -559 -225q-120 0 -213.5 20t-151 51t-94.5 74.5
t-51 86t-14 89.5q0 134 93.5 214.5t295.5 80.5h567v14q0 103 -72 148t-241 45q-266 0 -266 -119q0 -8 2 -18h-344q-2 16 -2 36q0 154 150.5 242t473.5 88q346 0 500 -168h6q176 168 484 168q329 0 489 -133t160 -385zM2054 618v9q0 78 -70.5 127t-234.5 49q-148 0 -230 -45
t-108 -140h643zM1038 399v9h-456q-95 0 -135.5 -19t-40.5 -67q0 -51 62.5 -82t199.5 -31q171 0 270.5 59.5t99.5 130.5z" />
    <glyph glyph-name="Oslashacute" unicode="&#x1fe;" horiz-adv-x="1912" 
d="M1358 1759l-271 -303h-305l189 303h387zM1671 1122q170 -179 170 -442q0 -117 -31 -220.5t-100 -193t-170.5 -154t-250.5 -101t-333 -36.5q-356 0 -573 131l-135 -106l-113 139l105 82q-168 177 -168 459q0 114 33 215.5t103.5 189t173 151.5t249.5 100t325 36
q345 0 572 -135l139 111l113 -140zM485 678q0 -125 54 -219l704 555q-115 67 -287 67q-228 0 -349.5 -114.5t-121.5 -288.5zM956 266q236 0 353.5 114t117.5 298q0 118 -55 209l-704 -555q114 -66 288 -66z" />
    <glyph glyph-name="oslashacute" unicode="&#x1ff;" horiz-adv-x="1564" 
d="M1184 1423l-271 -303h-305l189 303h387zM1346 856q147 -138 147 -352q0 -85 -23.5 -160t-78 -142.5t-135 -116t-202 -77t-272.5 -28.5q-259 0 -432 81l-112 -90l-115 113l90 72q-141 135 -141 348q0 84 24 159.5t78.5 143.5t135 117.5t201.5 78.5t271 29q251 0 426 -82
l113 90l121 -108zM418 506q0 -92 43 -154l510 408q-79 31 -189 31q-98 0 -170.5 -23t-113.5 -63.5t-60.5 -90t-19.5 -108.5zM782 221q188 0 276.5 80t88.5 205q0 91 -45 156l-512 -410q88 -31 192 -31z" />
    <glyph glyph-name="uni0200" unicode="&#x200;" horiz-adv-x="2015" 
d="M952 1456h-266l-237 303h327zM1413 1456h-266l-238 303h328zM1518 0l-140 274h-792l-140 -274h-405l733 1348h467l733 -1348h-456zM700 504h562l-281 549h-2z" />
    <glyph glyph-name="uni0201" unicode="&#x201;" horiz-adv-x="1484" 
d="M422 1120l-238 303h328l176 -303h-266zM883 1120l-238 303h328l176 -303h-266zM565 -20q-108 0 -193 19.5t-138.5 51.5t-88.5 75t-49 86t-14 89q0 134 93.5 214.5t295.5 80.5h567v14q0 104 -70.5 148.5t-242.5 44.5q-266 0 -266 -119q0 -8 2 -18h-344q-2 18 -2 36
q0 154 150.5 242t473.5 88q327 0 495.5 -117.5t168.5 -339.5v-575h-365q11 192 11 225h-2q-33 -118 -144.5 -181.5t-337.5 -63.5zM668 209q171 0 270.5 59.5t99.5 130.5v9h-456q-95 0 -135.5 -19t-40.5 -67q0 -51 62.5 -82t199.5 -31z" />
    <glyph glyph-name="uni0202" unicode="&#x202;" horiz-adv-x="2015" 
d="M883 1487v-10h-291v10q0 38 12.5 77.5t43.5 81.5t77 74.5t119.5 53t163.5 20.5q91 0 164.5 -20.5t119 -53t76 -74.5t43 -81.5t12.5 -77.5v-10h-290v10q0 44 -28.5 77t-96.5 33t-96.5 -33t-28.5 -77zM1518 0l-140 274h-792l-140 -274h-405l733 1348h467l733 -1348h-456z
M700 504h562l-281 549h-2z" />
    <glyph glyph-name="uni0203" unicode="&#x203;" horiz-adv-x="1484" 
d="M328 1141v10q0 38 12.5 77.5t43.5 81.5t76.5 74.5t119 53t163.5 20.5q91 0 164.5 -20.5t119.5 -53t76.5 -74.5t43 -81.5t12.5 -77.5v-10h-291v10q0 44 -28.5 77.5t-96.5 33.5t-96.5 -33.5t-28.5 -77.5v-10h-290zM565 -20q-108 0 -193 19.5t-138.5 51.5t-88.5 75t-49 86
t-14 89q0 134 93.5 214.5t295.5 80.5h567v14q0 104 -70.5 148.5t-242.5 44.5q-266 0 -266 -119q0 -8 2 -18h-344q-2 18 -2 36q0 154 150.5 242t473.5 88q327 0 495.5 -117.5t168.5 -339.5v-575h-365q11 192 11 225h-2q-33 -118 -144.5 -181.5t-337.5 -63.5zM668 209
q171 0 270.5 59.5t99.5 130.5v9h-456q-95 0 -135.5 -19t-40.5 -67q0 -51 62.5 -82t199.5 -31z" />
    <glyph glyph-name="uni0204" unicode="&#x204;" horiz-adv-x="1482" 
d="M461 1456l-238 303h328l176 -303h-266zM922 1456l-238 303h328l176 -303h-266zM117 0v1348h1274v-291h-881v-264h676v-230h-676v-272h901v-291h-1294z" />
    <glyph glyph-name="uni0205" unicode="&#x205;" horiz-adv-x="1484" 
d="M709 1120h-267l-237 303h327zM1169 1120h-266l-237 303h327zM1413 514v-84h-973q15 -105 93.5 -163t250.5 -58q156 0 225 33t81 92h323q-3 -60 -26 -111.5t-71 -97t-119 -77t-176.5 -50t-236.5 -18.5q-115 0 -212 15.5t-169.5 42t-129 65t-94 83t-62 96.5t-35 104.5
t-10.5 109.5q0 250 181.5 393t510.5 143t489 -133t160 -385zM1090 618v9q0 78 -71 127t-235 49q-154 0 -232.5 -46t-102.5 -139h641z" />
    <glyph glyph-name="uni0206" unicode="&#x206;" horiz-adv-x="1482" 
d="M367 1477v10q0 38 12.5 77.5t43.5 81.5t76.5 74.5t119 53t163.5 20.5q91 0 164.5 -20.5t119.5 -53t76.5 -74.5t43 -81.5t12.5 -77.5v-10h-291v10q0 44 -28.5 77t-96.5 33t-96.5 -33t-28.5 -77v-10h-290zM117 0v1348h1274v-291h-881v-264h676v-230h-676v-272h901v-291
h-1294z" />
    <glyph glyph-name="uni0207" unicode="&#x207;" horiz-adv-x="1484" 
d="M639 1151v-10h-291v10q0 38 12.5 77.5t43.5 81.5t77 74.5t119.5 53t163.5 20.5q91 0 164.5 -20.5t119.5 -53t76.5 -74.5t43 -81.5t12.5 -77.5v-10h-291v10q0 44 -28.5 77.5t-96.5 33.5t-96.5 -33.5t-28.5 -77.5zM1413 514v-84h-973q15 -105 93.5 -163t250.5 -58
q156 0 225 33t81 92h323q-3 -60 -26 -111.5t-71 -97t-119 -77t-176.5 -50t-236.5 -18.5q-115 0 -212 15.5t-169.5 42t-129 65t-94 83t-62 96.5t-35 104.5t-10.5 109.5q0 250 181.5 393t510.5 143t489 -133t160 -385zM1090 618v9q0 78 -71 127t-235 49q-154 0 -232.5 -46
t-102.5 -139h641z" />
    <glyph glyph-name="uni0208" unicode="&#x208;" horiz-adv-x="647" 
d="M18 1456l-237 303h328l176 -303h-267zM479 1456l-237 303h327l176 -303h-266zM100 0v1348h394v-1348h-394z" />
    <glyph glyph-name="uni0209" unicode="&#x209;" horiz-adv-x="569" 
d="M-51 1120l-238 303h328l176 -303h-266zM410 1120l-238 303h328l176 -303h-266zM47 0v1012h365v-1012h-365z" />
    <glyph glyph-name="uni020A" unicode="&#x20a;" horiz-adv-x="647" 
d="M-90 1477v10q0 38 12.5 77.5t43.5 81.5t77 74.5t119.5 53t163.5 20.5q91 0 164.5 -20.5t119 -53t76 -74.5t43 -81.5t12.5 -77.5v-10h-290v10q0 44 -28.5 77t-96.5 33t-96.5 -33t-28.5 -77v-10h-291zM127 0v1348h393v-1348h-393z" />
    <glyph glyph-name="uni020B" unicode="&#x20b;" horiz-adv-x="569" 
d="M-131 1141v10q0 38 12.5 77.5t43.5 81.5t77 74.5t119.5 53t163.5 20.5q91 0 164.5 -20.5t119 -53t76 -74.5t43 -81.5t12.5 -77.5v-10h-290v10q0 44 -28.5 77.5t-96.5 33.5t-96.5 -33.5t-28.5 -77.5v-10h-291zM102 0v1012h365v-1012h-365z" />
    <glyph glyph-name="uni020C" unicode="&#x20c;" horiz-adv-x="1912" 
d="M635 1456l-238 303h328l176 -303h-266zM1096 1456l-238 303h328l176 -303h-266zM956 -25q-179 0 -325.5 34.5t-249.5 97.5t-173 151t-103 194t-33 228q0 114 33 215.5t103.5 189t173 151.5t249.5 100t325 36t325 -36t249.5 -100t173.5 -151.5t104 -189t33 -215.5
q0 -117 -31 -220.5t-100 -193t-170.5 -154t-250.5 -101t-333 -36.5zM956 266q236 0 353.5 114t117.5 298q0 174 -121.5 288.5t-349.5 114.5t-349.5 -114.5t-121.5 -288.5q0 -189 119 -300.5t352 -111.5z" />
    <glyph glyph-name="uni020D" unicode="&#x20d;" horiz-adv-x="1564" 
d="M461 1120l-238 303h328l176 -303h-266zM922 1120l-238 303h328l176 -303h-266zM782 -20q-152 0 -273.5 28.5t-202 77t-134 116t-77 142.5t-23.5 160q0 84 24 159.5t78.5 143.5t135 117.5t201.5 78.5t271 29t271 -29t202 -78.5t135.5 -117.5t78.5 -143.5t24 -159.5
q0 -85 -23.5 -160t-78 -142.5t-135 -116t-202 -77t-272.5 -28.5zM782 242q179 0 262.5 73t83.5 189q0 118 -83.5 192t-262.5 74q-180 0 -263 -74t-83 -192q0 -115 83 -188.5t263 -73.5z" />
    <glyph glyph-name="uni020E" unicode="&#x20e;" horiz-adv-x="1912" 
d="M541 1477v10q0 38 12.5 77.5t43.5 81.5t76.5 74.5t119 53t163.5 20.5q91 0 164.5 -20.5t119.5 -53t76.5 -74.5t43 -81.5t12.5 -77.5v-10h-291v10q0 44 -28.5 77t-96.5 33t-96.5 -33t-28.5 -77v-10h-290zM956 -25q-179 0 -325.5 34.5t-249.5 97.5t-173 151t-103 194
t-33 228q0 114 33 215.5t103.5 189t173 151.5t249.5 100t325 36t325 -36t249.5 -100t173.5 -151.5t104 -189t33 -215.5q0 -117 -31 -220.5t-100 -193t-170.5 -154t-250.5 -101t-333 -36.5zM956 266q236 0 353.5 114t117.5 298q0 174 -121.5 288.5t-349.5 114.5
t-349.5 -114.5t-121.5 -288.5q0 -189 119 -300.5t352 -111.5z" />
    <glyph glyph-name="uni020F" unicode="&#x20f;" horiz-adv-x="1564" 
d="M367 1141v10q0 38 12.5 77.5t43.5 81.5t76.5 74.5t119 53t163.5 20.5q91 0 164.5 -20.5t119.5 -53t76.5 -74.5t43 -81.5t12.5 -77.5v-10h-291v10q0 44 -28.5 77.5t-96.5 33.5t-96.5 -33.5t-28.5 -77.5v-10h-290zM782 -20q-152 0 -273.5 28.5t-202 77t-134 116t-77 142.5
t-23.5 160q0 84 24 159.5t78.5 143.5t135 117.5t201.5 78.5t271 29t271 -29t202 -78.5t135.5 -117.5t78.5 -143.5t24 -159.5q0 -85 -23.5 -160t-78 -142.5t-135 -116t-202 -77t-272.5 -28.5zM782 242q179 0 262.5 73t83.5 189q0 118 -83.5 192t-262.5 74q-180 0 -263 -74
t-83 -192q0 -115 83 -188.5t263 -73.5z" />
    <glyph glyph-name="uni0210" unicode="&#x210;" horiz-adv-x="1732" 
d="M547 1456l-238 303h328l176 -303h-266zM1008 1456l-238 303h328l176 -303h-266zM117 0v1348h848q183 0 312.5 -28t203.5 -82t106.5 -124.5t32.5 -165.5q0 -249 -244 -321v-4q62 -14 106.5 -41t69 -58.5t38.5 -75t18 -80t4 -85.5v-283h-393v283q0 107 -49.5 154.5
t-172.5 47.5h-487v-485h-393zM510 715h473q264 0 264 176q0 166 -299 166h-438v-342z" />
    <glyph glyph-name="uni0211" unicode="&#x211;" horiz-adv-x="1454" 
d="M406 1120l-238 303h328l176 -303h-266zM866 1120l-237 303h327l177 -303h-267zM92 0v1012h365l-6 -293h6q47 139 161.5 226t301.5 87q123 0 210.5 -32t137 -92.5t72 -137t22.5 -176.5q0 -111 -10 -209h-338q4 46 4 102q0 134 -50 198.5t-177 64.5q-84 0 -150 -30.5
t-105 -81.5t-59 -113t-20 -130v-395h-365z" />
    <glyph glyph-name="uni0212" unicode="&#x212;" horiz-adv-x="1732" 
d="M453 1477v10q0 38 12.5 77.5t43.5 81.5t76.5 74.5t119 53t163.5 20.5q91 0 164.5 -20.5t119.5 -53t76.5 -74.5t43 -81.5t12.5 -77.5v-10h-291v10q0 44 -28.5 77t-96.5 33t-96.5 -33t-28.5 -77v-10h-290zM117 0v1348h848q183 0 312.5 -28t203.5 -82t106.5 -124.5
t32.5 -165.5q0 -249 -244 -321v-4q62 -14 106.5 -41t69 -58.5t38.5 -75t18 -80t4 -85.5v-283h-393v283q0 107 -49.5 154.5t-172.5 47.5h-487v-485h-393zM510 715h473q264 0 264 176q0 166 -299 166h-438v-342z" />
    <glyph glyph-name="uni0213" unicode="&#x213;" horiz-adv-x="1454" 
d="M311 1141v10q0 38 12.5 77.5t43.5 81.5t77 74.5t119.5 53t163.5 20.5q91 0 164.5 -20.5t119.5 -53t76.5 -74.5t43 -81.5t12.5 -77.5v-10h-291v10q0 44 -28.5 77.5t-96.5 33.5t-96.5 -33.5t-28.5 -77.5v-10h-291zM92 0v1012h365l-6 -293h6q47 139 161.5 226t301.5 87
q123 0 210.5 -32t137 -92.5t72 -137t22.5 -176.5q0 -111 -10 -209h-338q4 46 4 102q0 134 -50 198.5t-177 64.5q-84 0 -150 -30.5t-105 -81.5t-59 -113t-20 -130v-395h-365z" />
    <glyph glyph-name="uni0214" unicode="&#x214;" horiz-adv-x="1794" 
d="M596 1456l-238 303h328l176 -303h-266zM1057 1456l-238 303h328l176 -303h-266zM899 -25q-378 0 -587.5 157.5t-209.5 469.5v746h394v-703q0 -187 108.5 -272.5t313.5 -85.5t313 85.5t108 272.5v703h353v-746q0 -313 -207 -470t-586 -157z" />
    <glyph glyph-name="uni0215" unicode="&#x215;" horiz-adv-x="1595" 
d="M477 1120l-237 303h327l176 -303h-266zM938 1120l-238 303h328l176 -303h-266zM598 -20q-133 0 -234.5 36.5t-161.5 99.5t-90 142t-30 170v584h364v-502q0 -126 70.5 -187t235.5 -61q163 0 275 90.5t112 243.5v416h364v-1012h-364q4 122 4 289h-4q-53 -156 -179 -232.5
t-362 -76.5z" />
    <glyph glyph-name="uni0216" unicode="&#x216;" horiz-adv-x="1794" 
d="M502 1477v10q0 38 12.5 77.5t43.5 81.5t77 74.5t119.5 53t163.5 20.5q91 0 164.5 -20.5t119 -53t76 -74.5t43 -81.5t12.5 -77.5v-10h-291v10q0 44 -28 77t-96 33t-96.5 -33t-28.5 -77v-10h-291zM899 -25q-378 0 -587.5 157.5t-209.5 469.5v746h394v-703
q0 -187 108.5 -272.5t313.5 -85.5t313 85.5t108 272.5v703h353v-746q0 -313 -207 -470t-586 -157z" />
    <glyph glyph-name="uni0217" unicode="&#x217;" horiz-adv-x="1595" 
d="M383 1141v10q0 38 12.5 77.5t43.5 81.5t77 74.5t119.5 53t163.5 20.5q91 0 164.5 -20.5t119 -53t76 -74.5t43 -81.5t12.5 -77.5v-10h-290v10q0 44 -28.5 77.5t-96.5 33.5t-96.5 -33.5t-28.5 -77.5v-10h-291zM598 -20q-133 0 -234.5 36.5t-161.5 99.5t-90 142t-30 170v584
h364v-502q0 -126 70.5 -187t235.5 -61q163 0 275 90.5t112 243.5v416h364v-1012h-364q4 122 4 289h-4q-53 -156 -179 -232.5t-362 -76.5z" />
    <glyph glyph-name="Scommaaccent" unicode="&#x218;" horiz-adv-x="1753" 
d="M862 -25q-145 0 -263 17.5t-196.5 45.5t-137.5 69t-91.5 82t-52.5 91t-25.5 89.5t-5.5 83.5h352q0 -46 19 -81.5t64 -65t129.5 -45t207.5 -15.5q129 0 214.5 12t128 36t58 51t15.5 65q0 80 -107 104q-72 15 -440 35q-348 20 -485 90q-76 40 -120 111.5t-44 167.5t47 177
t139.5 143.5t243.5 98t346 35.5q134 0 243 -13t186.5 -36t135.5 -57.5t93 -72.5t56.5 -87t29.5 -96t8 -103h-353q0 195 -399 195q-383 0 -383 -156q0 -73 86 -100q21 -7 55.5 -12t85.5 -9.5t89 -7t104.5 -6.5t93.5 -6q344 -21 479 -76q96 -40 149.5 -116t53.5 -173
q0 -71 -16.5 -131t-69 -124t-138 -108.5t-235.5 -73t-350 -28.5zM659 -735v172q96 0 140.5 37.5t44.5 119.5v9h-160v323h365v-225q0 -230 -98 -333t-292 -103z" />
    <glyph glyph-name="scommaaccent" unicode="&#x219;" horiz-adv-x="1425" 
d="M696 -20q-113 0 -205.5 12t-156 31.5t-112 48.5t-76.5 59t-45 67t-23 69.5t-6 68.5h344q1 -23 5.5 -39t21.5 -34t46 -29t81.5 -18t125.5 -7q117 0 184 13.5t88 34.5t21 54q0 56 -84 66q-35 4 -84.5 7t-116.5 5t-106 4q-311 12 -418 76q-108 64 -108 207
q0 163 162.5 259.5t461.5 96.5q141 0 247.5 -19t172 -51t106 -80t55.5 -98.5t15 -113.5h-344q-1 31 -10 52.5t-33.5 41t-74 29.5t-123.5 10q-271 0 -271 -105q0 -30 21 -46t75 -25q31 -4 75.5 -7t116 -6t118.5 -6q276 -15 372 -59q140 -64 140 -225q0 -344 -658 -344z
M492 -735v172q95 0 139.5 37.5t44.5 119.5v9h-160v323h365v-225q0 -230 -97.5 -333t-291.5 -103z" />
    <glyph glyph-name="uni0237" unicode="&#x237;" horiz-adv-x="567" 
d="M-39 -426q-125 0 -266 25v254q105 -17 182 -17q131 0 177 52.5t46 168.5v955h365v-971q0 -77 -13 -142t-48 -126.5t-90 -104t-145 -68.5t-208 -26z" />
    <glyph glyph-name="gravecomb" unicode="&#x300;" horiz-adv-x="0" 
d="M-522 1120l-271 303h387l189 -303h-305z" />
    <glyph glyph-name="acutecomb" unicode="&#x301;" horiz-adv-x="0" 
d="M-799 1120l189 303h387l-271 -303h-305z" />
    <glyph glyph-name="uni0302" unicode="&#x302;" horiz-adv-x="0" 
d="M-928 1081v238l393 170h5l393 -170v-238l-393 170h-5z" />
    <glyph glyph-name="tildecomb" unicode="&#x303;" horiz-adv-x="0" 
d="M-918 1141q8 88 36.5 152t69 97.5t82.5 48.5t87 15q85 0 192 -55l39 -21q54 -28 86 -28q68 0 76 104h250q-8 -89 -36.5 -153t-69.5 -97.5t-84 -48t-91 -14.5q-79 0 -186 55l-39 21q-52 28 -86 28q-67 0 -78 -104h-248z" />
    <glyph glyph-name="uni0304" unicode="&#x304;" horiz-adv-x="0" 
d="M-909 1186v217h753v-217h-753z" />
    <glyph glyph-name="uni0306" unicode="&#x306;" horiz-adv-x="0" 
d="M-532 1106q-91 0 -164.5 20.5t-119.5 53t-76.5 74.5t-43 81.5t-12.5 77.5v10h291v-10q0 -44 28.5 -77t96.5 -33t96 33t28 77v10h291v-10q0 -38 -12.5 -77.5t-43.5 -81.5t-76.5 -74.5t-119 -53t-163.5 -20.5z" />
    <glyph glyph-name="uni0307" unicode="&#x307;" horiz-adv-x="0" 
d="M-715 1141v262h365v-262h-365z" />
    <glyph glyph-name="uni0308" unicode="&#x308;" horiz-adv-x="0" 
d="M-965 1141v262h344v-262h-344zM-444 1141v262h344v-262h-344z" />
    <glyph glyph-name="uni030A" unicode="&#x30a;" horiz-adv-x="0" 
d="M-532 1083q-181 0 -282 74.5t-101 188.5q0 112 104 187t279 75q179 0 280.5 -74.5t101.5 -187.5q0 -114 -100.5 -188.5t-281.5 -74.5zM-532 1251q73 0 113 25t40 70q0 44 -40.5 69t-112.5 25q-71 0 -112.5 -25t-41.5 -69q0 -45 40.5 -70t113.5 -25z" />
    <glyph glyph-name="uni030B" unicode="&#x30b;" horiz-adv-x="0" 
d="M-1028 1120l174 303h328l-238 -303h-264zM-567 1120l174 303h327l-237 -303h-264z" />
    <glyph glyph-name="uni030C" unicode="&#x30c;" horiz-adv-x="0" 
d="M-766 1120l-242 303h349l124 -192h5l124 192h349l-242 -303h-467z" />
    <glyph glyph-name="uni030F" unicode="&#x30f;" horiz-adv-x="0" 
d="M-786 1120l-238 303h328l176 -303h-266zM-326 1120l-237 303h327l177 -303h-267z" />
    <glyph glyph-name="uni0311" unicode="&#x311;" horiz-adv-x="0" 
d="M-831 1141v10q0 38 12.5 77.5t43.5 81.5t76.5 74.5t119 53t163.5 20.5q91 0 164.5 -20.5t119.5 -53t76.5 -74.5t43 -81.5t12.5 -77.5v-10h-291v10q0 44 -28.5 77.5t-96.5 33.5t-96.5 -33.5t-28.5 -77.5v-10h-290z" />
    <glyph glyph-name="uni0312" unicode="&#x312;" horiz-adv-x="0" 
d="M-31 1782v-172q-95 0 -139.5 -38t-44.5 -120v-8h160v-324h-365v226q0 230 97.5 333t291.5 103z" />
    <glyph glyph-name="uni0326" unicode="&#x326;" horiz-adv-x="0" 
d="M-532 -735v172q95 0 139.5 37.5t44.5 119.5v9h-160v323h365v-225q0 -230 -97.5 -333t-291.5 -103z" />
    <glyph glyph-name="uni0327" unicode="&#x327;" horiz-adv-x="0" 
d="M-530 -446q-183 0 -283.5 55.5t-106.5 142.5h250q6 -27 36 -39t104 -12q59 0 96 17.5t37 48.5q0 25 -28.5 36t-104.5 11h-230l98 227h209l-61 -141l4 -2q49 34 141 34q105 0 163.5 -44t58.5 -121q0 -94 -97.5 -153.5t-285.5 -59.5z" />
    <glyph glyph-name="uni0328" unicode="&#x328;" horiz-adv-x="0" 
d="M-381 -451q-173 0 -251.5 60t-78.5 149q0 71 42 135.5t104 106.5h297q-77 -38 -118.5 -85t-41.5 -85q0 -72 111 -72q47 0 116 11v-199q-87 -21 -180 -21z" />
    <glyph glyph-name="pi" unicode="&#x3c0;" 
d="M1382 -20q-212 0 -313.5 102t-101.5 289v379h-346v-750h-365v750h-225v262h1577v-262h-277v-359q0 -78 37.5 -113.5t114.5 -35.5q68 0 108 12v-250q-89 -24 -209 -24z" />
    <glyph glyph-name="Wgrave" unicode="&#x1e80;" horiz-adv-x="2711" 
d="M1249 1456l-270 303h387l188 -303h-305zM582 0l-541 1348h426l358 -926h4l359 926h397l352 -926h5l342 926h387l-541 -1348h-432l-334 870h-4l-346 -870h-432z" />
    <glyph glyph-name="wgrave" unicode="&#x1e81;" horiz-adv-x="2220" 
d="M1004 1120l-271 303h387l189 -303h-305zM426 0l-385 1012h387l250 -693h2l270 693h361l268 -693h2l252 693h346l-385 -1012h-444l-242 657h-4l-244 -657h-434z" />
    <glyph glyph-name="Wacute" unicode="&#x1e82;" horiz-adv-x="2711" 
d="M1182 1456l188 303h387l-270 -303h-305zM582 0l-541 1348h426l358 -926h4l359 926h397l352 -926h5l342 926h387l-541 -1348h-432l-334 870h-4l-346 -870h-432z" />
    <glyph glyph-name="wacute" unicode="&#x1e83;" horiz-adv-x="2220" 
d="M936 1120l188 303h387l-270 -303h-305zM426 0l-385 1012h387l250 -693h2l270 693h361l268 -693h2l252 693h346l-385 -1012h-444l-242 657h-4l-244 -657h-434z" />
    <glyph glyph-name="Wdieresis" unicode="&#x1e84;" horiz-adv-x="2711" 
d="M924 1477v262h344v-262h-344zM1444 1477v262h344v-262h-344zM582 0l-541 1348h426l358 -926h4l359 926h397l352 -926h5l342 926h387l-541 -1348h-432l-334 870h-4l-346 -870h-432z" />
    <glyph glyph-name="wdieresis" unicode="&#x1e85;" horiz-adv-x="2220" 
d="M678 1141v262h344v-262h-344zM1198 1141v262h344v-262h-344zM426 0l-385 1012h387l250 -693h2l270 693h361l268 -693h2l252 693h346l-385 -1012h-444l-242 657h-4l-244 -657h-434z" />
    <glyph glyph-name="uni1E9E" unicode="&#x1e9e;" horiz-adv-x="1898" 
d="M1157 -25q-129 0 -379 25v238q160 -21 332 -21q95 0 160 14t100 41.5t49.5 61.5t14.5 80q0 63 -46 104t-162.5 64.5t-310.5 23.5l328 436q-112 39 -307 39q-229 0 -340 -93t-111 -283v-705h-393v709q0 327 217 495t635 168q233 0 444.5 -53t346.5 -131l-328 -426
q95 -9 168.5 -33.5t120.5 -58.5t77 -80.5t42 -96t12 -108.5q0 -410 -670 -410z" />
    <glyph glyph-name="Ygrave" unicode="&#x1ef2;" horiz-adv-x="1939" 
d="M864 1456l-270 303h387l188 -303h-305zM772 0v547l-731 801h524l436 -490h7l432 490h458l-733 -801v-547h-393z" />
    <glyph glyph-name="ygrave" unicode="&#x1ef3;" horiz-adv-x="1568" 
d="M678 1120l-270 303h387l188 -303h-305zM475 -446q-115 0 -237 30v252q77 -20 163 -20q100 0 159 37t112 147h-72l-559 1012h418l372 -684h5l335 684h357l-504 -1039q-115 -236 -233.5 -327.5t-315.5 -91.5z" />
    <glyph glyph-name="endash" unicode="&#x2013;" 
d="M102 475v209h1434v-209h-1434z" />
    <glyph glyph-name="emdash" unicode="&#x2014;" horiz-adv-x="2048" 
d="M102 475v209h1844v-209h-1844z" />
    <glyph glyph-name="quoteleft" unicode="&#x2018;" horiz-adv-x="585" 
d="M487 1376v-172q-95 0 -139.5 -37.5t-44.5 -119.5v-9h160v-323h-365v225q0 230 97.5 333t291.5 103z" />
    <glyph glyph-name="quoteright" unicode="&#x2019;" horiz-adv-x="585" 
d="M98 686v172q95 0 140 38t45 120v8h-160v324h364v-226q0 -230 -97.5 -333t-291.5 -103z" />
    <glyph glyph-name="quotesinglbase" unicode="&#x201a;" horiz-adv-x="585" 
d="M98 -338v172q95 0 140 38t45 120v8h-160v324h364v-226q0 -230 -97.5 -333t-291.5 -103z" />
    <glyph glyph-name="quotedblleft" unicode="&#x201c;" horiz-adv-x="1085" 
d="M487 1376v-172q-95 0 -139.5 -37.5t-44.5 -119.5v-9h160v-323h-365v225q0 230 97.5 333t291.5 103zM987 1376v-172q-95 0 -139.5 -37.5t-44.5 -119.5v-9h160v-323h-365v225q0 230 97.5 333t291.5 103z" />
    <glyph glyph-name="quotedblright" unicode="&#x201d;" horiz-adv-x="1085" 
d="M98 686v172q95 0 140 38t45 120v8h-160v324h364v-226q0 -230 -97.5 -333t-291.5 -103zM598 686v172q95 0 139.5 38t44.5 120v8h-159v324h364v-226q0 -230 -97.5 -333t-291.5 -103z" />
    <glyph glyph-name="quotedblbase" unicode="&#x201e;" horiz-adv-x="1085" 
d="M98 -338v172q95 0 140 38t45 120v8h-160v324h364v-226q0 -230 -97.5 -333t-291.5 -103zM598 -338v172q95 0 139.5 38t44.5 120v8h-159v324h364v-226q0 -230 -97.5 -333t-291.5 -103z" />
    <glyph glyph-name="dagger" unicode="&#x2020;" 
d="M690 -82l-49 565l31 299h-4l-236 -39h-211v269h211l225 -39h15v31l-29 247v125h352v-125l-28 -247v-31h14l225 39h211v-269h-211l-235 39h-4l30 -299l-49 -565h-258z" />
    <glyph glyph-name="daggerdbl" unicode="&#x2021;" 
d="M643 -82v125l29 188v31h-15l-225 -39h-211v269h211l236 -39h4l-31 194l31 195h-4l-236 -39h-211v268h211l225 -39h15v31l-29 188v125h352v-125l-28 -188v-31h14l225 39h211v-268h-211l-235 39h-4l30 -195l-30 -194h4l235 39h211v-269h-211l-225 39h-14v-31l28 -188v-125
h-352z" />
    <glyph glyph-name="bullet" unicode="&#x2022;" horiz-adv-x="909" 
d="M455 383q-112 0 -185 71t-73 179q0 107 73 178.5t185 71.5t185 -71.5t73 -178.5q0 -108 -73 -179t-185 -71z" />
    <glyph glyph-name="ellipsis" unicode="&#x2026;" horiz-adv-x="2052" 
d="M160 0v324h364v-324h-364zM844 0v324h364v-324h-364zM1528 0v324h364v-324h-364z" />
    <glyph glyph-name="perthousand" unicode="&#x2030;" horiz-adv-x="2543" 
d="M453 768q-179 0 -285.5 82t-106.5 219q0 122 108 210.5t284 88.5q175 0 283 -88.5t108 -210.5q0 -137 -106 -219t-285 -82zM68 0l1275 1348h228l-1276 -1348h-227zM453 944q78 0 119.5 33.5t41.5 91.5q0 56 -43.5 89.5t-117.5 33.5q-76 0 -119 -33.5t-43 -89.5
q0 -59 41 -92t121 -33zM1186 -20q-179 0 -285 82t-106 219q0 123 107.5 211t283.5 88q175 0 283 -88.5t108 -210.5q0 -137 -106 -219t-285 -82zM2091 -20q-179 0 -285 82t-106 219q0 123 107.5 211t283.5 88q175 0 283 -88.5t108 -210.5q0 -137 -106 -219t-285 -82z
M1186 156q78 0 120 33.5t42 91.5q0 56 -43.5 89t-118.5 33q-76 0 -119 -33t-43 -89q0 -59 41 -92t121 -33zM2091 156q78 0 120 33.5t42 91.5q0 56 -43.5 89t-118.5 33q-76 0 -119 -33t-43 -89q0 -59 41 -92t121 -33z" />
    <glyph glyph-name="guilsinglleft" unicode="&#x2039;" horiz-adv-x="983" 
d="M514 109l-367 464l367 465h309l-370 -465l370 -464h-309z" />
    <glyph glyph-name="guilsinglright" unicode="&#x203a;" horiz-adv-x="983" 
d="M160 109l370 464l-370 465h309l367 -465l-367 -464h-309z" />
    <glyph glyph-name="fraction" unicode="&#x2044;" horiz-adv-x="329" 
d="M-184 -111l-144 78l846 1487l139 -76z" />
    <glyph glyph-name="franc" unicode="&#x20a3;" 
d="M1403 985h-782v-207h639v-209h-639v-166h372v-147h-372v-176h-365v176h-205v147h205v865h1147v-283z" />
    <glyph glyph-name="peseta" unicode="&#x20a7;" 
d="M1618 805v-148h-150q-27 -189 -171.5 -282.5t-428.5 -93.5h-309v-201h-364v577h-175v148h175v463h614q145 0 259.5 -28.5t186.5 -74t120.5 -108t70 -123.5t27.5 -129h145zM559 985v-180h584q-40 180 -340 180h-244zM819 489q143 0 222 41t102 127h-584v-168h260z" />
    <glyph glyph-name="uni20AA" unicode="&#x20aa;" 
d="M113 80v1012h768q130 0 186.5 -57.5t56.5 -170.5v-477h-209v412q0 64 -31 94.5t-104 30.5h-458v-844h-209zM514 80v704h209v-536h457q74 0 105.5 28.5t31.5 92.5v723h209v-760q0 -252 -238 -252h-774z" />
    <glyph glyph-name="Euro" unicode="&#x20ac;" 
d="M670 489q44 -80 147 -119.5t283 -39.5q84 0 179 15t157 40v-268q-73 -27 -191 -42.5t-219 -15.5q-314 0 -511 113t-255 317h-223l65 148h138v16q0 40 2 58h-195l62 147h167q74 197 287.5 313.5t552.5 116.5q244 0 412 -63l-111 -248q-57 18 -147 29.5t-170 11.5
q-316 0 -416 -160h686l-63 -147h-672q-2 -16 -2 -47v-27h641l-64 -148h-540z" />
    <glyph glyph-name="lira.turk" unicode="&#x20ba;" 
d="M1499 686q2 -23 2 -49q0 -274 -187 -415.5t-581 -141.5h-428v493l-246 -55v156l246 55v94l-246 -55v156l246 55v289h365v-207l405 90v-156l-405 -90v-94l405 90v-156l-405 -90v-293h90q225 0 321.5 63.5t96.5 219.5q0 16 -2 41h323z" />
    <glyph glyph-name="uni20BD" unicode="&#x20bd;" 
d="M975 504h-385v-86h641v-148h-641v-190h-365v190h-153v148h153v86h-153v147h153v617h617q174 0 302 -30.5t203.5 -87t111.5 -129.5t36 -165q0 -78 -23.5 -137.5t-79.5 -110t-161 -77.5t-256 -27zM590 985v-334h325q138 0 197 40t59 114q0 88 -71 134t-230 46h-280z" />
    <glyph glyph-name="uni2113" unicode="&#x2113;" 
d="M823 336q77 -74 230 -74q161 0 278 45v-274q-45 -20 -132.5 -36.5t-188.5 -16.5q-407 0 -559 258q-171 -24 -318 -27v229q129 9 240 27q-15 85 -15 182v254q0 108 14.5 194t50.5 161t93 125.5t145.5 79t204.5 28.5q240 0 363 -124t123 -351q0 -224 -136 -400t-393 -280z
M723 649q0 -26 4 -80q301 144 301 447q0 89 -37.5 140.5t-113.5 51.5q-41 0 -69.5 -14t-45 -36t-25.5 -61.5t-11.5 -78.5t-2.5 -98v-271z" />
    <glyph glyph-name="uni2116" unicode="&#x2116;" horiz-adv-x="2940" 
d="M117 0v1348h549l718 -811h2v811h381v-1348h-389l-878 991h-2v-991h-381zM2413 614q-122 0 -213.5 25.5t-144 70.5t-78 99.5t-25.5 118.5t26 119t78.5 100.5t144 71.5t212.5 26t212 -26t144 -71.5t78.5 -100.5t25.5 -119t-25.5 -118.5t-78 -99.5t-143.5 -70.5t-213 -25.5z
M2413 784q99 0 145.5 40.5t46.5 103.5q0 66 -46.5 106.5t-145.5 40.5q-101 0 -147 -40.5t-46 -106.5q0 -63 46.5 -103.5t146.5 -40.5zM1956 311v189h911v-189h-911z" />
    <glyph glyph-name="trademark" unicode="&#x2122;" horiz-adv-x="1925" 
d="M373 651v586h-281v111h690v-111h-282v-586h-127zM922 651v697h206l191 -392h4l190 392h207v-697h-127v568l-14 2l-238 -484h-41l-237 484l-14 -2v-568h-127z" />
    <glyph glyph-name="uni2126" unicode="&#x2126;" horiz-adv-x="1871" 
d="M72 0v291h456v8q-63 15 -119.5 38t-114.5 63t-99.5 91t-68 125t-26.5 162q0 85 30 167.5t96.5 160t161.5 136.5t236.5 94.5t311.5 35.5t311.5 -35.5t236.5 -94.5t161.5 -136.5t96.5 -160t30 -167.5q0 -88 -26.5 -162t-68 -125t-99.5 -91t-115 -63t-120 -38v-8h457v-291
h-749v307q53 15 104.5 45.5t100.5 78t79.5 119t30.5 155.5q0 77 -25.5 143t-76.5 119t-135.5 83.5t-192.5 30.5t-192.5 -30.5t-135.5 -83.5t-76.5 -119t-25.5 -143q0 -84 30.5 -155.5t80 -119t101 -78t103.5 -45.5v-307h-749z" />
    <glyph glyph-name="estimated" unicode="&#x212e;" horiz-adv-x="1751" 
d="M877 -29q-213 0 -393.5 93.5t-286 255.5t-105.5 354q0 143 62.5 273t167.5 224t250.5 149.5t304.5 55.5t304 -55.5t249.5 -149.5t166.5 -224t62 -273v-45h-1268q-10 0 -10 -8v-314q0 -26 16 -45q91 -97 216.5 -151t265.5 -54q133 0 251.5 49t210.5 138h156
q-107 -127 -270 -200t-350 -73zM391 715h973q10 0 10 10v322q0 27 -20 47q-93 93 -216 144.5t-259 51.5q-139 0 -262.5 -53t-217.5 -150q-18 -22 -18 -49v-313q0 -10 10 -10z" />
    <glyph glyph-name="uni2153" unicode="&#x2153;" horiz-adv-x="2146" 
d="M526 -111l-143 78l846 1487l139 -76zM279 541v463h-230v155l141 4q86 3 118.5 40.5t39.5 144.5h219v-807h-288zM1575 -12q-109 0 -193.5 16.5t-134.5 43t-82 63t-43.5 72.5t-11.5 77q0 34 8 66h248q-4 -16 -4 -29q0 -117 211 -117q215 0 215 99q0 57 -123 57h-158v135
h129q67 0 97 16.5t30 53.5q0 38 -46 62t-138 24q-195 0 -195 -111q0 -17 2 -31h-237q-10 33 -10 70q0 49 21.5 93t70.5 84t142 63.5t222 23.5q215 0 320.5 -62.5t105.5 -164.5q0 -116 -137 -150v-4q96 -14 144.5 -62.5t48.5 -117.5q0 -60 -27 -107.5t-85 -85t-156.5 -57.5
t-233.5 -20z" />
    <glyph glyph-name="uni2154" unicode="&#x2154;" horiz-adv-x="2547" 
d="M928 -111l-144 78l846 1487l139 -76zM63 541q0 89 9.5 139t45 96.5t101 78.5t180.5 67q159 48 205.5 76t46.5 79q0 42 -37 68t-106 26q-91 0 -138.5 -34.5t-47.5 -100.5q0 -27 4 -51h-246q-6 27 -6 74q0 131 110.5 216t333.5 85q114 0 199 -23t132.5 -63t70 -87
t22.5 -100q0 -98 -81.5 -159.5t-287.5 -120.5q-76 -20 -112 -34t-41.5 -20.5t-5.5 -17.5h557v-194h-908zM1976 -12q-109 0 -193.5 16.5t-134.5 43t-82 63t-43.5 72.5t-11.5 77q0 30 9 66h247q-4 -16 -4 -29q0 -117 211 -117q215 0 215 99q0 57 -123 57h-157v135h129
q67 0 97 16.5t30 53.5q0 38 -46.5 62t-138.5 24q-194 0 -194 -111q0 -17 2 -31h-238q-10 33 -10 70q0 39 12.5 74.5t45 70.5t82.5 61t131.5 42t185.5 16q215 0 320.5 -62.5t105.5 -164.5q0 -116 -137 -150v-4q96 -14 144 -62.5t48 -117.5q0 -60 -27 -107.5t-85 -85
t-156.5 -57.5t-233.5 -20z" />
    <glyph glyph-name="oneeighth" unicode="&#x215b;" horiz-adv-x="2146" 
d="M526 -111l-143 78l846 1487l139 -76zM279 541v463h-230v155l141 4q86 3 118.5 40.5t39.5 144.5h219v-807h-288zM1593 -12q-134 0 -231.5 19.5t-151 54.5t-78 77t-24.5 92q0 157 213 193v2q-158 33 -158 164q0 36 12.5 68t43 62t78.5 51.5t123.5 34.5t172.5 13t172.5 -13
t123.5 -34.5t78.5 -51.5t43 -62t12.5 -68q0 -131 -157 -164v-2q213 -36 213 -193q0 -50 -24.5 -92t-78.5 -77t-151.5 -54.5t-231.5 -19.5zM1593 477q179 0 179 82q0 40 -45 64t-134 24t-133.5 -24t-44.5 -64q0 -82 178 -82zM1593 156q98 0 148.5 27t50.5 69q0 86 -199 86
q-198 0 -198 -86q0 -42 50 -69t148 -27z" />
    <glyph glyph-name="threeeighths" unicode="&#x215c;" horiz-adv-x="2541" 
d="M922 -111l-144 78l846 1487l139 -76zM535 528q-109 0 -193.5 16.5t-134.5 43t-82 63.5t-43.5 73t-11.5 77q0 33 8 65h248q-4 -16 -4 -28q0 -117 210 -117q216 0 216 98q0 58 -123 58h-158v135h129q68 0 97.5 16t29.5 53q0 38 -46 62t-138 24q-195 0 -195 -110
q0 -17 2 -31h-237q-11 37 -11 70q0 39 12.5 74.5t45 70.5t82.5 61t131.5 42t185.5 16q215 0 320.5 -62.5t105.5 -164.5q0 -116 -137 -150v-4q96 -14 144 -62.5t48 -117.5q0 -125 -119.5 -198t-381.5 -73zM1989 -12q-134 0 -231.5 19.5t-151.5 54.5t-78.5 77t-24.5 92
q0 157 213 193v2q-157 33 -157 164q0 36 12.5 68t43 62t78.5 51.5t123.5 34.5t172.5 13t172.5 -13t123.5 -34.5t78.5 -51.5t43 -62t12.5 -68q0 -131 -158 -164v-2q213 -36 213 -193q0 -50 -24.5 -92t-78 -77t-151 -54.5t-231.5 -19.5zM1989 477q178 0 178 82q0 40 -44.5 64
t-133.5 24t-134 -24t-45 -64q0 -82 179 -82zM1989 156q98 0 148 27t50 69q0 86 -198 86q-199 0 -199 -86q0 -42 50.5 -69t148.5 -27z" />
    <glyph glyph-name="fiveeighths" unicode="&#x215d;" horiz-adv-x="2508" 
d="M889 -111l-144 78l846 1487l140 -76zM547 528q-99 0 -176.5 9.5t-128 27.5t-85.5 40t-53 50.5t-25 54.5t-7 56q0 15 2 29h258v-9q0 -36 46.5 -54.5t156.5 -18.5q94 0 133 26t39 74q0 94 -183 94q-139 0 -176 -53l-258 20l45 474h785v-195h-553l-21 -201h4q54 99 293 99
q188 0 271 -67t83 -179q0 -60 -23 -108t-73.5 -87t-140.5 -60.5t-213 -21.5zM1956 -12q-134 0 -231.5 19.5t-151.5 54.5t-78.5 77t-24.5 92q0 157 213 193v2q-157 33 -157 164q0 36 12.5 68t43 62t78.5 51.5t123.5 34.5t172.5 13t172.5 -13t123.5 -34.5t78.5 -51.5t43 -62
t12.5 -68q0 -131 -158 -164v-2q213 -36 213 -193q0 -50 -24.5 -92t-78 -77t-151 -54.5t-231.5 -19.5zM1956 477q178 0 178 82q0 40 -44.5 64t-133.5 24t-133.5 -24t-44.5 -64q0 -82 178 -82zM1956 156q98 0 148 27t50 69q0 86 -198 86q-199 0 -199 -86q0 -42 50.5 -69
t148.5 -27z" />
    <glyph glyph-name="seveneighths" unicode="&#x215e;" horiz-adv-x="2301" 
d="M682 -111l-143 78l845 1487l140 -76zM209 541q67 388 483 596v2h-637v209h934v-197q-196 -109 -298.5 -260.5t-131.5 -349.5h-350zM1749 -12q-134 0 -231.5 19.5t-151 54.5t-78 77t-24.5 92q0 157 213 193v2q-158 33 -158 164q0 36 12.5 68t43 62t78.5 51.5t123.5 34.5
t172.5 13t172.5 -13t123.5 -34.5t78.5 -51.5t43 -62t12.5 -68q0 -131 -158 -164v-2q213 -36 213 -193q0 -50 -24.5 -92t-78 -77t-151 -54.5t-231.5 -19.5zM1749 477q178 0 178 82q0 40 -44.5 64t-133.5 24t-133.5 -24t-44.5 -64q0 -82 178 -82zM1749 156q98 0 148.5 27
t50.5 69q0 86 -199 86t-199 -86q0 -42 50.5 -69t148.5 -27z" />
    <glyph glyph-name="partialdiff" unicode="&#x2202;" 
d="M489 1454q164 -13 305 -48.5t245.5 -86t188.5 -116.5t140 -138t93 -153t53 -159.5t16 -158.5q0 -96 -25 -183.5t-81 -166.5t-137.5 -137.5t-201.5 -92.5t-266 -34t-266.5 30t-201.5 80t-136.5 118t-80.5 142t-25 154q0 162 84.5 283t227 183t320.5 62q181 0 318 -102
q-95 141 -279 232t-465 149zM1165 537q0 37 -2 53q-27 79 -126.5 129.5t-233.5 50.5q-154 0 -242 -71t-88 -193q0 -111 86.5 -187.5t259.5 -76.5q88 0 156.5 24t108.5 65.5t60.5 93.5t20.5 112z" />
    <glyph glyph-name="uni2206" unicode="&#x2206;" horiz-adv-x="1990" 
d="M53 0l729 1348h424l731 -1348h-1884zM602 291h705l-351 678h-4z" />
    <glyph glyph-name="product" unicode="&#x220f;" horiz-adv-x="1892" 
d="M307 -229v1286h-246v291h1770v-291h-246v-1286h-393v1286h-492v-1286h-393z" />
    <glyph glyph-name="summation" unicode="&#x2211;" 
d="M100 -229v268l594 516v2l-594 524v267h1438v-291h-864v-4l534 -471v-4l-594 -515v-2h924v-290h-1438z" />
    <glyph glyph-name="minus" unicode="&#x2212;" 
d="M168 475v209h1302v-209h-1302z" />
    <glyph glyph-name="radical" unicode="&#x221a;" 
d="M727 -201l-293 731h-352v220h567l230 -617h4l438 1403h283l-551 -1737h-326z" />
    <glyph glyph-name="infinity" unicode="&#x221e;" 
d="M436 98q-169 0 -261.5 125t-92.5 365q0 237 92.5 363t261.5 126q97 0 176.5 -58.5t135.5 -148.5l67 -100h4l70 100q133 207 311 207q170 0 263 -126t93 -363q0 -240 -92.5 -365t-263.5 -125q-172 0 -315 209l-66 96h-4l-65 -96q-146 -209 -314 -209zM444 340
q28 0 55 18.5t43.5 39t39.5 55.5l90 135l-90 137q-22 33 -38.5 53.5t-44 39t-55.5 18.5q-61 0 -97 -64.5t-36 -183.5q0 -120 36 -184t97 -64zM1192 340q63 0 99 63.5t36 184.5q0 119 -36 183.5t-99 64.5q-41 0 -73.5 -30t-65.5 -81l-88 -137l88 -135q18 -26 29.5 -41.5
t30 -34.5t38 -28t41.5 -9z" />
    <glyph glyph-name="integral" unicode="&#x222b;" 
d="M485 -492q-163 0 -311 33v174q147 -28 266 -28q148 0 221.5 53t73.5 190q0 105 -26 283l-86 614q-29 201 -29 308q0 197 148.5 309t410.5 112q164 0 311 -26v-174q-139 22 -268 22q-295 0 -295 -243q0 -93 27 -291l86 -615q28 -204 28 -299q0 -197 -148 -309.5
t-409 -112.5z" />
    <glyph glyph-name="approxequal" unicode="&#x2248;" 
d="M1124 582q-65 0 -145.5 32t-146.5 70t-156 70t-172 32q-107 0 -211 -44.5t-166 -98.5v211q62 54 166 97.5t211 43.5q68 0 139 -21t131 -51t117.5 -60t118.5 -51t114 -21q74 0 155 26.5t125.5 50.5t94.5 56q4 3 6.5 4.5t5.5 3.5v-211q-38 -24 -51 -31.5t-62.5 -33.5
t-84 -38t-87.5 -24t-102 -12zM1124 188q-54 0 -115.5 21t-119 51t-117 60.5t-130.5 51.5t-138 21q-107 0 -211 -44.5t-166 -98.5v209q62 54 166 97.5t211 43.5q68 0 139 -21t131 -51t117.5 -60.5t118.5 -51.5t114 -21q161 0 373 134q10 5 14 8v-209q-119 -74 -196 -103
q-100 -37 -191 -37z" />
    <glyph glyph-name="notequal" unicode="&#x2260;" 
d="M508 41l98 225h-438v209h528l82 189h-610v208h702l107 246h145l-108 -246h456v-208h-546l-84 -189h630v-209h-720l-99 -225h-143z" />
    <glyph glyph-name="lessequal" unicode="&#x2264;" 
d="M1382 348l-1126 354v175l1126 356v-248l-735 -192v-5l735 -192v-248zM256 61v209h1126v-209h-1126z" />
    <glyph glyph-name="greaterequal" unicode="&#x2265;" 
d="M256 348v248l735 192v5l-735 192v248l1126 -356v-175zM256 61v209h1126v-209h-1126z" />
    <glyph glyph-name="lozenge" unicode="&#x25ca;" 
d="M680 -111l-569 660l569 659h276l572 -659l-572 -660h-276zM815 139h6l340 410l-340 409h-6l-338 -409z" />
    <glyph glyph-name="dollar.ss06" 
d="M1546 477q0 -63 -18 -117.5t-64 -108.5t-118 -93t-188.5 -65.5t-266.5 -31.5v-211h-127v209q-121 2 -219 17t-166 37.5t-119 55t-80.5 66.5t-47.5 75.5t-24 78t-6 78.5h353q1 -28 6.5 -47t24 -40.5t50.5 -35t89.5 -23.5t138.5 -12v234q-8 0 -24 1t-23 1q-345 21 -477 92
q-138 74 -138 248q0 73 36 140t111 125.5t207.5 95.5t307.5 42v209h127v-211q146 -5 255.5 -28.5t177 -60t109 -90t57 -110.5t15.5 -129h-331q-1 57 -22 90t-83.5 53.5t-177.5 24.5v-233q5 0 16.5 -1t16.5 -1q332 -23 428 -58q194 -67 194 -266zM539 836q52 -14 225 -25v227
q-113 -4 -179.5 -23t-88 -44.5t-21.5 -61.5q0 -57 64 -73zM891 311q87 3 145 13.5t87 29.5t40 39.5t11 50.5q0 27 -19 46.5t-63 25.5q-78 10 -201 19v-224z" />
    <glyph glyph-name="uni00A40301" horiz-adv-x="1576" 
d="M1063 1456l188 303h387l-270 -303h-305zM772 -25q-334 0 -502 146t-168 414q0 79 9 184h348q-4 -63 -4 -172q0 -129 76.5 -205t232.5 -76q144 0 230.5 86.5t86.5 255.5v740h394v-721q0 -323 -183 -487.5t-520 -164.5z" />
    <glyph glyph-name="uni006A0301" horiz-adv-x="567" 
d="M111 1120l188 303h387l-270 -303h-305zM-39 -426q-125 0 -266 25v254q105 -17 182 -17q131 0 177 52.5t46 168.5v955h365v-971q0 -77 -13 -142t-48 -126.5t-90 -104t-145 -68.5t-208 -26z" />
    <glyph glyph-name="germandbls.calt" horiz-adv-x="1898" 
d="M1157 -25q-129 0 -379 25v238q160 -21 332 -21q95 0 160 14t100 41.5t49.5 61.5t14.5 80q0 63 -46 104t-162.5 64.5t-310.5 23.5l328 436q-112 39 -307 39q-229 0 -340 -93t-111 -283v-705h-393v709q0 327 217 495t635 168q233 0 444.5 -53t346.5 -131l-328 -426
q95 -9 168.5 -33.5t120.5 -58.5t77 -80.5t42 -96t12 -108.5q0 -410 -670 -410z" />
    <glyph glyph-name="r.ss01" horiz-adv-x="1198" 
d="M1126 709q-110 28 -223 28q-121 0 -209 -37t-139 -105.5t-74.5 -155t-23.5 -195.5v-244h-365v1012h365l-6 -373h6q49 202 155 297.5t312 95.5q113 0 202 -26v-297z" />
    <glyph glyph-name="racute.ss01" horiz-adv-x="1198" 
d="M453 1120l188 303h387l-270 -303h-305zM1126 709q-110 28 -223 28q-121 0 -209 -37t-139 -105.5t-74.5 -155t-23.5 -195.5v-244h-365v1012h365l-6 -373h6q49 202 155 297.5t312 95.5q113 0 202 -26v-297z" />
    <glyph glyph-name="rcaron.ss01" horiz-adv-x="1198" 
d="M393 1120l-241 303h348l125 -192h4l125 192h348l-242 -303h-467zM1126 709q-110 28 -223 28q-121 0 -209 -37t-139 -105.5t-74.5 -155t-23.5 -195.5v-244h-365v1012h365l-6 -373h6q49 202 155 297.5t312 95.5q113 0 202 -26v-297z" />
    <glyph glyph-name="rcommaaccent.ss01" horiz-adv-x="1198" 
d="M1126 709q-110 28 -223 28q-121 0 -209 -37t-139 -105.5t-74.5 -155t-23.5 -195.5v-244h-365v1012h365l-6 -373h6q49 202 155 297.5t312 95.5q113 0 202 -26v-297zM82 -735v172q95 0 139.5 37.5t44.5 119.5v9h-160v323h365v-225q0 -230 -97.5 -333t-291.5 -103z" />
    <glyph glyph-name="uni0211.ss01" horiz-adv-x="1198" 
d="M305 1120l-237 303h327l176 -303h-266zM766 1120l-238 303h328l176 -303h-266zM1126 709q-110 28 -223 28q-121 0 -209 -37t-139 -105.5t-74.5 -155t-23.5 -195.5v-244h-365v1012h365l-6 -373h6q49 202 155 297.5t312 95.5q113 0 202 -26v-297z" />
    <glyph glyph-name="uni0213.ss01" horiz-adv-x="1198" 
d="M211 1141v10q0 38 12.5 77.5t43.5 81.5t77 74.5t119.5 53t163.5 20.5q91 0 164.5 -20.5t119 -53t76 -74.5t43 -81.5t12.5 -77.5v-10h-290v10q0 44 -28.5 77.5t-96.5 33.5t-96.5 -33.5t-28.5 -77.5v-10h-291zM1126 709q-110 28 -223 28q-121 0 -209 -37t-139 -105.5
t-74.5 -155t-23.5 -195.5v-244h-365v1012h365l-6 -373h6q49 202 155 297.5t312 95.5q113 0 202 -26v-297z" />
    <glyph glyph-name="g.ss02" horiz-adv-x="1609" 
d="M72 518q0 108 42.5 201.5t121.5 163t199 109.5t267 40q354 0 445 -198h2v178h364v-914q0 -111 -35.5 -201t-100 -153.5t-156.5 -106.5t-203 -63t-242 -20q-163 0 -289.5 27t-202 73.5t-113.5 105t-38 125.5q0 23 4 43h322q-2 -10 -2 -20q0 -22 14.5 -41t47.5 -36
t96 -26.5t151 -9.5q196 0 289.5 60.5t93.5 193.5v162h-4q-46 -110 -155 -170.5t-308 -60.5q-152 0 -270 41t-191.5 114.5t-111 170t-37.5 212.5zM436 516q0 -127 91 -200.5t251 -73.5q85 0 157.5 25t118 64.5t70.5 86t25 92.5v25q0 99 -95 167t-270 68q-165 0 -256.5 -70.5
t-91.5 -183.5z" />
    <glyph glyph-name="gbreve.ss02" horiz-adv-x="1609" 
d="M772 1106q-91 0 -164.5 20.5t-119.5 53t-76.5 74.5t-43 81.5t-12.5 77.5v10h291v-10q0 -44 28.5 -77t96.5 -33t96.5 33t28.5 77v10h291v-10q0 -38 -12.5 -77.5t-43.5 -81.5t-77 -74.5t-119.5 -53t-163.5 -20.5zM72 518q0 108 42.5 201.5t121.5 163t199 109.5t267 40
q354 0 445 -198h2v178h364v-914q0 -111 -35.5 -201t-100 -153.5t-156.5 -106.5t-203 -63t-242 -20q-163 0 -289.5 27t-202 73.5t-113.5 105t-38 125.5q0 23 4 43h322q-2 -10 -2 -20q0 -22 14.5 -41t47.5 -36t96 -26.5t151 -9.5q196 0 289.5 60.5t93.5 193.5v162h-4
q-46 -110 -155 -170.5t-308 -60.5q-152 0 -270 41t-191.5 114.5t-111 170t-37.5 212.5zM436 516q0 -127 91 -200.5t251 -73.5q85 0 157.5 25t118 64.5t70.5 86t25 92.5v25q0 99 -95 167t-270 68q-165 0 -256.5 -70.5t-91.5 -183.5z" />
    <glyph glyph-name="gcircumflex.ss02" horiz-adv-x="1609" 
d="M377 1081v238l393 170h4l393 -170v-238l-393 170h-4zM72 518q0 108 42.5 201.5t121.5 163t199 109.5t267 40q354 0 445 -198h2v178h364v-914q0 -111 -35.5 -201t-100 -153.5t-156.5 -106.5t-203 -63t-242 -20q-163 0 -289.5 27t-202 73.5t-113.5 105t-38 125.5q0 23 4 43
h322q-2 -10 -2 -20q0 -22 14.5 -41t47.5 -36t96 -26.5t151 -9.5q196 0 289.5 60.5t93.5 193.5v162h-4q-46 -110 -155 -170.5t-308 -60.5q-152 0 -270 41t-191.5 114.5t-111 170t-37.5 212.5zM436 516q0 -127 91 -200.5t251 -73.5q85 0 157.5 25t118 64.5t70.5 86t25 92.5v25
q0 99 -95 167t-270 68q-165 0 -256.5 -70.5t-91.5 -183.5z" />
    <glyph glyph-name="gcommaaccent.ss02" horiz-adv-x="1609" 
d="M971 1782v-172q-95 0 -140 -38t-45 -120v-8h160v-324h-364v226q0 230 97.5 333t291.5 103zM72 518q0 108 42.5 201.5t121.5 163t199 109.5t267 40q354 0 445 -198h2v178h364v-914q0 -111 -35.5 -201t-100 -153.5t-156.5 -106.5t-203 -63t-242 -20q-163 0 -289.5 27
t-202 73.5t-113.5 105t-38 125.5q0 23 4 43h322q-2 -10 -2 -20q0 -22 14.5 -41t47.5 -36t96 -26.5t151 -9.5q196 0 289.5 60.5t93.5 193.5v162h-4q-46 -110 -155 -170.5t-308 -60.5q-152 0 -270 41t-191.5 114.5t-111 170t-37.5 212.5zM436 516q0 -127 91 -200.5t251 -73.5
q85 0 157.5 25t118 64.5t70.5 86t25 92.5v25q0 99 -95 167t-270 68q-165 0 -256.5 -70.5t-91.5 -183.5z" />
    <glyph glyph-name="gdotaccent.ss02" horiz-adv-x="1609" 
d="M590 1141v262h364v-262h-364zM72 518q0 108 42.5 201.5t121.5 163t199 109.5t267 40q354 0 445 -198h2v178h364v-914q0 -111 -35.5 -201t-100 -153.5t-156.5 -106.5t-203 -63t-242 -20q-163 0 -289.5 27t-202 73.5t-113.5 105t-38 125.5q0 23 4 43h322q-2 -10 -2 -20
q0 -22 14.5 -41t47.5 -36t96 -26.5t151 -9.5q196 0 289.5 60.5t93.5 193.5v162h-4q-46 -110 -155 -170.5t-308 -60.5q-152 0 -270 41t-191.5 114.5t-111 170t-37.5 212.5zM436 516q0 -127 91 -200.5t251 -73.5q85 0 157.5 25t118 64.5t70.5 86t25 92.5v25q0 99 -95 167
t-270 68q-165 0 -256.5 -70.5t-91.5 -183.5z" />
    <glyph glyph-name="g.ss03" horiz-adv-x="1566" 
d="M1081 197q100 0 177 -15.5t125 -41.5t78.5 -62.5t42.5 -74t12 -81.5q0 -61 -23.5 -114t-77.5 -100.5t-136 -81t-206 -53t-280 -19.5q-170 0 -301.5 16.5t-211 42.5t-130.5 63t-70 73.5t-19 78.5q0 76 61 124t183 52v2q-123 59 -123 178q0 71 44.5 126.5t123.5 68.5v4
q-219 86 -219 295q0 73 35 135.5t105.5 112t188.5 78t271 28.5q107 0 193 -12q282 -16 366 -16q91 0 172 6v-213q-18 -2 -47 -2q-45 0 -112 16l-3 -2q31 -60 31 -131q0 -158 -151 -256t-449 -98q-133 0 -235 18q-23 -32 -23 -70q0 -33 29.5 -54t91.5 -21h487zM731 823
q-128 0 -192 -40.5t-64 -104.5q0 -69 64 -107.5t192 -38.5q127 0 191.5 40t64.5 106q0 68 -65 106.5t-191 38.5zM793 -246q177 0 267.5 32t90.5 87q0 40 -40.5 61t-147.5 21h-359q-178 0 -178 -86q0 -53 91.5 -84t275.5 -31z" />
    <glyph glyph-name="g.ss04" horiz-adv-x="1566" 
d="M1081 197q100 0 177 -15.5t125 -41.5t78.5 -62.5t42.5 -74t12 -81.5q0 -61 -23.5 -114t-77.5 -100.5t-136 -81t-206 -53t-280 -19.5q-170 0 -301.5 16.5t-211 42.5t-130.5 63t-70 73.5t-19 78.5q0 76 61 124t183 52v2q-123 59 -123 178q0 71 44.5 126.5t123.5 68.5v4
q-219 86 -219 295q0 73 35 135.5t105.5 112t188.5 78t271 28.5q220 0 365 -55q54 -12 84 -12q53 0 85.5 31.5t32.5 86.5q0 39 -12 74h248q14 -40 14 -100q0 -93 -51 -146t-141 -53q-24 0 -54.5 7t-41.5 12l-3 -3q74 -83 74 -196q0 -158 -151 -256t-449 -98q-133 0 -235 18
q-23 -32 -23 -70q0 -33 29.5 -54t91.5 -21h487zM731 823q-128 0 -192 -40.5t-64 -104.5q0 -69 64 -107.5t192 -38.5q127 0 191.5 40t64.5 106q0 68 -65 106.5t-191 38.5zM793 -246q177 0 267.5 32t90.5 87q0 40 -40.5 61t-147.5 21h-359q-178 0 -178 -86q0 -53 91.5 -84
t275.5 -31z" />
    <glyph glyph-name="t_t" horiz-adv-x="2232" 
d="M2154 750h-520v-349q0 -89 60.5 -124t216.5 -35q123 0 233 20v-252q-99 -30 -293 -30q-163 0 -278.5 30.5t-180 87.5t-93.5 129t-29 166v357h-699v-349q0 -89 60.5 -124t216.5 -35q123 0 233 20v-252q-99 -30 -293 -30q-163 0 -278.5 30.5t-180 87.5t-93.5 129t-29 166
v357h-187v262h156q38 0 55 20t23 68l18 141h299v-229h668q38 0 55 20t23 68l18 141h299v-229h520v-262z" />
    <glyph glyph-name="zero.lf" 
d="M817 -20q-191 0 -336.5 54t-233.5 150t-131.5 221t-43.5 275q0 318 190.5 503t554.5 185q184 0 327.5 -49.5t235.5 -140.5t139.5 -216.5t47.5 -281.5q0 -119 -27 -223t-86 -192.5t-145.5 -151t-212 -98t-279.5 -35.5zM817 270q179 0 268 107t89 301q0 192 -92 295.5
t-265 103.5q-171 0 -261.5 -103t-90.5 -296q0 -194 87.5 -301t264.5 -107z" />
    <glyph glyph-name="one.lf" horiz-adv-x="972" 
d="M395 0v791h-375v233l236 12q90 4 135.5 30t68 90.5t27.5 191.5h301v-1348h-393z" />
    <glyph glyph-name="two.lf" horiz-adv-x="1617" 
d="M113 0q0 63 2.5 109.5t9 94.5t19.5 83.5t33 72.5t49.5 65.5t68.5 57.5t91.5 54.5t117.5 50.5t147 51q116 36 179.5 58t119 46.5t78.5 47t35 49.5t12 65q0 75 -66.5 123.5t-191.5 48.5q-162 0 -249 -62.5t-87 -183.5q0 -41 8 -81h-350q-10 45 -10 116q0 104 41 193
t122.5 159t216 110t308.5 40q142 0 256 -27t186.5 -71t120.5 -104t68 -122.5t20 -130.5q0 -113 -54.5 -193t-184.5 -148t-365 -138q-108 -32 -171 -54t-89.5 -38.5t-31.5 -25t-5 -25.5h946v-291h-1400z" />
    <glyph glyph-name="three.lf" 
d="M793 -20q-140 0 -254 19t-191 53t-132.5 77t-86 95.5t-44 103.5t-13.5 106q0 63 12 103h354q-4 -28 -4 -52q0 -98 86 -156.5t279 -58.5q375 0 375 185q0 104 -220 104h-268v229h217q118 0 171.5 31t53.5 99q0 71 -80.5 115t-238.5 44q-93 0 -160.5 -16t-106 -45t-56 -65
t-17.5 -81q0 -29 4 -53h-340q-16 48 -16 111q0 62 18.5 119.5t68.5 117t126.5 103.5t203.5 72t289 28q167 0 295.5 -29.5t206.5 -82t117 -120t39 -147.5q0 -94 -54.5 -159.5t-162.5 -92.5v-6q151 -25 227 -105.5t76 -195.5q0 -79 -26 -145.5t-84.5 -123.5t-147 -96.5
t-219.5 -62t-297 -22.5z" />
    <glyph glyph-name="four.lf" 
d="M967 0v244h-906v299l908 805h391v-813h248v-291h-248v-244h-393zM461 535h506v446h-2l-504 -444v-2z" />
    <glyph glyph-name="five.lf" horiz-adv-x="1613" 
d="M848 -20q-181 0 -316 24.5t-212.5 61.5t-125 91.5t-62.5 105t-15 110.5q0 21 4 45h368v-15q0 -65 83 -99t276 -34q164 0 232.5 48t68.5 139q0 174 -330 174q-248 0 -309 -103l-369 31l70 789h1208v-291h-882l-35 -371l4 -2q81 176 469 176q156 0 269 -32.5t176.5 -91.5
t92.5 -131t29 -161q0 -78 -21.5 -144.5t-73 -126.5t-129.5 -102t-198 -66.5t-272 -24.5z" />
    <glyph glyph-name="six.lf" 
d="M842 -20q-133 0 -242.5 19t-188 52.5t-138.5 83t-98 106t-61.5 127t-32.5 139.5t-9 150q0 127 29 235t90 196.5t151.5 150.5t217 95.5t282.5 33.5q145 0 260 -24.5t189 -66t123.5 -98.5t70 -119t20.5 -132q0 -25 -4 -49h-350q2 12 2 30q0 74 -71 121t-228 47
q-389 0 -389 -420q0 -16 1 -36t1 -23h4q59 201 504 201q134 0 237.5 -20t169.5 -53.5t108.5 -81.5t59.5 -100.5t17 -113.5q0 -75 -21 -139t-73 -122.5t-133 -99.5t-207.5 -65t-290.5 -24zM842 270q175 0 253.5 44.5t78.5 115.5q0 139 -332 139q-99 0 -172 -15t-110 -38.5
t-54 -47.5t-17 -48q0 -16 6.5 -33t29 -39t58.5 -38.5t103.5 -28t155.5 -11.5z" />
    <glyph glyph-name="seven.lf" horiz-adv-x="1454" 
d="M297 0q142 712 719 1034v2h-985v312h1392v-293q-152 -93 -267 -212t-189.5 -257t-120 -278.5t-74.5 -307.5h-475z" />
    <glyph glyph-name="eight.lf" 
d="M819 -20q-165 0 -295 22t-214 59.5t-139 90t-78 110t-23 123.5q0 55 16.5 102t53.5 92.5t108 78t170 47.5v4q-141 31 -201.5 102.5t-60.5 177.5q0 59 19.5 111t67 102.5t121 86t190.5 57.5t265 22t264.5 -22t190 -58t122 -85.5t68 -102t19.5 -111.5q0 -106 -60.5 -177.5
t-201.5 -102.5v-4q99 -15 170 -47.5t108 -78t53.5 -92.5t16.5 -102q0 -66 -23 -123.5t-78 -110t-139.5 -90t-214.5 -59.5t-295 -22zM819 797q320 0 320 143q0 70 -80.5 114t-239.5 44t-239 -44t-80 -114q0 -143 319 -143zM819 250q179 0 268 46.5t89 121.5q0 149 -357 149
q-356 0 -356 -149q0 -75 88.5 -121.5t267.5 -46.5z" />
    <glyph glyph-name="nine.lf" 
d="M788 -20q-147 0 -263 21.5t-191.5 59t-125 91t-70.5 114t-21 131.5q0 28 4 52h350q-2 -18 -2 -39q0 -140 319 -140q386 0 386 418q0 18 -1.5 41t-1.5 25h-4q-50 -238 -497 -238q-140 0 -247 22t-172.5 57t-106.5 86t-56.5 103t-15.5 113q0 73 23.5 139.5t79 128t138 106
t208 71t282.5 26.5q128 0 233.5 -18.5t184 -51.5t138.5 -81.5t99 -105.5t64 -127t35 -142t10 -154q0 -708 -779 -708zM786 745q176 0 267.5 50.5t91.5 130.5q0 6 -2.5 15.5t-11.5 24.5t-23 29.5t-40 29.5t-60 26t-86 18.5t-115 7.5q-95 0 -164 -14.5t-106.5 -40.5
t-54.5 -55.5t-17 -63.5q0 -158 321 -158z" />
    <glyph glyph-name="one.lf.ss05" horiz-adv-x="761" 
d="M184 0v1151q76 26 116.5 71.5t49.5 125.5h228v-1348h-394z" />
    <glyph glyph-name="zero.subs" horiz-adv-x="1146" 
d="M573 -258q-124 0 -218 32t-150.5 90t-84.5 132.5t-28 165.5q0 190 122 300.5t359 110.5q238 0 362 -110.5t124 -300.5q0 -91 -28.5 -165.5t-86 -132.5t-152 -90t-219.5 -32zM573 -63q197 0 197 223q0 107 -50.5 163t-146.5 56q-94 0 -143 -56t-49 -163q0 -108 48 -165.5
t144 -57.5z" />
    <glyph glyph-name="one.subs" horiz-adv-x="669" 
d="M279 -246v463h-230v156l141 4q87 3 119 40t39 144h219v-807h-288z" />
    <glyph glyph-name="two.subs" horiz-adv-x="1050" 
d="M63 -246q0 89 9.5 139t45 96.5t101 78.5t180.5 67q159 47 205.5 76t46.5 80q0 42 -37 68t-106 26q-91 0 -138.5 -34.5t-47.5 -100.5q0 -27 4 -51h-246q-6 27 -6 73q0 131 110.5 216t333.5 85q92 0 165.5 -15.5t121 -41.5t79 -61.5t45 -73.5t13.5 -80q0 -98 -81.5 -160
t-287.5 -121q-76 -21 -112 -34t-41.5 -19.5t-5.5 -17.5h557v-195h-908z" />
    <glyph glyph-name="three.subs" horiz-adv-x="1105" 
d="M535 -258q-109 0 -193.5 16.5t-134.5 43t-82 63t-43.5 72.5t-11.5 77q0 34 8 66h248q-4 -16 -4 -29q0 -117 210 -117q216 0 216 99q0 57 -123 57h-158v135h129q67 0 97 16.5t30 53.5q0 38 -46 62t-138 24q-195 0 -195 -111q0 -16 2 -30h-237q-11 37 -11 69
q0 39 12.5 74.5t45 70.5t82.5 61t131.5 42t185.5 16q215 0 320.5 -62.5t105.5 -164.5q0 -115 -137 -149v-4q96 -14 144 -63t48 -118q0 -60 -27 -107.5t-84.5 -85t-156 -57.5t-233.5 -20z" />
    <glyph glyph-name="four.subs" horiz-adv-x="1105" 
d="M608 -246v137h-555v201l559 469h285v-473h150v-197h-150v-137h-289zM313 88h295v238h-2l-293 -236v-2z" />
    <glyph glyph-name="five.subs" horiz-adv-x="1073" 
d="M547 -258q-99 0 -176.5 9.5t-128 27.5t-85.5 40t-53 50.5t-25 54.5t-7 56q0 14 2 28h258v-8q0 -74 203 -74q94 0 133 26.5t39 74.5q0 94 -183 94q-139 0 -176 -53l-258 20l45 473h785v-194h-553l-21 -201h4q53 98 293 98q188 0 271 -67t83 -179q0 -60 -23 -108
t-73.5 -86.5t-140.5 -60t-213 -21.5z" />
    <glyph glyph-name="six.subs" horiz-adv-x="1105" 
d="M569 -258q-120 0 -210 22t-144 58t-87 90t-44.5 109.5t-11.5 125.5q0 199 123 312.5t374 113.5q95 0 170 -15t123 -39.5t79.5 -59.5t44.5 -72.5t13 -79.5q0 -15 -2 -31h-254q2 10 2 21q0 41 -39.5 66.5t-125.5 25.5q-114 0 -167 -60.5t-53 -178.5v-31h5q40 114 307 114
q366 0 366 -221q0 -270 -469 -270zM569 -78q97 0 141 25t44 65q0 80 -185 80q-104 0 -150 -26t-46 -60q0 -13 7 -25.5t25.5 -27t60.5 -23t103 -8.5z" />
    <glyph glyph-name="seven.subs" horiz-adv-x="1030" 
d="M209 -246q67 388 483 596v2h-637v209h934v-196q-196 -109 -298.5 -261t-131.5 -350h-350z" />
    <glyph glyph-name="eight.subs" horiz-adv-x="1105" 
d="M553 -258q-134 0 -231.5 20t-151 55t-78 77t-24.5 92q0 156 213 192v2q-158 33 -158 164q0 36 12.5 68t43 62t78.5 51.5t123.5 34.5t172.5 13t172.5 -13t123.5 -34.5t78.5 -51.5t43 -62t12.5 -68q0 -131 -158 -164v-2q213 -36 213 -192q0 -50 -24.5 -92t-78 -77t-151 -55
t-231.5 -20zM553 231q178 0 178 82q0 40 -44.5 64t-133.5 24t-133.5 -24t-44.5 -64q0 -82 178 -82zM553 -90q98 0 148.5 27t50.5 69q0 86 -199 86t-199 -86q0 -42 50.5 -69t148.5 -27z" />
    <glyph glyph-name="nine.subs" horiz-adv-x="1105" 
d="M535 -258q-230 0 -332.5 68t-102.5 184q0 17 2 33h256v-19q0 -84 177 -84q108 0 161.5 58t53.5 180q0 21 -2 35h-3q-33 -134 -305 -134q-108 0 -183 18t-114 51.5t-55 71t-16 85.5q0 56 25.5 105t79 90t148.5 65t222 24q140 0 239 -31t152.5 -89t76.5 -127.5t23 -159.5
q0 -208 -120.5 -316t-382.5 -108zM535 205q98 0 149 27.5t51 72.5q0 7 -3 15.5t-15 21.5t-31 23.5t-55.5 18t-83.5 7.5q-102 0 -146.5 -27t-44.5 -69q0 -90 179 -90z" />
    <glyph glyph-name="zero.dnom" horiz-adv-x="1146" 
d="M573 -12q-124 0 -218 32t-150.5 90t-84.5 132.5t-28 165.5q0 190 122 300.5t359 110.5q238 0 362 -110.5t124 -300.5q0 -91 -28.5 -165.5t-86 -132.5t-152 -90t-219.5 -32zM573 182q99 0 148 58t49 166q0 107 -50.5 163t-146.5 56q-94 0 -143 -56t-49 -163
q0 -108 48 -166t144 -58z" />
    <glyph glyph-name="one.dnom" horiz-adv-x="669" 
d="M279 0v463h-230v155l141 5q87 3 119 40t39 144h219v-807h-288z" />
    <glyph glyph-name="two.dnom" horiz-adv-x="1050" 
d="M63 0q0 89 9.5 139t45 96.5t101 78.5t180.5 67q159 47 205.5 76t46.5 80q0 42 -37 68t-106 26q-91 0 -138.5 -34.5t-47.5 -100.5q0 -28 4 -52h-246q-6 27 -6 74q0 131 110.5 216t333.5 85q92 0 165.5 -15.5t121 -41.5t79 -61.5t45 -73.5t13.5 -80q0 -98 -81.5 -160
t-287.5 -121q-76 -21 -112 -34t-41.5 -19.5t-5.5 -17.5h557v-195h-908z" />
    <glyph glyph-name="three.dnom" horiz-adv-x="1105" 
d="M535 -12q-109 0 -193.5 16.5t-134.5 43t-82 63t-43.5 72.5t-11.5 77q0 34 8 66h248q-4 -16 -4 -29q0 -117 210 -117q216 0 216 99q0 57 -123 57h-158v135h129q67 0 97 16.5t30 53.5q0 38 -46 62t-138 24q-195 0 -195 -111q0 -17 2 -31h-237q-11 37 -11 70q0 39 12.5 74.5
t45 70.5t82.5 61t131.5 42t185.5 16q215 0 320.5 -62.5t105.5 -164.5q0 -116 -137 -150v-4q96 -14 144 -62.5t48 -117.5q0 -60 -27 -107.5t-84.5 -85t-156 -57.5t-233.5 -20z" />
    <glyph glyph-name="four.dnom" horiz-adv-x="1105" 
d="M608 0v137h-555v201l559 469h285v-473h150v-197h-150v-137h-289zM313 334h295v237h-2l-293 -235v-2z" />
    <glyph glyph-name="five.dnom" horiz-adv-x="1073" 
d="M547 -12q-118 0 -206 14.5t-138 36.5t-80.5 55t-40.5 63.5t-10 67.5q0 15 2 29h258v-8q0 -74 203 -74q94 0 133 26t39 74q0 95 -183 95q-138 0 -176 -54l-258 21l45 473h785v-195h-553l-21 -200h4q53 98 293 98q188 0 271 -67t83 -179q0 -60 -23 -108t-73.5 -86.5
t-140.5 -60t-213 -21.5z" />
    <glyph glyph-name="six.dnom" horiz-adv-x="1105" 
d="M569 -12q-120 0 -210 22t-144 58t-87 90t-44.5 109.5t-11.5 125.5q0 199 123 312.5t374 113.5q95 0 170 -15t123 -39.5t79.5 -59.5t44.5 -72.5t13 -79.5q0 -15 -2 -31h-254q2 10 2 21q0 41 -39.5 66.5t-125.5 25.5q-114 0 -167 -60.5t-53 -179.5v-30h5q40 114 307 114
q366 0 366 -221q0 -270 -469 -270zM569 168q97 0 141 25t44 65q0 80 -185 80q-104 0 -150 -26t-46 -60q0 -13 7 -25.5t25.5 -27t60.5 -23t103 -8.5z" />
    <glyph glyph-name="seven.dnom" horiz-adv-x="1030" 
d="M209 0q67 388 483 596v2h-637v209h934v-197q-196 -109 -298.5 -260.5t-131.5 -349.5h-350z" />
    <glyph glyph-name="eight.dnom" horiz-adv-x="1105" 
d="M553 -12q-134 0 -231.5 19.5t-151 54.5t-78 77t-24.5 92q0 157 213 193v2q-158 33 -158 164q0 36 12.5 68t43 62t78.5 51.5t123.5 34.5t172.5 13t172.5 -13t123.5 -34.5t78.5 -51.5t43 -62t12.5 -68q0 -131 -158 -164v-2q213 -36 213 -193q0 -50 -24.5 -92t-78 -77
t-151 -54.5t-231.5 -19.5zM553 477q178 0 178 82q0 40 -44.5 64t-133.5 24t-133.5 -24t-44.5 -64q0 -82 178 -82zM553 156q98 0 148.5 27t50.5 69q0 86 -199 86t-199 -86q0 -42 50.5 -69t148.5 -27z" />
    <glyph glyph-name="nine.dnom" horiz-adv-x="1105" 
d="M535 -12q-230 0 -332.5 68t-102.5 184q0 16 2 32h256v-18q0 -84 177 -84q108 0 161.5 58t53.5 180q0 20 -2 34h-3q-33 -133 -305 -133q-108 0 -183 18t-114 51.5t-55 71t-16 85.5q0 56 25.5 105t79 90t148.5 65t222 24q140 0 239 -31t152.5 -89t76.5 -127.5t23 -159.5
q0 -208 -120.5 -316t-382.5 -108zM535 451q98 0 149 27.5t51 72.5q0 7 -3 15.5t-15 21.5t-31 23.5t-55.5 18t-83.5 7.5q-102 0 -146.5 -27t-44.5 -69q0 -90 179 -90z" />
    <glyph glyph-name="zero.numr" horiz-adv-x="1146" 
d="M573 528q-124 0 -218 32t-150.5 90t-84.5 132.5t-28 165.5q0 190 122.5 301t358.5 111q238 0 362 -111t124 -301q0 -91 -28.5 -165.5t-86 -132.5t-152 -90t-219.5 -32zM573 723q197 0 197 223q0 107 -50.5 163t-146.5 56q-94 0 -143 -56t-49 -163q0 -108 48 -165.5
t144 -57.5z" />
    <glyph glyph-name="one.numr" horiz-adv-x="669" 
d="M279 541v463h-230v155l141 4q86 3 118.5 40.5t39.5 144.5h219v-807h-288z" />
    <glyph glyph-name="two.numr" horiz-adv-x="1050" 
d="M63 541q0 89 9.5 139t45 96.5t101 78.5t180.5 67q159 48 205.5 76t46.5 79q0 42 -37 68t-106 26q-91 0 -138.5 -34.5t-47.5 -100.5q0 -27 4 -51h-246q-6 27 -6 74q0 131 110.5 216t333.5 85q114 0 199 -23t132.5 -63t70 -87t22.5 -100q0 -98 -81.5 -159.5t-287.5 -120.5
q-76 -20 -112 -34t-41.5 -20.5t-5.5 -17.5h557v-194h-908z" />
    <glyph glyph-name="three.numr" horiz-adv-x="1105" 
d="M535 528q-109 0 -193.5 16.5t-134.5 43t-82 63.5t-43.5 73t-11.5 77q0 33 8 65h248q-4 -16 -4 -28q0 -117 210 -117q216 0 216 98q0 58 -123 58h-158v135h129q68 0 97.5 16t29.5 53q0 38 -46 62t-138 24q-195 0 -195 -110q0 -17 2 -31h-237q-11 37 -11 70q0 39 12.5 74.5
t45 70.5t82.5 61t131.5 42t185.5 16q215 0 320.5 -62.5t105.5 -164.5q0 -116 -137 -150v-4q96 -14 144 -62.5t48 -117.5q0 -125 -119.5 -198t-381.5 -73z" />
    <glyph glyph-name="four.numr" horiz-adv-x="1105" 
d="M608 541v137h-555v201l559 469h285v-474h150v-196h-150v-137h-289zM313 874h295v238h-2l-293 -235v-3z" />
    <glyph glyph-name="five.numr" horiz-adv-x="1073" 
d="M547 528q-99 0 -176.5 9.5t-128 27.5t-85.5 40t-53 50.5t-25 54.5t-7 56q0 15 2 29h258v-9q0 -36 46.5 -54.5t156.5 -18.5q94 0 133 26t39 74q0 94 -183 94q-139 0 -176 -53l-258 20l45 474h785v-195h-553l-21 -201h4q54 99 293 99q188 0 271 -67t83 -179q0 -60 -23 -108
t-73.5 -87t-140.5 -60.5t-213 -21.5z" />
    <glyph glyph-name="six.numr" horiz-adv-x="1105" 
d="M569 528q-120 0 -210 22t-144 58.5t-87 90.5t-44.5 109.5t-11.5 125.5q0 199 123 312.5t374 113.5q95 0 170 -15t123 -39.5t79.5 -59.5t44.5 -72.5t13 -79.5q0 -15 -2 -31h-254q2 10 2 20q0 41 -39.5 67t-125.5 26q-114 0 -167 -60.5t-53 -179.5v-31h5q40 115 307 115
q366 0 366 -221q0 -271 -469 -271zM569 709q97 0 141 25t44 65q0 80 -185 80q-104 0 -150 -26t-46 -60q0 -13 7 -25.5t25.5 -27t60.5 -23t103 -8.5z" />
    <glyph glyph-name="seven.numr" horiz-adv-x="1030" 
d="M209 541q67 388 483 596v2h-637v209h934v-197q-196 -109 -298.5 -260.5t-131.5 -349.5h-350z" />
    <glyph glyph-name="eight.numr" horiz-adv-x="1105" 
d="M553 528q-134 0 -231.5 20t-151 55t-78 77t-24.5 92q0 157 213 193v2q-158 33 -158 163q0 46 21 85t68 72.5t134 53t207 19.5t207 -19.5t134 -53t68 -72.5t21 -85q0 -130 -158 -163v-2q213 -36 213 -193q0 -50 -24.5 -92t-78 -77t-151 -55t-231.5 -20zM553 1018
q178 0 178 82q0 40 -44.5 64t-133.5 24t-133.5 -24t-44.5 -64q0 -82 178 -82zM553 696q98 0 148.5 27.5t50.5 69.5q0 86 -199 86t-199 -86q0 -42 50.5 -69.5t148.5 -27.5z" />
    <glyph glyph-name="nine.numr" horiz-adv-x="1105" 
d="M535 528q-230 0 -332.5 68t-102.5 184q0 17 2 33h256v-18q0 -84 177 -84q108 0 161.5 57.5t53.5 179.5q0 21 -2 35h-3q-33 -133 -305 -133q-108 0 -183 18t-114 51t-55 70.5t-16 85.5q0 56 25.5 105t79 90.5t148.5 65.5t222 24q113 0 199.5 -21t141 -57t89 -89.5
t48 -111.5t13.5 -129q0 -208 -120.5 -316t-382.5 -108zM535 991q97 0 148.5 28t51.5 73q0 7 -3 15.5t-15 21.5t-31 23.5t-55.5 18t-83.5 7.5q-102 0 -146.5 -27.5t-44.5 -69.5q0 -90 179 -90z" />
    <glyph glyph-name="zero.sups" horiz-adv-x="1146" 
d="M573 614q-124 0 -218 32t-150.5 90t-84.5 132.5t-28 165.5q0 190 122.5 301t358.5 111q238 0 362 -111t124 -301q0 -91 -28.5 -165.5t-86 -132.5t-152 -90t-219.5 -32zM573 809q197 0 197 223q0 107 -50.5 163t-146.5 56q-94 0 -143 -56t-49 -163q0 -108 48 -165.5
t144 -57.5z" />
    <glyph glyph-name="one.sups" horiz-adv-x="669" 
d="M279 627v463h-230v155l141 4q86 3 118.5 40.5t39.5 144.5h219v-807h-288z" />
    <glyph glyph-name="two.sups" horiz-adv-x="1050" 
d="M63 627q0 89 9.5 139t45 96.5t101 78.5t180.5 67q159 48 205.5 76t46.5 79q0 42 -37 68t-106 26q-91 0 -138.5 -34.5t-47.5 -100.5q0 -27 4 -51h-246q-6 27 -6 74q0 131 110.5 216t333.5 85q92 0 165.5 -15.5t121 -41.5t79 -61.5t45 -73.5t13.5 -80q0 -98 -81.5 -160
t-287.5 -121q-76 -20 -112 -34t-41.5 -20.5t-5.5 -17.5h557v-194h-908z" />
    <glyph glyph-name="three.sups" horiz-adv-x="1105" 
d="M535 614q-109 0 -193.5 16.5t-134.5 43t-82 63.5t-43.5 73t-11.5 77q0 33 8 65h248q-4 -16 -4 -28q0 -117 210 -117q216 0 216 98q0 58 -123 58h-158v135h129q68 0 97.5 16t29.5 53q0 38 -46 62t-138 24q-195 0 -195 -110q0 -17 2 -31h-237q-11 37 -11 70q0 39 12.5 74.5
t45 70.5t82.5 61t131.5 42t185.5 16q215 0 320.5 -62.5t105.5 -164.5q0 -116 -137 -150v-4q96 -14 144 -62.5t48 -117.5q0 -125 -119.5 -198t-381.5 -73z" />
    <glyph glyph-name="four.sups" horiz-adv-x="1105" 
d="M608 627v137h-555v201l559 469h285v-473h150v-197h-150v-137h-289zM313 961h295v237h-2l-293 -235v-2z" />
    <glyph glyph-name="five.sups" horiz-adv-x="1073" 
d="M547 614q-99 0 -176.5 9.5t-128 27.5t-85.5 40t-53 50.5t-25 54.5t-7 56q0 15 2 29h258v-9q0 -36 46.5 -54.5t156.5 -18.5q94 0 133 26t39 74q0 94 -183 94q-139 0 -176 -53l-258 21l45 473h785v-195h-553l-21 -201h4q54 99 293 99q188 0 271 -67t83 -179q0 -60 -23 -108
t-73.5 -87t-140.5 -60.5t-213 -21.5z" />
    <glyph glyph-name="six.sups" horiz-adv-x="1105" 
d="M569 614q-120 0 -210 22t-144 58.5t-87 90.5t-44.5 109.5t-11.5 125.5q0 199 123 312.5t374 113.5q95 0 170 -15t123 -39.5t79.5 -59.5t44.5 -72.5t13 -79.5q0 -15 -2 -31h-254q2 10 2 20q0 41 -39.5 67t-125.5 26q-114 0 -167 -60.5t-53 -179.5v-31h5q40 115 307 115
q366 0 366 -221q0 -271 -469 -271zM569 795q97 0 141 25t44 65q0 80 -185 80q-104 0 -150 -26t-46 -60q0 -13 7 -25.5t25.5 -27t60.5 -23t103 -8.5z" />
    <glyph glyph-name="seven.sups" horiz-adv-x="1030" 
d="M209 627q67 388 483 596v2h-637v209h934v-197q-196 -109 -298.5 -260.5t-131.5 -349.5h-350z" />
    <glyph glyph-name="eight.sups" horiz-adv-x="1105" 
d="M553 614q-134 0 -231.5 20t-151 55t-78 77t-24.5 92q0 157 213 193v2q-158 33 -158 164q0 36 12.5 68t43 62t78.5 51.5t123.5 34.5t172.5 13t172.5 -13t123.5 -34.5t78.5 -51.5t43 -62t12.5 -68q0 -131 -158 -164v-2q213 -36 213 -193q0 -50 -24.5 -92t-78 -77t-151 -55
t-231.5 -20zM553 1104q178 0 178 82q0 40 -44.5 64t-133.5 24t-133.5 -24t-44.5 -64q0 -82 178 -82zM553 782q98 0 148.5 27.5t50.5 69.5q0 86 -199 86t-199 -86q0 -42 50.5 -69.5t148.5 -27.5z" />
    <glyph glyph-name="nine.sups" horiz-adv-x="1105" 
d="M535 614q-230 0 -332.5 68t-102.5 184q0 17 2 33h256v-18q0 -84 177 -84q108 0 161.5 57.5t53.5 179.5q0 21 -2 35h-3q-33 -133 -305 -133q-108 0 -183 18t-114 51t-55 70.5t-16 85.5q0 56 25.5 105t79 90.5t148.5 65.5t222 24q113 0 199.5 -21t141 -57t89 -89.5
t48 -111.5t13.5 -129q0 -208 -120.5 -316t-382.5 -108zM535 1077q97 0 148.5 28t51.5 73q0 7 -3 15.5t-15 21.5t-31 23.5t-55.5 18t-83.5 7.5q-102 0 -146.5 -27.5t-44.5 -69.5q0 -90 179 -90z" />
    <glyph glyph-name="periodcentered.loclCAT.case" horiz-adv-x="20" 
d="M-530 631v323h364v-323h-364z" />
    <glyph glyph-name="periodcentered.loclCAT" horiz-adv-x="344" 
d="M0 467v324h344v-324h-344z" />
    <glyph glyph-name="comma.dnom" horiz-adv-x="520" 
d="M129 -203v103q61 0 89 23t28 73v4h-103v195h236v-136q0 -137 -63 -199.5t-187 -62.5z" />
    <glyph glyph-name="period.dnom" horiz-adv-x="520" 
d="M143 0v195h234v-195h-234z" />
    <glyph glyph-name="comma.numr" horiz-adv-x="520" 
d="M129 338v102q61 0 89 23.5t28 73.5v4h-103v194h236v-135q0 -137 -63 -199.5t-187 -62.5z" />
    <glyph glyph-name="period.numr" horiz-adv-x="520" 
d="M143 541v194h234v-194h-234z" />
    <glyph glyph-name="comma.subs" horiz-adv-x="520" 
d="M129 -449v103q61 0 89 23t28 73v4h-103v195h236v-135q0 -137 -63 -200t-187 -63z" />
    <glyph glyph-name="period.subs" horiz-adv-x="520" 
d="M143 -246v195h234v-195h-234z" />
    <glyph glyph-name="comma.sups" horiz-adv-x="520" 
d="M129 424v102q61 0 89 23.5t28 73.5v4h-103v194h236v-135q0 -137 -63 -199.5t-187 -62.5z" />
    <glyph glyph-name="period.sups" horiz-adv-x="520" 
d="M143 627v194h234v-194h-234z" />
    </font>
</defs>
</svg>
